<svg xmlns="http://www.w3.org/2000/svg" xmlns:xlink="http://www.w3.org/1999/xlink" width="413.873" height="419.088" viewBox="0 0 413.873 419.088">
  <defs>
    <clipPath id="clip-path">
      <path id="Path_772" data-name="Path 772" d="M647,1311h6.5v5.637H647Zm0,0" transform="translate(-647 -1311)"/>
    </clipPath>
    <clipPath id="clip-path-2">
      <path id="Path_771" data-name="Path 771" d="M650.339,1316.551c-1.979,0-2.309-1.188-2.773-2.541s3.361-2.559,3.361-2.559a1.672,1.672,0,0,1,.608-.121c1.121,0,1.914,1.31,1.926,3,.014,1.977-1.091,2.212-3.093,2.225h-.029" transform="translate(-647.526 -1311.33)"/>
    </clipPath>
  </defs>
  <g id="Group_30613" data-name="Group 30613" transform="translate(40.053 -111.936)">
    <g id="Group_30525" data-name="Group 30525" transform="translate(-30.099 97.987)">
      <path id="Path_997" data-name="Path 997" d="M172.921-4.051c61.425,21.168,111.816,27.535,102.205,120.2S233.222,303.689,162.271,302.4-.4,142.967-5.136,80.925,111.5-25.219,172.921-4.051Z" transform="matrix(0.788, -0.616, 0.616, 0.788, 0, 191.485)" fill="#00b5d8" opacity="0.1"/>
      <g id="Group_30524" data-name="Group 30524" transform="translate(51.412 31.9)">
        <path id="Path_641" data-name="Path 641" d="M710.45,1612.329s12.84-8.374,18.733-17.4,3.862-10.373.711-8.248-6.837,7.034-6.837,7.034,8.961-13.383,11.056-21.076.569-14.614-2.519-9.731a60.649,60.649,0,0,0-3.479,5.828c8.822-17.745-5.58-35.607-8.28-17.515a169.876,169.876,0,0,0,1.31,19.709s-2.2-11.639-5.222-10.273c-5.379.369,1.362,24.22,1.423,25.273-5.639-16.427-6.949-3.547-7.12,9.332-.117,8.686.284,17.372.224,17.069" transform="translate(-490.792 -1314.529)" fill="#327f61"/>
        <path id="Path_642" data-name="Path 642" d="M686.684,1640.22c14.543-11.869,31.748-47.385,26.211-68.76,1.869,31.557-10.194,49.532-26.211,68.76" transform="translate(-477.472 -1330.269)" fill="#374d6d"/>
        <path id="Path_643" data-name="Path 643" d="M650.57,1683.224s21.649-.425,35.465-6.834,12.387-9.54,7.023-9.354-13.455,3.313-13.455,3.313,20.749-9.328,29.016-16.982,11.614-17.082,4.26-13.543-8.529,4.384-8.529,4.384c23.846-14.666,19.952-46.843,3.183-27.182-6.158,9.4-13.176,24.593-13.176,24.593s6.071-15.59,1.426-16.214c-6.718-3.586-16.488,30.039-17.2,31.345,5.655-24.441-6.192-8.773-16.183,6.9-6.369,9.987-11.984,19.974-11.832,19.575" transform="translate(-457.017 -1352.57)" fill="#59934e"/>
        <path id="Path_644" data-name="Path 644" d="M600.127,1711.33c26.305-3.344,73.491-33.027,82.847-62.78-14.407,30.946-53.736,57.359-82.969,61.87a.462.462,0,0,0,.122.911" transform="translate(-428.182 -1373.928)" fill="#327f61"/>
        <path id="Path_645" data-name="Path 645" d="M294.934,1612.329s-12.842-8.374-18.736-17.4-3.862-10.373-.711-8.248,6.837,7.034,6.837,7.034-8.961-13.383-11.055-21.076-.571-14.614,2.517-9.731a60.68,60.68,0,0,1,3.479,5.828c-8.82-17.745,5.58-35.607,8.28-17.515a169.524,169.524,0,0,1-1.309,19.709s2.2-11.639,5.224-10.273c5.379.369-1.362,24.22-1.425,25.273,5.639-16.427,6.949-3.547,7.12,9.332.117,8.686-.284,17.372-.222,17.069" transform="translate(-241.656 -1314.529)" fill="#327f61"/>
        <path id="Path_646" data-name="Path 646" d="M315.566,1640.22c-14.543-11.869-31.747-47.385-26.211-68.76-1.866,31.557,10.189,49.528,26.211,68.76" transform="translate(-251.845 -1330.269)" fill="#374d6d"/>
        <path id="Path_647" data-name="Path 647" d="M295.09,1683.224s-21.651-.425-35.465-6.834-12.388-9.54-7.025-9.354,13.455,3.313,13.455,3.313-20.749-9.328-29.016-16.982-11.614-17.082-4.261-13.543,8.529,4.384,8.529,4.384c-23.844-14.666-19.951-46.843-3.181-27.182,6.156,9.4,13.174,24.593,13.174,24.593s-6.071-15.59-1.425-16.214c6.718-3.586,16.488,30.039,17.2,31.345-5.656-24.441,6.19-8.773,16.181,6.9,6.369,9.987,11.985,19.974,11.834,19.575" transform="translate(-215.708 -1352.57)" fill="#59934e"/>
        <path id="Path_648" data-name="Path 648" d="M328.925,1711.33c-26.306-3.344-73.491-33.027-82.847-62.78,14.407,30.946,53.736,57.359,82.969,61.87a.462.462,0,0,1-.122.911" transform="translate(-227.936 -1373.928)" fill="#327f61"/>
        <path id="Path_649" data-name="Path 649" d="M490.494,1468.618a94.782,94.782,0,0,1-6.572,34.788c-39.371,97.039-182.8,69.4-183.7-34.792,4.52-125.847,185.5-126.258,190.271,0" transform="translate(-258.601 -1218.481)" fill="#a2f0f4"/>
        <path id="Path_650" data-name="Path 650" d="M530.282,1610.07c-7.663,0-13.136-7.84-18.41-15.495-3.356-4.874-1.4-8.053,1.379-10.382a11.3,11.3,0,0,0,1.328,2.489c5.275,7.658,10.748,15.5,18.41,15.5a14.106,14.106,0,0,0,6.6-1.808,24.376,24.376,0,0,0,6.469-5.135c.366,4.15-1.631,8.634-9.178,13.027a14.09,14.09,0,0,1-6.6,1.8m27.624-10.148c-3.237,0-2.431-3.7,1.238-8.313a2.266,2.266,0,0,0,1.469.425c.1,0,.215,0,.329-.013,4.236-.295,10.9.624,14.234-2.966a22.037,22.037,0,0,1-1.275,5.52c-2.323,6.323-10.676,4.987-15.668,5.334-.112.009-.222.013-.327.013m19.282-15.026a23.987,23.987,0,0,0,.759-4.354,10.89,10.89,0,0,1,2.973,2.021c2,2.32-.667,2-3.657,2.32l-.074.013m-10.11-6.566c-1.248-1.943-3.161-4.107-2.52-8.127.674-4.2-.69-6.617-2.5-6.617-1.111,0-2.392.906-3.477,2.871a14,14,0,0,0,1.03-3.127c1.152-5.3,3.371-7.637,5.154-7.637,1.814,0,3.178,2.424,2.506,6.622-1.335,8.352,8.38,8.7.186,15.694-.125.108-.251.212-.374.321m-17.016-.425a24.962,24.962,0,0,1-3.175-.278c-.835-.108-1.663-.217-2.464-.256-2.446-3.838-4.211-6.648.156-7.689a7.3,7.3,0,0,1,1.892-.221,24.729,24.729,0,0,1,3.124.278,25.815,25.815,0,0,0,3.174.273,5.753,5.753,0,0,0,5.556-3.075,18.676,18.676,0,0,0-1.428,4.28c-1.206,5.547-3.86,6.683-6.835,6.687m-67.515-.785c-1.065,0-3.017-1.457-6.706-1.739-6.672-.507-4-7.845-3.684-18.521a16.76,16.76,0,0,1,.158-1.891c.709.078,1.433.152,2.15.217-.627,7.225-1.2,11.9,4.084,12.307a16.237,16.237,0,0,1,4.906,1.188,13.223,13.223,0,0,1,.393,4.193c-.154,3.291-.437,4.245-1.3,4.245m33.608-.984c-4.739-2.372-13.313-5.369-17.976-10.256-2.189-2.294-3.554-3.083-4.5-3.083-1.941,0-2.136,3.3-4.091,3.751a4.093,4.093,0,0,1-.922.121,1.816,1.816,0,0,1-1.381-.62,2.257,2.257,0,0,0-.761-.464c.012-.191.022-.39.032-.6a10.59,10.59,0,0,0-1.15-6.028,5.85,5.85,0,0,0,2.013.321c1.467,0,2.871-.386,3.744-.386a58.071,58.071,0,0,0,9.367-1.266c.117.117.237.239.359.369,6.673,6.991,21.351,10.113,21.351,13.079,0,1.422-3.371,2.858-6.083,5.065m67.566-10.924a30.43,30.43,0,0,0-7-1.349,5.432,5.432,0,0,0-1.589.208c-.33-6.149,1.028-8.1,4.3-8.1a14.4,14.4,0,0,1,2.658.3q.983,4.4,1.64,8.938" transform="translate(-355.526 -1320.93)" fill="#d3f8fa"/>
        <path id="Path_651" data-name="Path 651" d="M302.45,1602.556a85.278,85.278,0,0,1-2.07-30.646c-.144,1.461-.254,2.919-.329,4.384a90.49,90.49,0,0,0,1.255,20.711q.425,2.42.984,4.822c.052.243.1.486.159.728" transform="translate(-258.379 -1330.524)" fill="#9fc3b5"/>
        <path id="Path_652" data-name="Path 652" d="M305.958,1588.552c-.1-.373-.2-.746-.295-1.123-.054-.243-.107-.486-.159-.729.092.395.186.785.284,1.18.056.226.112.451.17.672m40.055-27.112a18.022,18.022,0,0,1-9.5-2.641,90.273,90.273,0,0,1-4.743-13.6,11.424,11.424,0,0,1,4.452,3.257,17.173,17.173,0,0,0,12.494,5.1,18.984,18.984,0,0,0,7.177-1.414c.363-.147.7-.3,1.011-.464,1.277,3.673.779,6.514-3.722,8.357a18.955,18.955,0,0,1-7.174,1.409" transform="translate(-261.592 -1315.396)" fill="#d3f8fa"/>
        <path id="Path_653" data-name="Path 653" d="M352.811,1481.379c-7.313,2.988-15.32.989-19.672-3.682s-8.006-5.017-13.345.663,7.66,9.983,4.672,12.841c-1.32,1.249-3.231,1.193-5.268,1.136-2.582-.069-5.366-.139-7.409,2.441-3.606,9.072,14.1,8.712-9.662,19.51-7.774-35,6.935-73.249,33.95-94.029,8.138,7.715,13.133,4.037,11.742,16.067,0,7.684,6.673,6.006,8.995,14.172,2.35,8.2-8.648,6.86-4.323,14.519s7.685,13.344.32,16.362" transform="translate(-258.506 -1244.637)" fill="#b0ce67"/>
        <path id="Path_654" data-name="Path 654" d="M608.415,1644.1a95.2,95.2,0,0,1-75.8,71.1c-31.916-22.1-20.189-41.939,4.324-35.338,6.993,4.675,15.32-3.014,16.333-7.017,1.293-8.951,37.742-7.632,36.353-17.988-.64-4.7,11.37-4.354,18.789-10.759" transform="translate(-379.219 -1371.408)" fill="#b0ce67"/>
        <path id="Path_655" data-name="Path 655" d="M490.413,1457.293c-4,.642,0,0-.32,7.311-.347,7.368-1.335,3.018-8.007,2.511s-4-7.849-3.683-18.521,8.328-5.98,10.355-.989c1.975,4.991,6.673,3.014,8.648,3.014,2.028,0,15.693-1.331,19.7-5.685s16.013-3.656,22.02-7.953c6.005-4.267-1.682-9.046,3.015-14.385,4.643-5.338,2.99-7.689,0-13.69-3.015-6.006-3.015-5.338-10.675-2.324-7.687,2.988-4,6.327-11.69,11.318-7.687,5.018-8.007,1.332-10.357,5.018-2.322,3.682,2.35,5.338,1.335,11.075-.987,5.763-7.313,2.268-6.993-2.589.32-4.831-4.324-2.134-11.343-.161-7.02,2.03-8.995-16.015-6.327-16.336s5.98-4,9.742-14.358c2.334-6.448,5.626-5.75,10.311-5.048a22.312,22.312,0,0,0,10.054-.291c10.464-2.988-.747-3.656,0-17.481a95.245,95.245,0,0,1,73.77,79.216c-8.839-2.368-12.236-2.78-11.155,8.673.346,5.659,6.353,6.353,8.353,8.677s-.667,2-3.655,2.32c-3.017.347-1.015,3.361-3.364,9.688-2.321,6.327-10.675,4.991-15.666,5.338s-1.682-7.021,6.511-14.011-1.521-7.342-.186-15.694c1.335-8.326-5.338-9.662-7.66,1.015-1.626,7.476-5.883,6.943-10.011,6.41a13.41,13.41,0,0,0-5.016-.057c-11.268,2.693,18.3,17.138-4.99,30.69-11.343,5.98-18.337-4-25.009-13.69s7.66-12.676,7.66-15.612c0-2.966-14.678-6.089-21.351-13.079s-5.685,0-8.595.668c-1.46.33-1.817-.082-2.3-.5s-1.1-.837-3.115-.49" transform="translate(-359.062 -1220.551)" fill="#b0ce67"/>
        <path id="Path_656" data-name="Path 656" d="M339.973,1672.969c-4.613,2.142-7.907.893-10.591-.356-3.761-1.752-6.324-3.5-9.64,4.068a94.612,94.612,0,0,1-10.355-22.927c4.221-2.559,7.467.273,10.785,3.1,3.242,2.767,6.552,5.534,10.914,3.279,7.124-2.268,18.229,7.953,8.886,12.836" transform="translate(-263.791 -1376.309)" fill="#b0ce67"/>
        <path id="Path_657" data-name="Path 657" d="M350.834,1615.535s-1.781-19.293,8.451-8.092c10.823,12.2-11.534,18.023-8.451,8.092" transform="translate(-287.097 -1348.668)" fill="#b0ce67"/>
        <path id="Path_658" data-name="Path 658" d="M717.033,1678.208a1.17,1.17,0,0,0-.095-.1c.493-1.015.964-2.034,1.419-3.07.69-1.518,1.34-3.062,1.948-4.618q-1.492,4.033-3.273,7.788" transform="translate(-494.606 -1386.314)" fill="#327968"/>
        <path id="Path_659" data-name="Path 659" d="M667.3,1717.248a93.946,93.946,0,0,0,16.443-19.983,92.342,92.342,0,0,0,5.08-9.115,1.126,1.126,0,0,1,.094.1,90.067,90.067,0,0,1-21.618,29" transform="translate(-466.496 -1396.356)" fill="#50885a"/>
        <path id="Path_660" data-name="Path 660" d="M629.008,1740.862a95.517,95.517,0,0,0,24.857-20.642,94.247,94.247,0,0,0,8.194-11.049,93.945,93.945,0,0,1-16.443,19.983,90.756,90.756,0,0,1-16.608,11.709" transform="translate(-444.807 -1408.26)" fill="#87cfd8"/>
        <path id="Path_661" data-name="Path 661" d="M716.914,1684.14a.055.055,0,0,0-.019-.018q.335-.689.659-1.379c.264-.555.523-1.11.779-1.674-.456,1.036-.927,2.056-1.419,3.07" transform="translate(-494.582 -1392.346)" fill="#85ada8"/>
        <path id="Path_662" data-name="Path 662" d="M705.223,1697.243q.78-1.262,1.533-2.567,1.888-3.207,3.529-6.566a.056.056,0,0,1,.019.017,92.312,92.312,0,0,1-5.08,9.115" transform="translate(-487.971 -1396.333)" fill="#93b4a1"/>
        <path id="Path_663" data-name="Path 663" d="M686.328,1716.867a95.488,95.488,0,0,0,9.727-13.617q-.755,1.307-1.533,2.567a94.262,94.262,0,0,1-8.194,11.049" transform="translate(-477.27 -1404.907)" fill="#add5dd"/>
        <path id="Path_664" data-name="Path 664" d="M624.223,1728.243a98.276,98.276,0,0,0,40.846-43.313q-.325.69-.659,1.379-1.639,3.357-3.529,6.565a95.574,95.574,0,0,1-34.584,34.259c-.689.377-1.379.746-2.075,1.11" transform="translate(-442.097 -1394.532)" fill="#92b56d"/>
        <path id="Path_665" data-name="Path 665" d="M392.051,1769.182a90.8,90.8,0,0,1-16.242-10.88c-.139-.234-.279-.468-.422-.711,1.775,1.492,3.61,2.923,5.485,4.276a95.768,95.768,0,0,0,11.179,7.316" transform="translate(-301.17 -1435.682)" fill="#cedae0"/>
        <path id="Path_666" data-name="Path 666" d="M355.513,1736.333a88.89,88.89,0,0,1-15.962-17.533,90.154,90.154,0,0,0,15.54,16.821c.142.243.283.477.422.711" transform="translate(-280.874 -1413.714)" fill="#50885a"/>
        <path id="Path_667" data-name="Path 667" d="M344.473,1706.976c-1.875-1.353-3.71-2.784-5.485-4.276a90.154,90.154,0,0,1-15.54-16.821,95.324,95.324,0,0,1-12.331-25.208c.192.568.388,1.136.59,1.7a95.033,95.033,0,0,0,9.015,18.795l0,0c.526.846,1.065,1.678,1.619,2.506.036-.013.069-.03.1-.043a97.955,97.955,0,0,0,22.025,23.352" transform="translate(-264.771 -1380.792)" fill="#87cfd8"/>
        <path id="Path_668" data-name="Path 668" d="M334.889,1710.274c-.554-.828-1.093-1.661-1.619-2.506l.051-.117q.818,1.307,1.673,2.58c-.036.013-.069.03-.1.043" transform="translate(-277.317 -1407.399)" fill="#add5dd"/>
        <path id="Path_669" data-name="Path 669" d="M401.379,1651.414c-20.589-1.136-40.836-8.487-56.883-22.03,3.222-2.077,3.31-4.913,1.816-7.381a.474.474,0,0,0,.066-.03c8.431-4.406.212-13.161-6.71-13.161a7.165,7.165,0,0,0-2.177.325,6.862,6.862,0,0,1-3.181.828c-2.883,0-5.327-2.051-7.733-4.107a38.426,38.426,0,0,0-3.1-2.467q-1.469-2.752-2.787-5.659c4.359-3.083,3.181-5,1.631-7.2,6.82-4.384,3.585-6.249,1.687-9.337a11.016,11.016,0,0,1,2.9-.317c.425,0,.849.013,1.267.022s.833.022,1.239.022a5.572,5.572,0,0,0,4.033-1.158c1.809-1.73-2.242-3.99-4.535-6.765.232-.009.464-.009.7-.009.427,0,.853.009,1.274.022s.837.022,1.243.022a5.553,5.553,0,0,0,4.025-1.158c1.912-1.83-2.724-4.245-4.909-7.242a7.664,7.664,0,0,1,4.672-1.926c2.089,0,4.064,1.253,6.2,3.552a14.638,14.638,0,0,0,3,2.454c15.281,34.675,51.308,57.7,88.936,57.706a91.242,91.242,0,0,0,10.467-.6,3.433,3.433,0,0,0-.275.928c-.789,3.118-6.022,8.478-11.6,8.478a8.37,8.37,0,0,1-4.73-1.462,34.965,34.965,0,0,0-9.024-1.288c-9.628,0-15.556,5.091-14.619,12.788a10.1,10.1,0,0,0-2.9,6.145m-67.56-62.841c-3.556,1.071-2.595,11.5-2.595,11.5-1.086,3.5.984,5.043,3.649,5.043,4.049,0,9.471-3.569,7.282-9.263,3.24-2.047,5.112-6.253.229-11.761-2.3-2.52-4-3.5-5.239-3.5-2.69,0-3.268,4.579-3.325,7.979" transform="translate(-270.195 -1325.313)" fill="#87cfd8"/>
        <path id="Path_670" data-name="Path 670" d="M317.936,1587.43q-1.116-2.472-2.112-5.065c1.494-.776,2.729-1.483,3.744-2.134,1.55,2.2,2.727,4.115-1.631,7.2m3.319-16.535a5.9,5.9,0,0,1-.536-5.742,6.666,6.666,0,0,1,5.438-2.454c2.292,2.775,6.344,5.035,4.535,6.765a5.571,5.571,0,0,1-4.033,1.158c-.4,0-.818-.009-1.238-.022s-.842-.022-1.267-.022a11.021,11.021,0,0,0-2.9.317m21.107-12.481a14.635,14.635,0,0,1-3-2.454c-2.141-2.3-4.116-3.552-6.2-3.552a7.664,7.664,0,0,0-4.672,1.925c-1.23-1.682-1.682-3.552.237-5.6,2.71-2.884,4.987-4.215,7.142-4.215a5.442,5.442,0,0,1,1.752.295,90.267,90.267,0,0,0,4.743,13.6" transform="translate(-267.437 -1315.011)" fill="#add5dd"/>
        <path id="Path_671" data-name="Path 671" d="M511.722,1759.387c-1.662-.009-3.312-.061-4.972-.152a10.105,10.105,0,0,1,2.9-6.145,18.606,18.606,0,0,0,2.077,6.3" transform="translate(-375.567 -1433.134)" fill="#add5dd"/>
        <path id="Path_672" data-name="Path 672" d="M365.557,1706.821a88.649,88.649,0,0,1-7.674-7.307,11.906,11.906,0,0,0,4.686,1.054,11.381,11.381,0,0,0,4.8-1.128c1.494,2.468,1.406,5.3-1.816,7.381" transform="translate(-291.257 -1402.75)" fill="#add5dd"/>
        <path id="Path_673" data-name="Path 673" d="M348.237,1638.889c-2.665,0-4.735-1.544-3.649-5.043,0,0-.961-10.425,2.595-11.5-.034,2.008.114,3.608.114,3.608-1.086,3.5.982,5.039,3.647,5.039a8.861,8.861,0,0,0,4.576-1.37c2.189,5.694-3.234,9.263-7.282,9.263" transform="translate(-283.56 -1359.09)" fill="#add5dd"/>
        <path id="Path_674" data-name="Path 674" d="M313.684,1476.252a92.9,92.9,0,0,1,18.544-31.162,96.378,96.378,0,0,0-18.544,31.162" transform="translate(-266.225 -1258.7)" fill="#87cfd8"/>
        <path id="Path_675" data-name="Path 675" d="M307.594,1520.112a106.954,106.954,0,0,1-6.3-26.158,99.724,99.724,0,0,1,5.373-23.643,96.379,96.379,0,0,1,18.543-31.162q2.165-2.368,4.494-4.549a104.346,104.346,0,0,0-2.13,10.356,18.423,18.423,0,0,0-3.367,10.924,18.147,18.147,0,0,0,2.426,9.423,90.388,90.388,0,0,0,2.756,17.26,5.448,5.448,0,0,0-1.752-.295c-2.155,0-4.431,1.331-7.142,4.215-1.919,2.047-1.467,3.916-.237,5.6,2.185,3,6.822,5.412,4.909,7.242a5.553,5.553,0,0,1-4.025,1.158c-.406,0-.821-.009-1.243-.022s-.847-.022-1.274-.022c-.234,0-.466,0-.7.009a6.666,6.666,0,0,0-5.438,2.455,5.9,5.9,0,0,0,.536,5.742c1.9,3.088,5.133,4.952-1.687,9.337-1.015.65-2.249,1.357-3.744,2.134" transform="translate(-259.207 -1252.759)" fill="#92b56d"/>
        <path id="Path_676" data-name="Path 676" d="M516.027,1712.792c-.215,0-.435,0-.65,0a18.6,18.6,0,0,1-2.077-6.3c-.937-7.7,4.99-12.788,14.619-12.788a34.97,34.97,0,0,1,9.023,1.288,8.37,8.37,0,0,0,4.73,1.462c5.582,0,10.814-5.36,11.6-8.478a3.435,3.435,0,0,1,.275-.928,91.212,91.212,0,0,0,42.224-16.236c-17.969,28.023-48.852,41.982-79.746,41.982" transform="translate(-379.221 -1386.535)" fill="#92b56d"/>
        <path id="Path_677" data-name="Path 677" d="M304.218,1634.6q-.561-2.4-.984-4.822c.276,1.565.595,3.127.951,4.666.012.052.022.1.034.156" transform="translate(-260.307 -1363.298)" fill="#85ada8"/>
        <path id="Path_678" data-name="Path 678" d="M305.744,1641.876c-.1-.395-.193-.785-.284-1.18-.012-.052-.022-.1-.034-.156.1.447.208.889.318,1.336" transform="translate(-261.548 -1369.392)" fill="#add5dd"/>
        <path id="Path_679" data-name="Path 679" d="M321.492,1678.814a95.029,95.029,0,0,1-9.015-18.794,95.938,95.938,0,0,0,9.068,18.673l-.051.117,0,0m15.361-2.554a11.909,11.909,0,0,1-4.686-1.054,89.18,89.18,0,0,1-13.34-18.686,38.426,38.426,0,0,1,3.1,2.467c2.406,2.056,4.85,4.107,7.733,4.107a6.862,6.862,0,0,0,3.181-.828,7.165,7.165,0,0,1,2.177-.325c6.922,0,15.141,8.756,6.71,13.161a.474.474,0,0,1-.066.03,11.383,11.383,0,0,1-4.8,1.128" transform="translate(-265.541 -1378.442)" fill="#92b56d"/>
        <path id="Path_680" data-name="Path 680" d="M354.481,1620.576c-2.665,0-4.733-1.544-3.647-5.039,0,0-.147-1.6-.114-3.608.058-3.4.635-7.979,3.325-7.979,1.243,0,2.937.976,5.239,3.5,4.884,5.507,3.012,9.714-.229,11.761a8.863,8.863,0,0,1-4.575,1.37" transform="translate(-287.097 -1348.669)" fill="#92b56d"/>
        <path id="Path_681" data-name="Path 681" d="M460.991,1796.094c-.432,0-.86,0-1.294-.009-.288,0-.586,0-.874,0a91.73,91.73,0,0,1-38.505-8.461c.3.061.6.117.894.173a98.5,98.5,0,0,0,25.631,6.817,100.815,100.815,0,0,0,14.047.984q2.173,0,4.348-.1c.147.13.293.256.442.386a92.094,92.094,0,0,0,23.877-4.592c.92-.286,1.829-.581,2.741-.9a89.548,89.548,0,0,1-31.306,5.69m-44.256-10.3c-.125-.035-.254-.069-.379-.1-.857-.447-1.7-.9-2.543-1.37q1.448.761,2.922,1.47" transform="translate(-322.932 -1450.821)" fill="#b5c8d1"/>
        <path id="Path_682" data-name="Path 682" d="M424.533,1789.592c-.3-.056-.593-.113-.894-.173-1.335-.616-2.661-1.266-3.962-1.938.125.031.254.065.379.1,1.474.707,2.971,1.379,4.477,2.012" transform="translate(-326.253 -1452.611)" fill="#32766c"/>
        <path id="Path_683" data-name="Path 683" d="M504.026,1799.506a100.815,100.815,0,0,1-14.046-.984,101.438,101.438,0,0,0,12.773.807q2.681,0,5.363-.143c.085.074.173.152.259.226-1.448.065-2.9.1-4.348.1m28.667-4.3q1.888-.625,3.743-1.336,3.227-1.217,6.337-2.658-3.6,1.7-7.34,3.1c-.911.317-1.821.612-2.741.9" transform="translate(-366.069 -1454.723)" fill="#7abeca"/>
        <path id="Path_684" data-name="Path 684" d="M532.84,1805.012c-.149-.13-.295-.256-.442-.386a97.53,97.53,0,0,0,10.826-1.076c.088.061.175.122.265.182a94.6,94.6,0,0,0,12.573-3.109c.22-.069.437-.135.656-.2a92.09,92.09,0,0,1-23.877,4.593" transform="translate(-390.093 -1459.939)" fill="#b5c8d1"/>
        <path id="Path_685" data-name="Path 685" d="M532.06,1802.882c-.086-.074-.174-.152-.259-.226a102.612,102.612,0,0,0,10.682-1.132c.132.091.269.187.4.282a97.588,97.588,0,0,1-10.826,1.075m23.663-4q2.223-.716,4.4-1.539-1.855.709-3.743,1.336c-.219.069-.435.134-.656.2" transform="translate(-389.754 -1458.195)" fill="#99c3ce"/>
        <path id="Path_686" data-name="Path 686" d="M557.1,1794.892c-.09-.061-.177-.121-.265-.182-.134-.1-.271-.191-.4-.282a97.594,97.594,0,0,0,29.4-9.618q-2.663,1.47-5.421,2.775-3.113,1.444-6.337,2.658-2.175.82-4.4,1.54a94.6,94.6,0,0,1-12.573,3.109" transform="translate(-403.705 -1451.099)" fill="#83a870"/>
        <path id="Path_687" data-name="Path 687" d="M724.7,1614.154c.762-2.06,1.471-4.18,2.114-6.344.415-1.366.8-2.754,1.153-4.146a95.247,95.247,0,0,0,2.925-23.478,89.37,89.37,0,0,1-6.193,33.968m6.193-33.968q-.157-4.144-.562-8.1c.042-.334.083-.672.122-1.01.291,3,.44,6.045.44,9.115" transform="translate(-499.004 -1330.048)" fill="#32766c"/>
        <path id="Path_688" data-name="Path 688" d="M712.8,1608.782A103.331,103.331,0,0,0,723.6,1573.4q.4,3.955.562,8.1a95.248,95.248,0,0,1-2.925,23.478q.117-.462.229-.924a27.788,27.788,0,0,1-8.656,4.723" transform="translate(-492.265 -1331.367)" fill="#7abeca"/>
        <path id="Path_689" data-name="Path 689" d="M703.609,1655.683q2.117-3.3,3.988-6.86a27.787,27.787,0,0,0,8.656-4.723q-.112.462-.229.924c-.354,1.392-.738,2.78-1.153,4.146.356-1.193.691-2.4,1.009-3.625a103.606,103.606,0,0,1-12.271,10.139" transform="translate(-487.057 -1371.408)" fill="#83a870"/>
        <path id="Path_690" data-name="Path 690" d="M308.531,1651.892q-1.116-3.317-1.98-6.722c.019.074.037.139.056.212q.536,2.049,1.174,4.072c0,.009,0,0,0,0,.023.078.047.161.073.239q.328,1.106.677,2.194" transform="translate(-262.185 -1372.014)" fill="#7abeca"/>
        <path id="Path_691" data-name="Path 691" d="M306.385,1644.5c-.019-.074-.037-.139-.056-.213-.058-.221-.114-.447-.17-.672q.112.443.225.885" transform="translate(-261.964 -1371.136)" fill="#99c3ce"/>
        <path id="Path_692" data-name="Path 692" d="M301.419,1602.731a90.49,90.49,0,0,1-1.255-20.711,90.449,90.449,0,0,0,.33,13.816c.218,2.307.526,4.61.925,6.9" transform="translate(-258.492 -1336.249)" fill="#78a1a2"/>
        <path id="Path_693" data-name="Path 693" d="M300.508,1589.584a90.45,90.45,0,0,1-.33-13.816q.129-2.387.389-4.787c.007.069.015.143.024.213a94.364,94.364,0,0,0-.083,18.391" transform="translate(-258.505 -1329.997)" fill="#83a870"/>
        <path id="Path_694" data-name="Path 694" d="M309.46,1655.3c-.026-.078-.049-.16-.073-.239.023.078.049.165.073.239" transform="translate(-263.791 -1377.615)" fill="#83a870"/>
        <path id="Path_695" data-name="Path 695" d="M432.244,1785.065a98.509,98.509,0,0,1-25.631-6.817q.653.117,1.291.221a101.224,101.224,0,0,0,24.34,6.6m-28.543-8.439c-.52-.126-1.04-.256-1.565-.39q-1.471-.709-2.922-1.47a95.755,95.755,0,0,1-11.179-7.316,97.051,97.051,0,0,0,15.666,9.176" transform="translate(-308.333 -1441.267)" fill="#96b0bd"/>
        <path id="Path_696" data-name="Path 696" d="M426.319,1789.943q-.638-.1-1.291-.221c-1.506-.633-3-1.305-4.477-2.012.525.134,1.045.264,1.565.39q2.081.969,4.2,1.843" transform="translate(-326.748 -1452.741)" fill="#327270"/>
        <path id="Path_697" data-name="Path 697" d="M416.253,1755.091a94.52,94.52,0,0,1-37.113-7.4q-2.122-.878-4.2-1.843a88.608,88.608,0,0,1-37.691-32.528,3.31,3.31,0,0,1,1.191-.217c1.382,0,2.773.807,4.352,1.613a11.866,11.866,0,0,0,5.484,1.613,10.1,10.1,0,0,0,4.768-1.292c.3-.152.572-.312.828-.477,16.047,13.543,36.295,20.894,56.883,22.03-.432,4.731,2.375,10.88,10.863,18.361q-2.678.143-5.363.143" transform="translate(-279.569 -1410.486)" fill="#69a9b8"/>
        <path id="Path_698" data-name="Path 698" d="M517.558,1785.621c-8.488-7.48-11.3-13.63-10.863-18.361,1.66.091,3.31.143,4.972.152,2.7,5.182,8.006,11.036,16.574,17.077a102.582,102.582,0,0,1-10.682,1.132" transform="translate(-375.511 -1441.159)" fill="#81adbb"/>
        <path id="Path_699" data-name="Path 699" d="M346.087,1706.1a11.862,11.862,0,0,1-5.483-1.613c-1.579-.807-2.969-1.613-4.352-1.613a3.314,3.314,0,0,0-1.191.217q-.856-1.275-1.673-2.58c1.858-4.194,3.481-5.464,5.214-5.464,1.338,0,2.744.759,4.374,1.518.336.156.68.312,1.035.459a88.659,88.659,0,0,0,7.673,7.307c-.256.165-.532.325-.828.477a10.1,10.1,0,0,1-4.768,1.292" transform="translate(-277.383 -1400.263)" fill="#81adbb"/>
        <path id="Path_700" data-name="Path 700" d="M720.211,1666.753c.427-.971.839-1.956,1.232-2.94q1.588-3.929,2.831-8.022c-.644,2.164-1.352,4.284-2.114,6.344-.608,1.557-1.258,3.1-1.948,4.618" transform="translate(-496.46 -1378.029)" fill="#327270"/>
        <path id="Path_701" data-name="Path 701" d="M718.414,1678.9q1.065-2.277,2.011-4.614c-.393.984-.8,1.969-1.232,2.94-.256.564-.515,1.119-.779,1.674" transform="translate(-495.442 -1388.506)" fill="#679399"/>
        <path id="Path_702" data-name="Path 702" d="M534.789,1716.624c-8.568-6.041-13.879-11.9-16.574-17.077.215,0,.435,0,.651,0,30.894,0,61.777-13.959,79.746-41.982a103.631,103.631,0,0,0,12.271-10.139c-.318,1.227-.654,2.433-1.009,3.625q-1.237,4.091-2.83,8.022-.945,2.335-2.011,4.614a91.983,91.983,0,0,1-70.243,52.932" transform="translate(-382.06 -1373.294)" fill="#709873"/>
        <path id="Path_703" data-name="Path 703" d="M309.194,1652.629c-.2-.564-.4-1.132-.59-1.7q-.348-1.086-.677-2.194.589,1.965,1.267,3.894m6.35-3.5a7.844,7.844,0,0,0-4.4-1.635,6.24,6.24,0,0,0-3.286,1c0-.009,0,0,0,0q-.641-2.023-1.174-4.072c.193.711.4,1.427.61,2.138a38.831,38.831,0,0,0,5.468-3.088q1.311,2.9,2.787,5.659" transform="translate(-262.258 -1371.052)" fill="#69a9b8"/>
        <path id="Path_704" data-name="Path 704" d="M302.977,1625.441c-.356-1.54-.674-3.1-.951-4.666-.4-2.285-.706-4.588-.925-6.9q.4,3.942,1.157,7.849c.217,1.249.457,2.493.718,3.712" transform="translate(-259.099 -1354.293)" fill="#679399"/>
        <path id="Path_705" data-name="Path 705" d="M305.642,1639.943c-.212-.711-.417-1.427-.61-2.138q-.114-.442-.225-.885c-.11-.447-.215-.889-.318-1.336-.261-1.218-.5-2.463-.718-3.712q.216,1.112.461,2.216c1.823-.828,3.4-1.591,4.767-2.3q.994,2.589,2.112,5.065a38.857,38.857,0,0,1-5.468,3.088" transform="translate(-260.61 -1364.437)" fill="#81adbb"/>
        <path id="Path_706" data-name="Path 706" d="M302.185,1599.926q-.247-1.106-.461-2.216-.76-3.9-1.157-7.849a94.364,94.364,0,0,1,.083-18.391,106.957,106.957,0,0,0,6.3,26.158c-1.363.707-2.944,1.47-4.767,2.3" transform="translate(-258.565 -1330.275)" fill="#709873"/>
        <path id="Path_707" data-name="Path 707" d="M319.795,1676.558a95.937,95.937,0,0,1-9.068-18.673q-.676-1.932-1.267-3.894c-.024-.074-.049-.16-.073-.239a6.241,6.241,0,0,1,3.286-1,7.846,7.846,0,0,1,4.4,1.635,89.177,89.177,0,0,0,13.34,18.686c-.356-.147-.7-.3-1.035-.46-1.63-.759-3.036-1.518-4.374-1.518-1.733,0-3.356,1.271-5.214,5.464" transform="translate(-263.791 -1376.307)" fill="#709873"/>
        <path id="Path_708" data-name="Path 708" d="M453.375,1478.134a1.925,1.925,0,0,1,1.56-.967,3.661,3.661,0,0,1,2.021.841c-1.19.057-2.387.1-3.581.126m-22.509-.906a135.352,135.352,0,0,1-18.187-3.174c-.271-2.858-2.307-6.392-4.618-10.486-.039-.069-.076-.134-.114-.2a5.682,5.682,0,0,0,1.731-6.422c-.046-.165-.095-.321-.144-.477,1.9-1.635,4.013-3.356,2.849-7.416-2.322-8.166-8.995-6.488-8.995-14.172.962-8.326-1.133-9.124-5.214-11.388A91.549,91.549,0,0,1,416.4,1417.7c10.482,4.948,22.977,10.841,30.532,14.284-2.17,3.79-4.13,5.356-5.83,5.56-1.138.139-1.432,3.5-.849,7.151a4.309,4.309,0,0,1-1.858.742c-2.527.3-.891,16.492,5.248,16.492a3.846,3.846,0,0,0,1.078-.161c4.1-1.153,7.394-2.554,9.357-2.554,1.4,0,2.119.711,1.985,2.715-.2,3.066,2.239,5.585,4.318,5.585,1.218,0,2.311-.863,2.675-3a8.517,8.517,0,0,0-.547-4.957,2.678,2.678,0,0,0,.579.065c1.218,0,2.312-.867,2.676-3a8.642,8.642,0,0,0-.659-5.221c1.333-.178,3.324-.6,6.972-2.984,7.687-4.991,4-8.326,11.69-11.314,3.471-1.37,5.37-2.255,6.688-2.255,1.592,0,2.339,1.292,3.989,4.575a36.113,36.113,0,0,1,2.631,5.889,6.381,6.381,0,0,0-1.279,6.08,19.285,19.285,0,0,1-1.352,1.722c-2.172,2.467-1.7,4.813-1.152,7.047-6.226,3.695-17.353,3.248-21.176,7.4-4,4.354-17.67,5.685-19.7,5.685-.872,0-2.277.386-3.742.386a4.831,4.831,0,0,1-4.906-3.4c-1.128-2.775-4.106-5.46-6.581-5.46-1.975,0-3.632,1.709-3.775,6.449-.017.559-.04,1.11-.069,1.656-1.177.477-2.116,1.8-2.481,4.341" transform="translate(-314.076 -1243.188)" fill="#7abeca"/>
        <path id="Path_709" data-name="Path 709" d="M475.709,1489.547c-.717-.065-1.44-.139-2.15-.217.366-2.537,1.3-3.864,2.481-4.341-.083,1.609-.208,3.135-.332,4.558m27.366-9.931c-2.078,0-4.52-2.52-4.318-5.586.134-2-.589-2.714-1.985-2.714-1.963,0-5.255,1.4-9.357,2.554a3.842,3.842,0,0,1-1.078.16c-6.139,0-7.775-16.188-5.248-16.492a4.309,4.309,0,0,0,1.858-.742c.712,4.458,2.724,9.345,6.1,9.345a3.875,3.875,0,0,0,1.079-.16c4.1-1.154,7.394-2.554,9.356-2.554,1.4,0,2.119.707,1.987,2.715a5.361,5.361,0,0,0,3.737,5.52,8.518,8.518,0,0,1,.547,4.957c-.364,2.134-1.457,3-2.675,3m32.912-7.346c-.546-2.233-1.02-4.579,1.152-7.047a19.267,19.267,0,0,0,1.352-1.722c.625,2.927,1.931,5.664-1.66,8.218-.269.2-.552.377-.843.551m-28.188-8.76c-.91-2.121-2.091-3.613-.676-5.854,2.349-3.686,2.67,0,10.357-5.018,7.686-4.991,4-8.33,11.69-11.318,3.471-1.366,5.368-2.251,6.686-2.251,1.592,0,2.339,1.288,3.989,4.575,2.99,6,4.643,8.352,0,13.69-.026.031-.051.056-.076.087a36.115,36.115,0,0,0-2.631-5.889c-1.65-3.283-2.4-4.575-3.989-4.575-1.318,0-3.217.885-6.688,2.255-7.687,2.988-4,6.323-11.69,11.314-3.649,2.381-5.639,2.806-6.972,2.984" transform="translate(-356.769 -1255.29)" fill="#99c3ce"/>
        <path id="Path_710" data-name="Path 710" d="M419.529,1513.989c-2.007-3.716-.315-5.265,1.587-6.9.049.156.1.312.144.477a5.682,5.682,0,0,1-1.731,6.422" transform="translate(-325.657 -1293.813)" fill="#99c3ce"/>
        <path id="Path_711" data-name="Path 711" d="M390.672,1481.614c-14.632-3.669-26.324-9.775-31.177-18.322a95.488,95.488,0,0,1,.941-20.347c3.28-4.787,8.775-8.751,15.732-11.9,4.081,2.264,6.176,3.062,5.214,11.388,0,7.684,6.673,6.006,8.995,14.172,1.164,4.059-.947,5.781-2.849,7.415s-3.595,3.183-1.587,6.9c.037.069.075.134.114.2,2.31,4.094,4.346,7.628,4.618,10.486" transform="translate(-292.068 -1250.748)" fill="#83a870"/>
        <path id="Path_712" data-name="Path 712" d="M494.5,1480.19c-5.372,0-10.738-.247-15.982-.746.124-1.422.249-2.949.332-4.558.029-.546.052-1.1.069-1.656.143-4.74,1.8-6.448,3.775-6.448,2.475,0,5.453,2.684,6.581,5.46a4.831,4.831,0,0,0,4.906,3.4c1.465,0,2.869-.386,3.742-.386,2.028,0,15.693-1.331,19.7-5.685,3.823-4.154,14.951-3.708,21.176-7.4.291-.173.574-.356.843-.551,3.591-2.554,2.285-5.291,1.66-8.218a6.381,6.381,0,0,1,1.279-6.08c.026-.031.051-.056.076-.087,4.643-5.338,2.99-7.689,0-13.69-1.65-3.287-2.4-4.575-3.989-4.575-1.318,0-3.215.885-6.686,2.251-7.687,2.988-4,6.327-11.69,11.318-7.687,5.018-8.008,1.332-10.357,5.018-1.415,2.242-.234,3.734.676,5.854a8.643,8.643,0,0,1,.659,5.221c-.364,2.129-1.458,3-2.676,3a2.67,2.67,0,0,1-.579-.065,5.361,5.361,0,0,1-3.737-5.52c.132-2.008-.591-2.715-1.987-2.715-1.961,0-5.253,1.4-9.356,2.554a3.867,3.867,0,0,1-1.079.161c-3.373,0-5.385-4.887-6.1-9.345-.583-3.651-.29-7.012.849-7.151,1.7-.2,3.66-1.769,5.83-5.559,1,.46,1.918.872,2.729,1.236l3.136,1.462a2.217,2.217,0,0,0,1.894,0l3.047-1.422c6.288-2.8,18.9-8.738,30.105-14.029,18.234,5.048,31.3,14.076,31.076,27.082.337,19.645-29.666,30.208-61.963,31.7a3.66,3.66,0,0,0-2.021-.841,1.924,1.924,0,0,0-1.56.967c-1.457.039-2.919.056-4.377.056" transform="translate(-359.577 -1245.187)" fill="#83a870"/>
        <path id="Path_713" data-name="Path 713" d="M356.555,1478.827a18.148,18.148,0,0,1-2.426-9.423,18.422,18.422,0,0,1,3.367-10.924,95.486,95.486,0,0,0-.941,20.347" transform="translate(-289.129 -1266.283)" fill="#709873"/>
        <path id="Path_714" data-name="Path 714" d="M427.537,1103.545a.752.752,0,0,1,1.426.334l-.381,4.97c13.043,3.885,39.681,4.584,54.137.152l-.864-6.552a.748.748,0,0,1,1.232-.616l6.383,5.2a97.032,97.032,0,0,0,9.054-3.508c-.337-.837-.62-2.355.85-1.813l1.284.828a67.379,67.379,0,0,0,11.526-6.748s-16.674-1.448-18.94-10.408c3.28-35.56-1.686-66.349-43.923-64.376,4.436-7.65-5-7.546-4.636-.217-6.125-6.127-9.083-1.435-2.358,2.389-43.245,25.885,1.37,63.4-32.959,77.464,0,0,4.928,4.037,16,7.329.778-1.526,1.535-3.083,2.17-4.423" transform="translate(-320.414 -1015.277)" fill="#3d2e56"/>
        <path id="Path_715" data-name="Path 715" d="M516.581,1201.361a73.148,73.148,0,0,0-.6,13.725c1.816,6.049-7.925,10.39-10.967,11.63-16.577-7.042-8.87-10.763-11.556-25.356,2.559-.247,9.041-.867,11.512-1.1.108-.017,4.369.416,4.477.416h.005l7.13.685" transform="translate(-368.038 -1120.041)" fill="#ffc3b3"/>
        <path id="Path_716" data-name="Path 716" d="M516.581,1201.361c-.188,1.448-.363,3.244-.481,4.775-5,7.927-17.338,8.023-22.14.282-.12-1.613-.317-3.643-.5-5.056,2.559-.247,9.041-.867,11.512-1.1.108-.017,4.369.416,4.477.416h.005l7.13.685" transform="translate(-368.038 -1120.041)" fill="#f27584"/>
        <path id="Path_717" data-name="Path 717" d="M436.489,1136.664c-12.893-6.947-12.408,15.308-2.638,18.14,11.926,2.515,6.92-13.977,2.638-18.14" transform="translate(-330.204 -1083.267)" fill="#ffc3b3"/>
        <path id="Path_718" data-name="Path 718" d="M438.759,1141.309a8.57,8.57,0,0,0-1.943-3.018c-5.653-3.721-11.751.629-9.512,9.848-3.5-8.764,2.2-15.976,8.954-11.509a10.022,10.022,0,0,1,2.5,4.679" transform="translate(-329.971 -1083.233)" fill="#ffd7b6"/>
        <path id="Path_719" data-name="Path 719" d="M440.412,1158.934a2.035,2.035,0,0,1-.591-.121c-2.2-.746-5.118-4.6-5.118-4.6-1.032-2.88-.029-3.916,1.606-3.916,3.539,0,10.037,4.853,5.216,6.31-1.7.082,0,2.324-1.113,2.324" transform="translate(-334.526 -1091.747)" fill="#faa8a3"/>
        <path id="Path_720" data-name="Path 720" d="M434.59,1155.109c-5.214-4.193,1.807-8.01,6.605-2.572.269.308-.27.629-.5.351-3.576-4.185-10.1-2.65-5.931,1.7a.278.278,0,0,1-.176.516" transform="translate(-333.656 -1091.49)" fill="#f27584"/>
        <path id="Path_721" data-name="Path 721" d="M441,1151.144c-3.19-.5-2.59,3.569-.351,4.475,4.1,1.24,3.069-3.43.351-4.475" transform="translate(-337.078 -1092.2)" fill="#f27584"/>
        <path id="Path_722" data-name="Path 722" d="M588.042,1136.664c12.893-6.947,12.408,15.308,2.639,18.14-11.925,2.515-6.922-13.977-2.639-18.14" transform="translate(-418.893 -1083.267)" fill="#ffc3b3"/>
        <path id="Path_723" data-name="Path 723" d="M588.527,1141.309a8.553,8.553,0,0,1,1.943-3.018c5.651-3.721,11.749.629,9.51,9.848,3.5-8.764-2.2-15.976-8.955-11.509a10.01,10.01,0,0,0-2.5,4.679" transform="translate(-421.881 -1083.233)" fill="#ffd7b6"/>
        <path id="Path_724" data-name="Path 724" d="M591.523,1158.934c-1.111,0,.591-2.242-1.113-2.324-4.821-1.457,1.677-6.31,5.218-6.31,1.633,0,2.636,1.036,1.606,3.916,0,0-2.914,3.851-5.119,4.6a2.035,2.035,0,0,1-.591.121" transform="translate(-421.975 -1091.747)" fill="#faa8a3"/>
        <path id="Path_725" data-name="Path 725" d="M597.915,1155.109c5.214-4.193-1.807-8.01-6.6-2.572-.269.308.269.629.5.351,3.576-4.185,10.1-2.65,5.93,1.7a.278.278,0,0,0,.177.516" transform="translate(-423.415 -1091.49)" fill="#f27584"/>
        <path id="Path_726" data-name="Path 726" d="M596.622,1151.144c3.19-.5,2.59,3.569.351,4.475-4.1,1.24-3.068-3.43-.351-4.475" transform="translate(-425.112 -1092.2)" fill="#f27584"/>
        <path id="Path_727" data-name="Path 727" d="M510.414,1101.6c3.127.585,1.963,3.929,1.626,6.253,0,0-2.8,19.579-3.91,20.967s-13.648,14.783-25.949,14.783-24.827-13.391-25.948-14.783-3.912-20.967-3.912-20.967c-.522-2.012-.593-4.688,1.919-5.191,7.819-1.145,21.554-11.9,23.255-18.413,4.1,6.7,17.385,15.551,32.919,17.35" transform="translate(-344.575 -1054.34)" fill="#ffc3b3"/>
        <path id="Path_728" data-name="Path 728" d="M533.438,1201.419a8.54,8.54,0,0,0,1.019-.659c.047.048.1.1.137.152q-.571.273-1.157.507" transform="translate(-390.682 -1120.325)" fill="#ffc3b3"/>
        <path id="Path_729" data-name="Path 729" d="M495.585,1141.6a9.094,9.094,0,0,1,0-18.187C507.539,1123.607,507.541,1141.4,495.585,1141.6Zm-25.592,0c-11.9-.052-11.9-18.14,0-18.187C481.887,1123.46,481.886,1141.548,469.993,1141.6Zm42.074-10.564-6.354-.932c-2.133-10.1-17.151-10.651-20.048-.776-.98-1.015-4.66-1.127-5.785-.087-2.961-9.8-17.873-9.189-20.011.841l-6.51.954a.542.542,0,0,0,.158,1.071l6.145-.9c-1.367,15.906,23.023,15.035,20.546-.729.33-1.262,4.845-1.049,5.151.052-2.4,15.733,21.9,16.548,20.557.7l5.993.88a.542.542,0,0,0,.157-1.071" transform="translate(-345.075 -1075.839)" fill="#fff"/>
        <path id="Path_730" data-name="Path 730" d="M492.849,1146.691c-.752.382-1.249-1.028-4.4-.5,2.509.039,2.448,4.189-.073,4.146-2.087.065-2.692-3.148-.827-3.959-3.22.69-3.047,4.241-3.7,2.736a4.689,4.689,0,0,1,3.829-3.387c3.525-.607,5.275.213,5.165.967" transform="translate(-362.6 -1089.035)" fill="#3d2e56"/>
        <path id="Path_731" data-name="Path 731" d="M535.166,1146.691c.752.382,1.248-1.028,4.4-.5-2.509.039-2.448,4.189.071,4.146,2.089.065,2.693-3.148.828-3.959,3.22.69,3.047,4.241,3.7,2.736a4.689,4.689,0,0,0-3.828-3.387c-3.525-.607-5.275.213-5.165.967" transform="translate(-391.657 -1089.035)" fill="#3d2e56"/>
        <path id="Path_732" data-name="Path 732" d="M515.366,1173.486a4.2,4.2,0,0,1-2.417-.75c-.654-.23.019-3.916.677-2.7-.349,1-.55,2.212-.269,2.428.751.941,4.169.6,4.494-.23a20.193,20.193,0,0,0-.415-2.212c.667-1.067.87,1.609.974,2.212-.005.672-2.006,1.253-3.044,1.249" transform="translate(-378.926 -1102.777)" fill="#f27584"/>
        <path id="Path_733" data-name="Path 733" d="M512.865,1189.343c-5.941,5-20.024,1.592-17.939-7.355.974-1.639,3.019-.585,5.6.468,2.544,1.041,5.614,2.077,8.7.546,1.826-.594,5.178-3.33,6.557-1.006,1.164,2.168-.637,5.585-2.922,7.346" transform="translate(-368.752 -1109.177)" fill="#ce307f"/>
        <path id="Path_734" data-name="Path 734" d="M516.374,1186.644a10.475,10.475,0,0,1-2.536.915c-1.264-1.722-1.518-2.637-1.419.26-2.851.568-8.347-.321-9.493-1.119-1.6-.642-.4-3.3-.31-4.484a12.861,12.861,0,0,0,13.919-.026c.115,1.167,1.341,3.738-.161,4.454" transform="translate(-372.933 -1109.808)" fill="#fff"/>
        <path id="Path_735" data-name="Path 735" d="M511.149,1203.734a11.924,11.924,0,0,1-5.782-1.47s.005,0,.007,0a14.494,14.494,0,0,0,6.269,1.392,13.877,13.877,0,0,0,1.647-.1,13.183,13.183,0,0,1-2.141.178" transform="translate(-374.784 -1121.174)" fill="#ffc3b3"/>
        <path id="Path_736" data-name="Path 736" d="M511.652,1201.188a14.494,14.494,0,0,1-6.269-1.392c1.069-1.258,3.549-1.886,6.025-1.886s4.925.62,6,1.865a15.135,15.135,0,0,1-4.108,1.318,13.848,13.848,0,0,1-1.647.1" transform="translate(-374.793 -1118.71)" fill="#ea859d"/>
        <path id="Path_737" data-name="Path 737" d="M477.826,1131.707s1.664-3.244,3.991-4.406,3.74-1.995,4.655-.664.717,1.227-1.43,2.194-8.212,4.471-7.216,2.875" transform="translate(-359.124 -1077.959)" fill="#3d2e56"/>
        <path id="Path_738" data-name="Path 738" d="M553.306,1131.707s-1.662-3.244-3.99-4.406-3.742-1.995-4.655-.664-.716,1.227,1.428,2.194,8.214,4.471,7.216,2.875" transform="translate(-396.746 -1077.959)" fill="#3d2e56"/>
        <path id="Path_739" data-name="Path 739" d="M466.141,1252.043s-48.417-10.317-37.846-17.26c0,0,3.283-3,10.784-6.292s16.079-5.191,17.145-4.657c1.049.525,1.884,5.815,9.918,5.815s11.624-5.169,12.681-5.7,6.881,1.245,14.383,4.545,10.784,6.292,10.784,6.292c10.57,6.943-37.848,17.26-37.848,17.26" transform="translate(-330.279 -1133.342)" fill="#b0ce67"/>
        <path id="Path_740" data-name="Path 740" d="M502.8,1236.272l-69.662,19.874-.009-.017v.017l-69.664-19.874c1.53-1.175,5.456-7.35,7.756-6.956,8.363.2,51.378,1.709,61.908,12.238v.009c11.888-10.243,54.952-13.764,64.268-11.24l5.4,5.95" transform="translate(-294.42 -1136.487)" fill="#ffe7b3"/>
        <path id="Path_741" data-name="Path 741" d="M438.384,1247.259c-17.885-11.96-64.9-12.342-65.65-13.517.8-1.2,47.743,1.427,65.885,12.741a.427.427,0,0,1-.235.776" transform="translate(-299.667 -1138.853)" fill="#ffb469"/>
        <path id="Path_742" data-name="Path 742" d="M454.163,1252.384c-15.493-8.387-47.241-10.789-47.78-12.012.755-1.119,32.226,3.478,47.98,11.214a.427.427,0,0,1-.2.8" transform="translate(-318.724 -1142.665)" fill="#ffb469"/>
        <path id="Path_743" data-name="Path 743" d="M525.219,1247.365c14.151-12.6,65.892-14.371,65.649-13.521-.745,1.18-47.768,1.561-65.649,13.521" transform="translate(-386.027 -1138.959)" fill="#ffb469"/>
        <path id="Path_744" data-name="Path 744" d="M532.777,1252.107c11.1-9.233,48.07-11.956,47.313-12.389a.433.433,0,0,1,.469.377c-.535,1.223-32.292,3.625-47.782,12.012" transform="translate(-390.307 -1142.387)" fill="#ffb469"/>
        <path id="Path_745" data-name="Path 745" d="M354.126,1239.689c-.7-4.965,71.794,14.323,73.716,13.821,3.21.312,74.509-18.912,75.62-13.821l-75.62,21.856-73.716-21.856" transform="translate(-289.126 -1141.885)" fill="#6e3777"/>
        <path id="Path_746" data-name="Path 746" d="M502.529,1243.628l-20.272,63.847a2.268,2.268,0,0,1-1.193,1.353L426.2,1334.436a2.211,2.211,0,0,1-1.894,0l-54.864-25.607a2.267,2.267,0,0,1-1.193-1.353c-4.616-14.163-15.561-49.3-20.272-63.847a2.25,2.25,0,0,1,2.605-2.884l64.733,13.652c.222,0,2.438.507,4.768,1.019,2.687.585,5.524,1.175,5.634.976l74.2-15.646a2.25,2.25,0,0,1,2.605,2.884" transform="translate(-285.586 -1142.941)" fill="#ef4870"/>
        <path id="Path_747" data-name="Path 747" d="M442.373,1274.337v78.205c-1.191.13-54.725-25.555-55.813-25.82a2.269,2.269,0,0,1-1.191-1.353l-7.272-22.923c66.222,28.877,53.2,46.739,54.339-30.156l9.471,1.995a2.07,2.07,0,0,0,.466.052" transform="translate(-302.705 -1160.835)" fill="#b72a78"/>
        <path id="Path_748" data-name="Path 748" d="M422.685,1303.238a2.637,2.637,0,0,1-.932-.173l-30.969-11.722c.33-2.446.205-2-1.722-3.014a46.1,46.1,0,0,0-6.073-1.847l-3.949-12.832a2.628,2.628,0,0,1,2.493-3.4,2.7,2.7,0,0,1,.551.061l41.134,8.591a2.627,2.627,0,0,1,2.087,2.567v19.141a2.627,2.627,0,0,1-2.621,2.628" transform="translate(-303.171 -1159.68)" fill="#f68470"/>
        <path id="Path_749" data-name="Path 749" d="M555.976,1324.424c-.111,0-.225,0-.337-.013.9-1.171-2.085-47.333,1.7-47.333a.532.532,0,0,1,.208.048l46.508-10.009a2.366,2.366,0,0,1,.518-.056,2.424,2.424,0,0,1,2.319,3.057l-3.957,14.41a51.3,51.3,0,0,0-6.627,1.995c-1.97,1.032-2.056.546-1.7,3.174s5.977,3.092,5.977,3.092c-.242-.009-.473-.013-.7-.013-7.274,0-4.507,5.312-1.38,7.875l-.976,3.552-40.083,19.874a3.253,3.253,0,0,1-1.472.347" transform="translate(-403.099 -1157.873)" fill="#f68470"/>
        <path id="Path_750" data-name="Path 750" d="M597.776,1352.71c-.725,1.349-3.315,15.577-5.27,15.685l-33.285,13.773c-4.941,1.557-2.966-6.861-3.337-9.25a3.29,3.29,0,0,0,1.809-.334l40.083-19.874" transform="translate(-403.344 -1206.381)" fill="#ef4870"/>
        <path id="Path_751" data-name="Path 751" d="M590.592,1302.456l-7.268,22.919a2.289,2.289,0,0,1-1.2,1.353c-1.208.321-54.481,25.893-55.808,25.82v-78.209a2.061,2.061,0,0,0,.464-.048l9.469-1.99v51.809a3.289,3.289,0,0,0,2.937,3.27c.381,2.39-1.616,10.8,3.337,9.25l33.285-13.773c1.965-.065,4.542-14.423,5.27-15.685l9.51-4.714" transform="translate(-386.65 -1160.841)" fill="#b72a78"/>
        <path id="Path_752" data-name="Path 752" d="M522.6,1269.011v80.343a1.694,1.694,0,0,1-1.69,1.691h-6.554a1.7,1.7,0,0,1-1.692-1.691v-80.343a1.7,1.7,0,0,1,1.692-1.691h6.554a1.694,1.694,0,0,1,1.69,1.691" transform="translate(-378.916 -1158.02)" fill="#ef4870"/>
        <path id="Path_753" data-name="Path 753" d="M522.6,1299.136v3.391a57.62,57.62,0,0,1-9.937-.178v-3.4a54.961,54.961,0,0,0,9.937.187" transform="translate(-378.916 -1175.934)" fill="#ffb469"/>
        <path id="Path_754" data-name="Path 754" d="M522.6,1315.286v3.391a57.621,57.621,0,0,1-9.937-.178v-3.4a54.961,54.961,0,0,0,9.937.187" transform="translate(-378.916 -1185.081)" fill="#ffb469"/>
        <path id="Path_755" data-name="Path 755" d="M522.6,1383.736v3.391a57.62,57.62,0,0,1-9.937-.178v-3.4a54.95,54.95,0,0,0,9.937.186" transform="translate(-378.916 -1223.847)" fill="#ffb469"/>
        <path id="Path_756" data-name="Path 756" d="M522.6,1399.886v3.391a57.608,57.608,0,0,1-9.937-.178v-3.4a54.972,54.972,0,0,0,9.937.187" transform="translate(-378.916 -1232.993)" fill="#ffb469"/>
        <path id="Path_757" data-name="Path 757" d="M452.962,1457.408l-16.21,6.2s-8.882,6.058-4.511,11.136,14.236-.707,21.847-1.127,1.615-17.26-1.126-16.21" transform="translate(-332.684 -1265.65)" fill="#ffc3b3"/>
        <path id="Path_758" data-name="Path 758" d="M569.544,1389.948v.009c-7.853,24.011-74.66,35.347-82.959,38.066-7.189,1.9-10.572-3.382-13.32-8.881s-3.383-8.881-1.268-12.684c10.446-9.571,75.732-43.912,84.151-38.482,0,0,18.9,6.479,13.4,21.973" transform="translate(-355.172 -1214.698)" fill="#54496d"/>
        <path id="Path_759" data-name="Path 759" d="M417.1,1479.811c-1.093,7.758-13.725,16.357-25.938,16.635-6.732,0-10.758-4.753-12.095-9.792-4.559-13.3,15.539-16.8,24.358-20.655,6.064-2.537,10.148-2.112,8.178.7s-5.92,5.364-3.527,9.727c2,4.2,8.587,1.535,9.024,3.383" transform="translate(-302.876 -1269.591)" fill="#ef4870"/>
        <path id="Path_760" data-name="Path 760" d="M569.636,1419.42c-7.848,24.007-74.663,35.351-82.959,38.066-7.189,1.9-10.572-3.382-13.32-8.881-8.161-15.8,4.968-16.249,25.279-29.129,19.777,14.389,49.9,20.928,71-.056" transform="translate(-355.264 -1244.162)" fill="#3d2e56"/>
        <path id="Path_761" data-name="Path 761" d="M552.983,1457.408l16.21,6.2s8.88,6.058,4.511,11.136-14.236-.707-21.849-1.127-1.613-17.26,1.128-16.21" transform="translate(-399.007 -1265.65)" fill="#ffc3b3"/>
        <path id="Path_762" data-name="Path 762" d="M437.3,1419.313c-2.687,5.36-6.058,10.807-13.321,8.881-7.187-1.9-68.716-14.167-80.557-33.2-9.547-13.829,3.193-24.5,11-26.852,12.474-5.074,82.035,34.675,84.151,38.482s1.479,7.186-1.268,12.684" transform="translate(-281.134 -1214.87)" fill="#54496d"/>
        <path id="Path_763" data-name="Path 763" d="M611.759,1484.022c-1.972,23.188-37.077,8.591-38.482-4.211.39-1.826,7.088.793,9.024-3.383,2.393-4.362-1.546-6.9-3.527-9.727s2.116-3.24,8.179-.7c7.8,3.595,26.554,6.735,24.806,18.023" transform="translate(-413.244 -1269.591)" fill="#ef4870"/>
        <path id="Path_764" data-name="Path 764" d="M434.1,1435.441a8.8,8.8,0,0,1-9.7,3.044c-8.031-2.975-101.7-17.888-80.531-52.615-.922,5.75-.017,11.578,5.118,15.681,9.691,7.754,56.682,24.3,85.115,33.89" transform="translate(-281.56 -1225.161)" fill="#3d2e56"/>
        <path id="Path_765" data-name="Path 765" d="M417.963,1499.122c-.771,11.561-33.4,26.661-38.033,6.843,9.086,16.132,34-6.336,36.594-7.546.944.022,1.543.143,1.438.7" transform="translate(-303.743 -1288.903)" fill="#b72a78"/>
        <path id="Path_766" data-name="Path 766" d="M611.743,1503.333c-2.277,20.2-26.68,11.245-34.252,3.122-4.23-3.526-4.23-7.333-4.23-7.333-.11-.594.551-.694,1.582-.7,10.1,9.376,29.3,19.285,36.9,4.913" transform="translate(-413.229 -1288.903)" fill="#b72a78"/>
        <path id="Path_767" data-name="Path 767" d="M665.525,1286.11c2.946,2.42,6.432,10.408,1.423,14.072,1.3,2.181,2.676,9.432-2.072,10.642,4.84,13.478-20.673,8.773-14.446,1.262-3.5-2.22-7.691-8.881,1.193-8.508,0,0-5.621-.46-5.977-3.092s-.269-2.142,1.7-3.174,16.115-4.319,16.115-4.319l2.063-6.882" transform="translate(-454.137 -1168.662)" fill="#ffc3b3"/>
        <path id="Path_768" data-name="Path 768" d="M655.892,1321.529c6.315.377,16.867-2.563,17.09-3.461a.306.306,0,0,0-.389-.191c-.107.035-10.682,3.643-16.636,3.044a.305.305,0,0,0-.065.607" transform="translate(-459.883 -1186.644)" fill="#f27584"/>
        <path id="Path_769" data-name="Path 769" d="M657.023,1344.348c5.192.473,15.881-1.036,13.826-1.938-.088.022-8.858,2.069-14.331,1.258-.852.217-.019.776.5.681" transform="translate(-460.18 -1200.547)" fill="#f27584"/>
        <g id="Group_42" data-name="Group 42" transform="translate(192.003 128.242)" clip-path="url(#clip-path)">
          <g id="Group_41" data-name="Group 41" transform="translate(0.228 0.143)" clip-path="url(#clip-path-2)">
            <path id="Path_770" data-name="Path 770" d="M646.543,1316.551h6.374v-5.221h-6.374Zm0,0" transform="translate(-646.969 -1311.33)" fill="#ffe1d9"/>
          </g>
        </g>
        <path id="Path_773" data-name="Path 773" d="M651.876,1334.853c-1.618,0-2.82-5.338-.925-5.833h.015c5.344,0,4.882,5.533.961,5.833h-.051" transform="translate(-456.686 -1192.964)" fill="#ffe1d9"/>
        <path id="Path_774" data-name="Path 774" d="M659.153,1350.973a3.854,3.854,0,0,1-2.275-.625c-.888-.763.329-2.992.329-2.992a1.1,1.1,0,0,1,.632-.187c1.428,0,3.31,2.294,3.027,3.127-.159.468-.9.677-1.712.677" transform="translate(-460.407 -1203.243)" fill="#ffe1d9"/>
        <path id="Path_775" data-name="Path 775" d="M355.226,1286.11c-2.946,2.42-6.432,10.408-1.423,14.072-1.3,2.181-2.676,9.432,2.072,10.642-4.84,13.478,20.673,8.773,14.446,1.262,3.49-2.212,7.7-8.881-1.193-8.508,0,0,5.621-.46,5.977-3.092s.269-2.142-1.7-3.174-16.115-4.319-16.115-4.319l-2.063-6.882" transform="translate(-287.514 -1168.662)" fill="#ffc3b3"/>
        <path id="Path_776" data-name="Path 776" d="M373.528,1321.529c-6.315.377-16.867-2.563-17.09-3.461a.306.306,0,0,1,.389-.191c.107.035,10.682,3.643,16.636,3.044a.305.305,0,0,1,.065.607" transform="translate(-290.438 -1186.644)" fill="#f27584"/>
        <path id="Path_777" data-name="Path 777" d="M375.531,1344.348c-5.192.473-15.881-1.036-13.826-1.938.088.022,8.858,2.069,14.331,1.258.852.217.019.776-.5.681" transform="translate(-293.275 -1200.547)" fill="#f27584"/>
        <path id="Path_778" data-name="Path 778" d="M394,1316.551h-.029c-2-.013-3.107-.247-3.091-2.225.01-1.687.8-3,1.924-3a1.674,1.674,0,0,1,.608.121s3.828,1.2,3.361,2.559-.794,2.541-2.773,2.541" transform="translate(-309.944 -1182.945)" fill="#ffe1d9"/>
        <path id="Path_779" data-name="Path 779" d="M393.758,1334.853h-.051c-3.922-.3-4.384-5.833.961-5.833h.015c1.9.494.695,5.833-.925,5.833" transform="translate(-309.848 -1192.964)" fill="#ffe1d9"/>
        <path id="Path_780" data-name="Path 780" d="M387.265,1350.973c-.817,0-1.553-.208-1.712-.677-.283-.833,1.6-3.127,3.027-3.127a1.1,1.1,0,0,1,.632.187s1.216,2.229.329,2.992a3.854,3.854,0,0,1-2.275.625" transform="translate(-306.911 -1203.243)" fill="#ffe1d9"/>
        <path id="Path_781" data-name="Path 781" d="M211.583,1320.226s-3.32-8.8-.586-8.586,8.007,2.3,8.007,3.768S213.536,1323.578,211.583,1320.226Zm2.709-13.3c-3.793-1.379-9.31-2.3-10,2.186s6.207,28.157,8.621,29.063,6.781-1.6,6.781-1.6c.918-1.383-.23-1.956-1.265-6.782s.115-7.355,3.793-8.621,10.345,4.371,12.3,4.371,3.449-3.794,3.562-5.863-20-11.379-23.79-12.758" transform="translate(-204.244 -1179.807)" fill="#9cd1f2"/>
        <path id="Path_782" data-name="Path 782" d="M237.886,1239.577c-1.38-.23-2.229-5.178-1.494-5.286,0,0,6.092-1.149,6.894,1.609S239.265,1239.807,237.886,1239.577Zm-2.98-18.231c7.787-1.826,10.232,4.727,1.494,5.286C235.022,1226.4,234.173,1221.455,234.907,1221.346Zm16.206,16.548c-.8-6.665-7.355-7.012-7.7-7.35s5.861-4.259,3.334-10.117-13.333-2.875-15.351-.919,0,24.593,0,24.593c1.43,4.714,20.523.46,19.718-6.206" transform="translate(-219.113 -1129.514)" fill="#b0ce67"/>
        <path id="Path_783" data-name="Path 783" d="M299.287,1289.633c1.752,1.223,4.445-3.192,3.815-3.69-.893-.572-8.019-6.106-14.455-2.134s-6.437,12.364-2.644,17.307,10.23,4.709,10.689,3.677,2.068-3.335,1.15-3.907-7.931-1.461-7.472-6.995c.42-5.039,5.128-6.253,8.917-4.259" transform="translate(-249.087 -1166.552)" fill="#ffb469"/>
        <path id="Path_784" data-name="Path 784" d="M374.825,1144.4l-3.718,3.187a.457.457,0,0,1-.647-.052l-13.1-15.286c-.781-.573,3.627-3.456,3.769-3.833a.462.462,0,0,1,.649.048l13.094,15.291a.458.458,0,0,1-.051.646" transform="translate(-290.91 -1079.29)" fill="#c3d9ea"/>
        <path id="Path_785" data-name="Path 785" d="M388.139,1158.328c-.442.065-6.058,5.958-6.5,4.857.059-.351-9.571-10.186-8.231-10.447.442-.065,6.058-5.958,6.5-4.857-.059.351,9.571,10.187,8.231,10.447" transform="translate(-299.974 -1090.299)" fill="#ef4870"/>
        <path id="Path_786" data-name="Path 786" d="M329.24,1097.524c-10.736,8.881-24.217-6.86-13.791-16.1C326.185,1072.541,339.666,1088.283,329.24,1097.524ZM312.1,1077.511c-15.495,13.738,4.543,37.125,20.5,23.925,15.494-13.738-4.545-37.125-20.5-23.925" transform="translate(-262.166 -1048.312)" fill="#578191"/>
        <path id="Path_787" data-name="Path 787" d="M231.014,1477.423c-2.766.1-7.56,1.817-7.745-3.413-.181-5.126,7.142-32.151,10.278-36.466a85.262,85.262,0,0,1,8.173-8.738c6.413-5.893,7.467-3.434,9.178,2.793,1.327,4.827,1.992,10.7.9,13.01-2.4,4.84-17.966,32.528-20.788,32.815" transform="translate(-215.017 -1247.576)" fill="#ffe7b3"/>
        <path id="Path_788" data-name="Path 788" d="M275,1431.6c-2.9.078-7.616-1.531-9.178-2.793,6.422-5.9,7.464-3.426,9.178,2.793" transform="translate(-239.117 -1247.575)" fill="#54496d"/>
        <path id="Path_789" data-name="Path 789" d="M234.212,1499.088c-1.633.122-3.883.646-5.61.208l15.232-35.516c.816,1.986,3.672,2.4,5.393,1.561,1.931-.373,2.663,2.3,5.419,1.336-2.3,4.571-17.305,31.24-20.434,32.411" transform="translate(-218.039 -1269.285)" fill="#ffb469"/>
        <path id="Path_790" data-name="Path 790" d="M225.9,1493.384c-6.994-2.025,5.825-36.041,7.967-40.044,1.057,1.561,3.389,4.35,6.023,3.92a1.271,1.271,0,0,1,1.242.607L225.9,1493.384" transform="translate(-215.339 -1263.372)" fill="#ffd671"/>
        <path id="Path_791" data-name="Path 791" d="M241.539,1501.421l16.376-33.521a4.194,4.194,0,0,0,4.059,1.11c-2.3,4.571-17.305,31.24-20.434,32.411" transform="translate(-225.366 -1271.618)" fill="#f99067"/>
        <path id="Path_792" data-name="Path 792" d="M217.837,1518.164c.212.091,12.784,4.952,12.813,6.093s-4.413,9.618-6.581,11.266-11.288-2.463-11.522-4.042,4.218-13.777,5.29-13.318" transform="translate(-208.941 -1300.077)" fill="#ef4870"/>
        <path id="Path_793" data-name="Path 793" d="M693.084,1094.369a12.606,12.606,0,0,1,2.751-7.732c2.988-3.929,4.9-5.325,5.978-4.818s2.033.759,1.794,1.774-7.412,4.562-8.729,9.506-1.843,2.389-1.794,1.271" transform="translate(-481.094 -1052.906)" fill="#b0ce67"/>
        <path id="Path_794" data-name="Path 794" d="M688.039,1114.464c-3.242,13.907-12.251,17.446-21.056,10.009-2.82-1.743-6.64,1.219-11.2-1.7-11.036-9.679-2.461-38.361,15.307-24.215,9.047-2.472,20.991,1.813,16.951,15.911" transform="translate(-457.183 -1060.26)" fill="#ef4870"/>
        <path id="Path_795" data-name="Path 795" d="M688.2,1115.928c-3.242,13.907-12.251,17.442-21.056,10.009a2.617,2.617,0,0,0-2.277-.612c-1.98.386-5.739.763-8.925-1.093-5.275-2.914-8.09-21.973,1.76-26.943a15.764,15.764,0,0,0-2.716,9.319c.239,11.405,15.812,5.963,19.63,9.887a9.725,9.725,0,0,0,13.584-.568" transform="translate(-457.342 -1061.725)" fill="#b72a78"/>
        <path id="Path_796" data-name="Path 796" d="M761.1,1297.906l12.663,15.586,23.216-10.555-15.171-13.747-20.707,8.716" transform="translate(-519.62 -1170.406)" fill="#ffe7b3"/>
        <path id="Path_797" data-name="Path 797" d="M810.518,1320.89l-5.976,21.028L785,1349.554l2.3-18.109,23.216-10.555" transform="translate(-533.155 -1188.36)" fill="#fcd5a2"/>
        <path id="Path_798" data-name="Path 798" d="M759.178,1309.29,757.7,1328.15l11.839,14.835,2.3-18.109-12.663-15.585" transform="translate(-517.693 -1181.79)" fill="#ffb469"/>
        <path id="Path_799" data-name="Path 799" d="M809.172,1352.918a.888.888,0,0,1-.91-1l1.428-8.595-3.159,1.73c-.984.572-1.985-.919-.925-1.5,1.106-.36,4.11-2.979,5.331-1.952,1.682.451-1,9.527-.857,10.585a.9.9,0,0,1-.908.733" transform="translate(-544.566 -1199.954)" fill="#efa35e"/>
        <path id="Path_800" data-name="Path 800" d="M769.362,1345.506c-.716.212-2.57-3.508-2.966-3.86-1.558-3.647,8.51-2.073,1.536-7.294a.8.8,0,0,1,.857-1.357c3.435,2.038,5.066,6.153-.886,8.027.234.789,3.713,4.2,1.458,4.484" transform="translate(-522.522 -1195.139)" fill="#ef4870"/>
        <path id="Path_801" data-name="Path 801" d="M791.761,1312.882a.863.863,0,0,1-.307-1.683c1.56-.676,5.07-1.865,3.813-3.842-1.423-2.177-3.339.88-5.175-.329-1.4-.915.445-3.365.7-4.436l-4.757,1.947c-1.055.464-1.855-1.132-.733-1.587l5.373-2.2c3.557-.573,1.669,2.944.961,4.592,6.422-2.3,8.658,5.468.125,7.541" transform="translate(-533.016 -1176.917)" fill="#ffb469"/>
        <path id="Path_802" data-name="Path 802" d="M755.533,1217.666l-9.813,12.082-18-8.183,11.759-10.655,16.05,6.756" transform="translate(-500.714 -1126.073)" fill="#9cd1f2"/>
        <path id="Path_803" data-name="Path 803" d="M727.723,1235.48l4.633,16.3L747.5,1257.7l-1.78-14.037-18-8.183" transform="translate(-500.714 -1139.988)" fill="#6fa6d8"/>
        <path id="Path_804" data-name="Path 804" d="M779.036,1226.49l1.143,14.618-9.176,11.5-1.78-14.037,9.813-12.082" transform="translate(-524.217 -1134.897)" fill="#83bbe5"/>
        <path id="Path_805" data-name="Path 805" d="M780.349,1255.322a.633.633,0,0,1-.637-.512l-1.067-6.253-1.76,1.943a.616.616,0,0,1-.483.23.625.625,0,0,1-.51-1.041c.625-.473,1.9-2.658,2.949-2.658a.734.734,0,0,1,.252.048h.015c1.264,0,1.559,6.778,1.918,7.481a.657.657,0,0,1-.451.72.6.6,0,0,1-.227.044" transform="translate(-527.895 -1146.529)" fill="#6381c0"/>
        <path id="Path_806" data-name="Path 806" d="M748.914,1261.021a.613.613,0,0,1-.606-.043c-6.464-3.847-2.555-2.32-2.028-6.648-.5-1.474-3.418-.958-3.542-2.281.052-1.743,8.106.885,3.337,6,.464.551,4.268,1.882,2.839,2.975" transform="translate(-509.218 -1149.067)" fill="#4f5eaa"/>
        <path id="Path_807" data-name="Path 807" d="M756.241,1230.136a.669.669,0,0,1-.817-1.045c.778-.811,1.955-2.437,1.8-3.365-.38-.893-1.628-1.509-2.948.434a1.188,1.188,0,0,1-2.19-.412l-.222-2.324-2.563,3.049c-.556.7-1.679-.108-1.074-.828l2.9-3.443c2.185-1.691,2.228,1.431,2.312,2.806,3.789-3.981,7.784.846,2.8,5.13" transform="translate(-512.229 -1132.19)" fill="#6fa6d8"/>
        <path id="Path_808" data-name="Path 808" d="M824.47,1231.589l3.894,2.728c1.711,1.266,7.552-4.167,7.4.117-.117.924-2.027,4.957-1.162,5.755.635,1.2,5.485,5.226,1.946,5.867l-4.755.082c-2.127-.017-3.659,7.814-6.058,4.259l-1.548-4.5c-.639-2.03-8.559-1.067-5.918-4.449.637-.676,4.555-2.819,4.323-3.972.192-1.34-1.365-7.45,1.876-5.889" transform="translate(-551.691 -1137.641)" fill="#ffd671"/>
        <path id="Path_809" data-name="Path 809" d="M787.734,1458.625c-17.8,37.529-1.935,20-33.142,24.736a1.27,1.27,0,0,1-1.411-.538c-1.194-1.856-4.271-6.336-7.232-8.1-2.781-1.661-7.613-3.027-9.969-3.63a1.27,1.27,0,0,1-.869-1.678c.563-.356,9.378-27.953,10.929-26.5,7.281.443,15.74,2.489,18.135,10.932a1.262,1.262,0,0,0,1.564.776c3.542-1.093,14.285-3.682,21.642,2.5a1.28,1.28,0,0,1,.352,1.5" transform="translate(-504.852 -1257.438)" fill="#ef4870"/>
        <path id="Path_810" data-name="Path 810" d="M736.1,1465.925c17.285,2.706,15.6,12.875,19.738,12.125a27.888,27.888,0,0,1,8.561-1.14,29.461,29.461,0,0,1,8.966,1.21,1.97,1.97,0,0,0,2.414-1.075l10.131-23.049a1.979,1.979,0,0,0-1.135-2.65c-4.96-1.856-14.253-1.24-17.6-.937a1.961,1.961,0,0,1-1.855-.937,28.634,28.634,0,0,0-6.444-7.6c-2.477-1.934-14.1-4.224-15.173-1.414l-9.066,22.806a1.966,1.966,0,0,0,1.465,2.663" transform="translate(-504.551 -1255.332)" fill="#fcd5a2"/>
        <path id="Path_811" data-name="Path 811" d="M780.422,1492.241c2.949.364,4.775-1.318,9.991-1.041a29.463,29.463,0,0,1,8.966,1.21,1.97,1.97,0,0,0,2.414-1.075l10.131-23.049c1.457-6.275-18.249-2.858-19.89-3.842l-11.612,27.8" transform="translate(-530.56 -1269.623)" fill="#ffe7b3"/>
        <path id="Path_812" data-name="Path 812" d="M826.081,1474.779a27.119,27.119,0,0,0-11.314-.867c-1.11.148-1.1-1.6,0-1.743a28.234,28.234,0,0,1,11.778.928.873.873,0,0,1-.464,1.682" transform="translate(-549.542 -1273.896)" fill="#ffb469"/>
        <path id="Path_813" data-name="Path 813" d="M819.254,1483.167a19.267,19.267,0,0,0-7.728-.256c-1.094.243-1.562-1.435-.464-1.678,1.179-.742,13.106-.23,8.192,1.934" transform="translate(-547.558 -1278.988)" fill="#ffb469"/>
        <path id="Path_814" data-name="Path 814" d="M815.432,1495.417a21.612,21.612,0,0,0-12.046-1.132c-1.1.208-1.567-1.474-.463-1.683a23.314,23.314,0,0,1,12.971,1.132c1.037.4.586,2.086-.462,1.682" transform="translate(-542.946 -1285.358)" fill="#ffb469"/>
        <path id="Path_815" data-name="Path 815" d="M813.393,1504.083a28.62,28.62,0,0,0-4.208-.568c-1.115-.069-1.123-1.817,0-1.748a32.616,32.616,0,0,1,4.672.633c1.1.23.634,1.913-.464,1.683" transform="translate(-546.374 -1290.798)" fill="#ffb469"/>
        <path id="Path_816" data-name="Path 816" d="M780.186,1456.808c-3.074-3.387-6.771-6.071-11.509-6.171a.874.874,0,0,1,0-1.748c5.183.113,9.356,2.953,12.742,6.687.754.828-.476,2.064-1.233,1.232" transform="translate(-523.431 -1260.852)" fill="#ffb469"/>
        <path id="Path_817" data-name="Path 817" d="M785.592,1469.982a15.041,15.041,0,0,0-4.532-2.919c-1.025-.416-.576-2.108.464-1.682a17.493,17.493,0,0,1,5.3,3.365c.825.763-.412,1.995-1.233,1.236" transform="translate(-530.593 -1270.153)" fill="#ffb469"/>
        <path id="Path_818" data-name="Path 818" d="M769.111,1477.928c-3.645-3.175-7.474-6.383-12.539-6.561-1.12-.043-1.125-1.787,0-1.748,5.548.2,9.757,3.578,13.772,7.073.849.741-.39,1.969-1.233,1.236" transform="translate(-516.576 -1272.592)" fill="#ffb469"/>
        <path id="Path_819" data-name="Path 819" d="M768.007,1494.423c-1.284-2.3-4.843-3.422-7.235-4.328-3.386-4.532,9.384,1.709,8.917,3.864.153,1.1-1.528,1.574-1.682.464" transform="translate(-519.107 -1283.275)" fill="#ffb469"/>
      </g>
    </g>
  </g>
</svg>
