<svg xmlns="http://www.w3.org/2000/svg" xmlns:xlink="http://www.w3.org/1999/xlink" width="320.243" height="329.878" viewBox="0 0 320.243 329.878">
  <defs>
    <clipPath id="clip-path">
      <path id="Path_828" data-name="Path 828" d="M1346,1337h13.755v10.519H1346Zm0,0" transform="translate(-1346 -1337)"/>
    </clipPath>
    <clipPath id="clip-path-2">
      <path id="Path_827" data-name="Path 827" d="M1351.341,1347.961a35.773,35.773,0,0,1-4.58-4.661c-1.44-4.208-.065-5.551,2.181-5.551,2.962,0,7.428,2.33,8.957,3.524,2.2,1.724,2.2,4.191.522,5.1a2.276,2.276,0,0,0-.761-.2h-.061c-1.618.409-3.847.983-6.259,1.788" transform="translate(-1346.171 -1337.75)"/>
    </clipPath>
    <clipPath id="clip-path-3">
      <path id="Path_961" data-name="Path 961" d="M1138,1307h6.069v26.7H1138Zm0,0" transform="translate(-1138 -1307)"/>
    </clipPath>
    <clipPath id="clip-path-4">
      <path id="Path_960" data-name="Path 960" d="M1143.852,1333.538s0,0-.008,0a240.734,240.734,0,0,1-5.834-26.184,245.806,245.806,0,0,0,5.842,26.188" transform="translate(-1138.01 -1307.35)"/>
    </clipPath>
  </defs>
  <g id="Group_30612" data-name="Group 30612" transform="translate(-44 -140.736)">
    <g id="Group_30522" data-name="Group 30522" transform="translate(-3010.71 1737.541)">
      <path id="Path_820" data-name="Path 820" d="M1442.182,1192.809c-3.512,205.5-309.182,205.464-312.662,0,3.512-205.487,309.182-205.456,312.662,0" transform="translate(1925.19 -2634.816)" fill="#f0f7f5"/>
      <path id="Path_821" data-name="Path 821" d="M1474.749,1408.79a156.349,156.349,0,0,0-1.282,18.533c-.376,4.24,1.278,8.172-.036,12.133-3.2,7.622-15.163,12.728-19.278,14.476-4.3-1.8-15.325-6.615-18.991-13.861-1.816-4,.077-8.1-.307-12.449a155.283,155.283,0,0,0-1.274-18.833c.105-.012,20.491-1.958,20.58-1.97.073.008,20.508,1.962,20.589,1.97" transform="translate(1761.655 -2852.917)" fill="#ffc3b3"/>
      <path id="Path_822" data-name="Path 822" d="M1474.749,1408.79s-.485,3.6-.854,8.5c-8.888,14.111-30.869,14.281-39.421.5-.38-5.146-.894-9-.894-9,.105-.012,20.491-1.958,20.58-1.97.073.008,20.508,1.962,20.589,1.97" transform="translate(1761.655 -2852.917)" fill="#f27584"/>
      <path id="Path_823" data-name="Path 823" d="M1356.419,1216.156c-7.509-7.756-14.925-20.18-4.988-31.8-9.617-11.915-4.111-32.54,12.428-35.226.389-14.269,18.372-26.637,31.7-17.506,13.169-18.6,51.9-11.009,47.141,17.506,18.655,7.323,15.544,27.9,8.986,40.1,4.592,10.458.983,25.921-11.3,31.059,0,0-79.911,3.524-83.973-4.131" transform="translate(1813.425 -2683.008)" fill="#3d2e56"/>
      <path id="Path_824" data-name="Path 824" d="M1348.553,1316.614c-18.934-9.944-19.306,21.345-3.993,25.893,17.854,3.609,10.681-19.654,3.993-25.893" transform="translate(1821.149 -2798.05)" fill="#ffc3b3"/>
      <path id="Path_825" data-name="Path 825" d="M1351.98,1323.313a12.22,12.22,0,0,0-2.941-4.313c-7.841-5.021-17.878.126-14.387,14.059-5.4-13.525,3.851-22.474,13.545-16.43a14.08,14.08,0,0,1,3.783,6.683" transform="translate(1821.509 -2798.069)" fill="#ffd7b6"/>
      <g id="Group_44" data-name="Group 44" transform="translate(3159.802 -1474.344)" clip-path="url(#clip-path)">
        <g id="Group_43" data-name="Group 43" transform="translate(0.069 0.303)" clip-path="url(#clip-path-2)">
          <path id="Path_826" data-name="Path 826" d="M1344.07,1347.961h14.783V1337.75H1344.07Zm0,0" transform="translate(-1344.92 -1337.75)" fill="#faa8a3"/>
        </g>
      </g>
      <path id="Path_829" data-name="Path 829" d="M1346.379,1344.429c-7.65-5.5,2.132-11.753,9.993-3.665.409.457-.429.886-.756.5-.041-.04-4.252-4.224-8.383-3.54-3.855.591-2.735,4.7-.587,5.971.433.227.15.765-.267.732" transform="translate(1815.228 -2811.281)" fill="#f27584"/>
      <path id="Path_830" data-name="Path 830" d="M1356.687,1338.946c-4.782-.684-4.014,4.964-.53,6.388,2.007.769,4.276.134,4.244-1.808s-1.825-3.6-3.714-4.58" transform="translate(1809.443 -2812.468)" fill="#f27584"/>
      <path id="Path_831" data-name="Path 831" d="M1586.363,1316.614c18.934-9.944,19.306,21.345,3.993,25.893-17.85,3.609-10.677-19.654-3.993-25.893" transform="translate(1674.995 -2798.05)" fill="#ffc3b3"/>
      <path id="Path_832" data-name="Path 832" d="M1587.67,1323.313a12.211,12.211,0,0,1,2.937-4.313c7.841-5.021,17.878.126,14.391,14.059,5.4-13.525-3.856-22.474-13.549-16.43a14.106,14.106,0,0,0-3.779,6.683" transform="translate(1669.905 -2798.069)" fill="#ffd7b6"/>
      <path id="Path_833" data-name="Path 833" d="M1597.843,1347.4c-1.724-.518-3.281-.918-4.495-1.226h-.061a4.268,4.268,0,0,0-1.562.575,2.713,2.713,0,0,0-.283-.032,2.733,2.733,0,0,1-1.982-.85c.3-1.173.579-2.375.817-3.6l-.567-.085a5.231,5.231,0,0,1,.914-.9c1.529-1.193,6-3.524,8.953-3.524,2.25,0,3.625,1.343,2.185,5.551a37.38,37.38,0,0,1-3.92,4.1" transform="translate(1668.839 -2811.79)" fill="#faa8a3"/>
      <path id="Path_834" data-name="Path 834" d="M1602.164,1344.429c7.655-5.5-2.132-11.753-9.989-3.665-.413.457.425.886.752.5.041-.04,4.256-4.224,8.383-3.54,3.856.591,2.739,4.7.591,5.971-.437.227-.154.765.263.732" transform="translate(1667.289 -2811.281)" fill="#f27584"/>
      <path id="Path_835" data-name="Path 835" d="M1600.387,1338.946c4.782-.684,4.009,4.964.53,6.388-2.011.769-4.28.134-4.248-1.808s1.829-3.6,3.718-4.58" transform="translate(1664.547 -2812.468)" fill="#f27584"/>
      <path id="Path_836" data-name="Path 836" d="M1458.859,1301.169c-.76-2.33,2.614-23.7,2.573-25.747-9.507,10.43-29.489,1.557-30.311-3.172-7.246,11.785-26.9,15.091-36.751,5.292-.291,2.4-6.7,10.005-13.116,10.519,0,0,1.845,12,1.594,15.1s-3.188,1.938-3.188,1.938c11.789,50.745,75.978,48.035,85.7-1.837-2.836-.433-6.21-.8-6.5-2.092" transform="translate(1793.76 -2772.79)" fill="#ffc3b3"/>
      <path id="Path_837" data-name="Path 837" d="M1409.829,1317.667c.886,1.2,2.148,3.548,3.981,2.448l13.545-7.42a2.031,2.031,0,0,0,.623-3.034c-.914-1.092-2.128-3.378-3.9-2.456-2.541,1.6-16.749,6.069-14.253,10.462" transform="translate(1775.971 -2793.475)" fill="#3d2e56"/>
      <path id="Path_838" data-name="Path 838" d="M1533.542,1319.352c-.886,1.206-2.148,3.548-3.981,2.452l-13.545-7.42a2.031,2.031,0,0,1-.623-3.034c.914-1.1,2.128-3.378,3.9-2.456,2.541,1.6,16.749,6.065,14.253,10.458" transform="translate(1713.198 -2794.481)" fill="#3d2e56"/>
      <path id="Path_839" data-name="Path 839" d="M1438.8,1341.961c-1.165.591-1.934-1.594-6.813-.781,3.888.065,3.791,6.489-.109,6.421-3.232.1-4.171-4.875-1.282-6.133-4.932,1.485-4.171,4.422-5.26,4.786-1.254-.194.32-4.552,5.462-5.789,5.28-1.032,8.383.494,8,1.5" transform="translate(1766.806 -2813.202)" fill="#3d2e56"/>
      <path id="Path_840" data-name="Path 840" d="M1509.924,1341.961c1.165.591,1.934-1.594,6.813-.781-3.888.065-3.791,6.489.109,6.421,3.233.1,4.171-4.875,1.283-6.133,4.932,1.485,4.171,4.422,5.259,4.786,1.254-.194-.32-4.552-5.462-5.789-5.28-1.032-8.383.494-8,1.5" transform="translate(1716.216 -2813.202)" fill="#3d2e56"/>
      <path id="Path_841" data-name="Path 841" d="M1476.8,1374.3a6.515,6.515,0,0,1-3.746-1.165c-1.015-.324.061-6.113,1.048-4.175-.538,1.549-.85,3.427-.413,3.758,1.161,1.457,6.453.931,6.959-.352a31.453,31.453,0,0,0-.643-3.431c-.089-.417.805-.469.854-.1a32.253,32.253,0,0,1,.655,3.528c-.008,1.04-3.107,1.934-4.713,1.934" transform="translate(1738.392 -2830.136)" fill="#f27584"/>
      <path id="Path_842" data-name="Path 842" d="M1470.673,1400.179c-6.886,4.721-16.429,5.11-23.247,0-5.357-3.305-8.29-15.875.9-12.02,7.185,4.309,14.374,4.212,21.555-.04,9.079-3.7,6.089,8.807.789,12.06" transform="translate(1756.406 -2841.373)" fill="#ce307f"/>
      <path id="Path_843" data-name="Path 843" d="M1477.181,1396.044a16.262,16.262,0,0,1-3.924,1.42c-1.982-2.678-2.342-4.126-2.2.4-4.414.882-12.926-.49-14.7-1.727-2.476-1-.619-5.118-.481-6.947,7.2,4.3,14.366,4.211,21.556-.036.178,1.8,2.075,5.785-.251,6.894" transform="translate(1748.854 -2842.396)" fill="#fff"/>
      <path id="Path_844" data-name="Path 844" d="M1473.294,1424.686a18.569,18.569,0,0,1-6.344-1.1,19.489,19.489,0,0,0,6.453,1.08,20.868,20.868,0,0,0,2.561-.158,20.441,20.441,0,0,1-2.67.178m9.475-2.225c.065-.036.134-.069.2-.1l0,0c-.069.032-.138.065-.2.1" transform="translate(1741.785 -2862.169)" fill="#ffc3b3"/>
      <path id="Path_845" data-name="Path 845" d="M1469.562,1420.421a19.48,19.48,0,0,1-6.453-1.08,18.46,18.46,0,0,1-2.609-1.177c1.651-1.954,5.5-2.933,9.341-2.933,3.815,0,7.622.963,9.285,2.885-.065.032-.134.065-.2.1a23.2,23.2,0,0,1-6.805,2.047,20.863,20.863,0,0,1-2.561.158" transform="translate(1745.626 -2857.924)" fill="#ea859d"/>
      <path id="Path_846" data-name="Path 846" d="M1436.225,1492.829c-50.616,43.67-102.919,22.114-126.9-30.2-.3.2,7.226-5.972,10.446-8.35l.008-.012a107.483,107.483,0,0,1,18.493-11.757c28.47-16.013,8.605,2.035,41.752,3.54,17.259,0,25.674-8.253,27.236-8.735.688-.21,6.809,1.485,14.54,4.879,8.359,3.71,16.9,8.508,23.845,14.807,13.015,9.734,6.8,21.495-9.422,35.825" transform="translate(1835.644 -2870.25)" fill="#47617f"/>
      <path id="Path_847" data-name="Path 847" d="M1425.548,1471.345c-15.2,0-30.274-2.743-39.838-7.861a20.686,20.686,0,0,1,1.335-4.471c.215-.4.421-.781.615-1.141,8.261,5.041,23.085,7.792,38,7.792,15.244,0,30.589-2.868,39.15-9.095.384.72.821,1.525,1.319,2.444a15.215,15.215,0,0,1,1.016,3.119c-10.042,6.279-25.889,9.212-41.6,9.212" transform="translate(1790.158 -2882.539)" fill="#6692a4"/>
      <path id="Path_848" data-name="Path 848" d="M1426.592,1518.011c-14.933,0-29.72-1.6-38.143-4.564l-.259-8.071c8.9,2.8,21.705,5.154,39.587,5.154,17.267,0,30.133-2.792,39.405-6.21l-.769,8.35c-8.888,3.645-24.432,5.34-39.822,5.34" transform="translate(1788.681 -2910.971)" fill="#6692a4"/>
      <path id="Path_849" data-name="Path 849" d="M1381.089,1513.28c-1.885-.53-3.633-1.088-5.259-1.655.57-2.6,1.088-5.154,1.566-7.586,1.076.4,2.217.785,3.435,1.169l.259,8.071" transform="translate(1796.041 -2910.804)" fill="#3d546e"/>
      <path id="Path_850" data-name="Path 850" d="M1372.1,1481.487A64.193,64.193,0,0,1,1361.17,1477l10.361-12.8.57,17.287" transform="translate(1804.769 -2887.082)" fill="#344a60"/>
      <path id="Path_851" data-name="Path 851" d="M1581.54,1510.366l.769-8.35q2.076-.771,3.9-1.566c.469,2.423.983,5,1.549,7.642-1.922.789-3.989,1.554-6.222,2.274" transform="translate(1673.555 -2908.667)" fill="#3d546e"/>
      <path id="Path_852" data-name="Path 852" d="M1588.821,1481.118c-1.643.756-3.431,1.5-5.381,2.225l1.315-14.253,4.066,12.028" transform="translate(1672.424 -2889.994)" fill="#344a60"/>
      <path id="Path_853" data-name="Path 853" d="M1447.662,1537.411c-42.61,37.354-92.821,28.243-119.142-16.337l8.306-10.264a71.274,71.274,0,0,0,16.094,6.5l.562,17.045,37.4,17.215,38.013-13.391,1.986-21.645a85.134,85.134,0,0,0,8.609-3.3l8.168,24.173" transform="translate(1824.21 -2914.835)" fill="#344a60"/>
      <path id="Path_854" data-name="Path 854" d="M1178.936,1562.665l95.523,16.1v92.623l-142.049-18.019,43.742-89.277a2.614,2.614,0,0,1,2.784-1.424" transform="translate(1940.98 -2945.689)" fill="#47617f"/>
      <path id="Path_855" data-name="Path 855" d="M1626.453,1653.366,1484.4,1671.386v-92.623l95.531-16.1a2.6,2.6,0,0,1,2.775,1.424l43.746,89.277" transform="translate(1731.395 -2945.689)" fill="#47617f"/>
      <path id="Path_856" data-name="Path 856" d="M1416.724,1785.512a3.451,3.451,0,0,1-3.164,3.188L1279.7,1809.123a36.463,36.463,0,0,1-11.021,0L1134.831,1788.7c-4.5-.627-3.868-6.55.68-6.433-.057-.069,138.545,16.413,138.683,16.421.542-.129,138.193-16.389,138.687-16.421,2.083,0,3.843,1.424,3.843,3.245" transform="translate(1941.366 -3076.468)" fill="#3d2e56"/>
      <path id="Path_857" data-name="Path 857" d="M1420.946,1754.882l-133.29,15.689-133.286-15.689s8.933-4.317,7.019-11.567c-1.812-6.821-3.568-7.918-3.827-8.055,0,0,40.178.805,70.788,4.03,27.466,2.694,47.043,10.547,59.306,13.08,12.25-2.521,31.868-10.394,59.31-13.08,30.61-3.224,70.788-4.03,70.788-4.03-5.939,7.12-5.583,15.269,3.192,19.622" transform="translate(1927.904 -3048.479)" fill="#f9f1ea"/>
      <path id="Path_858" data-name="Path 858" d="M1168.845,1748.6a1.525,1.525,0,0,1-.825-.364,1.167,1.167,0,0,1,.615-.263c.073.2.142.409.21.627" transform="translate(1919.777 -3056.047)" fill="#767d88"/>
      <path id="Path_859" data-name="Path 859" d="M1279.47,1764.8c-.983-.194-15.289-7.214-45.073-11.284-28.041-4.276-59.136-3.993-64.646-5.3-.069-.219-.138-.429-.21-.627a23.3,23.3,0,0,1,4.288-.259c10.648,0,36.751,2.245,60.8,4.992,29.619,4.592,47.578,10.648,44.843,12.477" transform="translate(1918.872 -3055.666)" fill="#d6cac2"/>
      <path id="Path_860" data-name="Path 860" d="M1230.8,1764.927h-.032c-22.721-3.811-45.579-2.917-46.631-4.652.287-.384,1.691-.554,3.961-.554,7.638,0,25.079,1.914,42.8,4.005a.6.6,0,1,1-.093,1.2" transform="translate(1910.178 -3063.043)" fill="#d6cac2"/>
      <path id="Path_861" data-name="Path 861" d="M1362.6,1782.046h-.036c-.267,0-33.527-7.258-33.656-7.266a.606.606,0,0,1-.518-.736.707.707,0,0,1,.7-.453.879.879,0,0,1,.178.016l33.478,7.25a.6.6,0,0,1-.142,1.19" transform="translate(1824.303 -3071.302)" fill="#d6cac2"/>
      <path id="Path_862" data-name="Path 862" d="M1167.086,1772.243c-.388-.215-.376-.429.109-.643.061,0,.178.016.34.032-.146.21-.3.413-.449.611" transform="translate(1920.496 -3070.117)" fill="#767d88"/>
      <path id="Path_863" data-name="Path 863" d="M1223.762,1779.3h-.036c-9.309-2.751-52.4-4.875-56.235-7.007.154-.2.3-.4.449-.611,4.462.4,44.964,4.115,55.96,6.429a.6.6,0,0,1-.138,1.189" transform="translate(1920.092 -3070.165)" fill="#d6cac2"/>
      <path id="Path_864" data-name="Path 864" d="M1797.03,1748.583c.089-.263.182-.526.287-.793a1.825,1.825,0,0,1,1,.336c-.117.174-.558.324-1.286.457" transform="translate(1545.246 -3055.94)" fill="#767d88"/>
      <path id="Path_865" data-name="Path 865" d="M1526.558,1764.8c-2.731-1.829,15.228-7.885,44.843-12.477,24.052-2.747,50.151-4.992,60.8-4.992a29.435,29.435,0,0,1,3.9.186c-.105.267-.2.53-.287.793-6.6,1.206-36.844,1.04-64.189,5.207-29.785,4.07-44.086,11.089-45.073,11.284" transform="translate(1706.455 -3055.666)" fill="#d6cac2"/>
      <path id="Path_866" data-name="Path 866" d="M1667.764,1764.927a.6.6,0,1,1-.093-1.2c17.716-2.092,35.157-4.005,42.792-4.005,2.27,0,3.673.17,3.965.554-1.056,1.736-23.914.841-46.635,4.652h-.028" transform="translate(1622.614 -3063.043)" fill="#d6cac2"/>
      <path id="Path_867" data-name="Path 867" d="M1554.262,1782.046a.6.6,0,0,1-.142-1.19l33.482-7.25a.849.849,0,0,1,.178-.016.708.708,0,0,1,.7.453.607.607,0,0,1-.518.736c-.133.008-33.389,7.266-33.656,7.266h-.04" transform="translate(1690.193 -3071.302)" fill="#d6cac2"/>
      <path id="Path_868" data-name="Path 868" d="M1799.605,1772.332c-.166-.223-.32-.453-.465-.684l.538-.049c.55.247.489.49-.073.732" transform="translate(1543.99 -3070.117)" fill="#767d88"/>
      <path id="Path_869" data-name="Path 869" d="M1660.661,1779.322a.6.6,0,0,1-.137-1.189c10.855-2.286,50.43-5.927,55.766-6.412.146.23.3.461.465.684-4.835,2.1-46.874,4.2-56.057,6.918h-.036" transform="translate(1626.84 -3070.188)" fill="#d6cac2"/>
      <path id="Path_870" data-name="Path 870" d="M1422.452,1615.753s-40.178.805-70.788,4.03c-27.466,2.694-47.044,10.547-59.31,13.08-12.246-2.521-31.864-10.393-59.306-13.08-30.61-3.224-70.788-4.03-70.788-4.03l36.007-75.024a10.065,10.065,0,0,1,8.5-5.276c27.7-3.925,70.788,5.6,85.583,16.672,14.953-11.178,58.189-20.581,85.587-16.672a10.065,10.065,0,0,1,8.5,5.276l36.007,75.024" transform="translate(1923.206 -2928.972)" fill="#fff"/>
      <path id="Path_871" data-name="Path 871" d="M1423.647,1618.285c-13.986.441-40.74,1.647-60.342,3.742-26.269,2.642-47.942,10.228-58.716,13.052-22.211-9.682-91.093-17.558-119.053-16.794-1.97-.073-3.253-1.756-2.516-3.3,5.409-11.259,13.678-28.5,19.083-39.761l12.837-26.75a5.259,5.259,0,0,1,4.467-2.771c28.211-2.553,60,2.076,82.419,15.948,1.262.906,2.965,1.6,4.41.668,15.523-9.952,43.657-18.38,68.627-17.105a47.939,47.939,0,0,0,5.563.085c5.555-.105,12.267-.206,13.816,3.176,4.8,9.754,14.925,31.294,19.771,41.206l12.149,25.306c.736,1.541-.546,3.224-2.516,3.3" transform="translate(1910.97 -2935.214)" fill="#9ce5e3"/>
      <path id="Path_872" data-name="Path 872" d="M1613.918,1615.753s-40.178.805-70.788,4.03c-27.45,2.694-47.056,10.547-59.31,13.08v-4.03c22.239-9.677,91.077-17.554,119.057-16.79,1.97-.073,3.253-1.756,2.516-3.3-2.375-1.881-31.245-72.552-36.379-69.283-39.337-3.067-62.183,4.883-85.195,17.061v-4.4c14.953-11.178,58.19-20.581,85.587-16.672a10.065,10.065,0,0,1,8.5,5.276l36.007,75.024" transform="translate(1731.74 -2928.972)" fill="#fff"/>
      <path id="Path_873" data-name="Path 873" d="M1602.877,1618.461c-27.94-.785-96.858,7.137-119.057,16.79v-72.309c20.443-10.495,39.85-18.38,70.274-17.55a47.257,47.257,0,0,0,5.575.085c5.535-.109,12.23-.214,13.8,3.176l30.561,63.688,1.359,2.824c.736,1.541-.546,3.224-2.516,3.3" transform="translate(1731.74 -2935.391)" fill="#9ce5e3"/>
      <path id="Path_874" data-name="Path 874" d="M1284.615,1546.528c11.821,1.141,23.319,5.057,31.816,8.641-16.939.259-2.294,5.964-11.421,6.283-8.371,0-12.36,2.682-8.411,5.636,7.95,12.623-55.944,10.224-66.1,8.4l12.837-26.75a5.259,5.259,0,0,1,4.467-2.771,228.728,228.728,0,0,1,36.812.558" transform="translate(1882.574 -2935.479)" fill="#649293"/>
      <path id="Path_875" data-name="Path 875" d="M1618.434,1568.691c3.423,4.293,4.859,4.835-20.338,6.983s-39.85-4.026-34.8-6.983,3.884-9.123-2.5-11.469c-3.645-1.335-5.413-3.977-4.487-6.781,17.518-5.5,37.435-5.437,55.722-4.479a5.273,5.273,0,0,1,4.458,2.771l8.091,16.875c-5.061.465-8.055.7-6.15,3.083" transform="translate(1688.721 -2935.471)" fill="#649293"/>
      <path id="Path_876" data-name="Path 876" d="M1701.653,1683.993c-12.3.4-33.07,1.279-51.943,2.937,1.59-1.756,5.1-3.406,11.805-4.588,23.6-4.167,21.511-5.421,18.881-9.362s-6.619-5.178,0-7.78,8.545-1.521,6.947-5.284c-1.149-2.715-.307-4.341,4.677-4.527l12.149,25.306c.736,1.541-.546,3.224-2.516,3.3" transform="translate(1632.965 -3000.922)" fill="#649293"/>
      <path id="Path_877" data-name="Path 877" d="M1225.457,1667.054a177.1,177.1,0,0,1-31.767,1.626l9.03-18.821c6.093.6,11.745,1.6,8.5,3.2-6.17,3.03-10.082,5.806,0,7.242s20.613,5.636,14.233,6.756" transform="translate(1904.492 -2997.629)" fill="#649293"/>
      <path id="Path_878" data-name="Path 878" d="M1235.35,1648.118c1.485-3.418,3.285-4.483,7.42-3.758,1.772-5.935,6.837-8.557,12.436-4.835,2.662-6.728,11.021-4.855,15.026-2.282,3.188-4.766,12.137.979,12.712,4.208,2.306-.862,9.431-2.537,10.365,2.694,8.528-2.86,7.905,4.155,9.406,8.852,0,0-49.386-8.112-67.365-4.879" transform="translate(1879.687 -2988.719)" fill="#fff"/>
      <path id="Path_879" data-name="Path 879" d="M1298.9,1672.711c-.587-.044-18.23-3.661-36.622-5.729-19.3-2.593-34.518,1.537-35.748-.279.093-1.962,16.992-2.933,36-1.315,17.465,2.488,41.906,5.11,36.367,7.323" transform="translate(1884.938 -3006.39)" fill="#649293"/>
      <path id="Path_880" data-name="Path 880" d="M1636.317,1628.05c-1.056-2.565-2.638-3.491-5.724-2.9-1.295-4.527-5.365-6.615-9.6-3.73-1.966-5.15-8.585-3.755-11.595-1.76-2.464-3.678-9.37.756-9.811,3.249-1.78-.667-7.278-1.962-8,2.075-6.481-2.266-6.174,3.318-7.258,6.833,0,0,38.11-6.263,51.987-3.766" transform="translate(1671.894 -2978.575)" fill="#fff"/>
      <path id="Path_881" data-name="Path 881" d="M1580.75,1647.006c.453-.036,14.067-2.828,28.259-4.422a118.03,118.03,0,0,1,26.734.287c4.511-1.914-13.29-2.873-26.928-1.521-13.614,1.966-32.131,3.872-28.065,5.656" transform="translate(1674.365 -2992.186)" fill="#649293"/>
      <path id="Path_882" data-name="Path 882" d="M1297.54,1722.491c-42.941-15.293-95.268-13.136-96.85-15.3,1.7-2.326,53.666-.275,97.218,13.747a.8.8,0,0,1-.368,1.549" transform="translate(1900.324 -3031.281)" fill="#649293"/>
      <path id="Path_883" data-name="Path 883" d="M1559.647,1706.9c-4.281-1.044,11.906-10.782,29.538-12.708,17.935-1.817,29.776-1.833,30.007-1.833a.834.834,0,0,1,.93.805.825.825,0,0,1-.93.805c-13.339-.283-46.821,1.638-59.545,12.93" transform="translate(1687.004 -3022.935)" fill="#649293"/>
      <path id="Path_884" data-name="Path 884" d="M1781.51,1723.317a2.534,2.534,0,0,0,1.2-1.287v0a2.523,2.523,0,0,1-1.185,1.274s-.008,0-.016.008" transform="translate(1554.487 -3040.602)" fill="#b9cece"/>
      <path id="Path_885" data-name="Path 885" d="M1781.223,1716.753a2.523,2.523,0,0,0,1.185-1.274,1.9,1.9,0,0,1-1.185,1.274m.93-3.33-1.153-2.4a21.192,21.192,0,0,1,1.153,2.4" transform="translate(1554.791 -3034.046)" fill="#b9cece"/>
      <path id="Path_886" data-name="Path 886" d="M1483.82,1733.758v-4.928l17.53-6.352c17.3-3.722,50.932-10.244,80.287-11.708-2.334,1.258-7.751,2.577-18.9,4.547-6.708,1.181-10.215,2.832-11.805,4.588,4.1-.36,8.3-.684,12.473-.975-30.1,2.865-64.966,8.472-79.587,14.828" transform="translate(1731.74 -3033.897)" fill="#83c0bf"/>
      <path id="Path_887" data-name="Path 887" d="M1649.71,1719.471c1.59-1.756,5.1-3.406,11.805-4.588,11.146-1.97,16.563-3.289,18.9-4.547,3.852-.19,7.626-.3,11.284-.3,3.856,0,7.578.117,11.114.372a.083.083,0,0,0,.016.024l1.153,2.4a3.577,3.577,0,0,1,.255,2.051,2.533,2.533,0,0,1-1.2,1.287,5.276,5.276,0,0,1-1.38.356c-1.282-.036-2.65-.057-4.094-.057-9.317,0-21.863.736-35.376,2.019-4.175.291-8.371.615-12.473.975" transform="translate(1632.965 -3033.463)" fill="#649293"/>
      <path id="Path_888" data-name="Path 888" d="M1483.82,1644.514v-59.828c2.832-.5,2.233-1.149,5.9-2.836v61.887c-1.9.36-3.463.607-4.6.708-.4.036-.838.057-1.307.069" transform="translate(1731.74 -2957.135)" fill="#83c0bf"/>
      <path id="Path_889" data-name="Path 889" d="M1400.047,1736l-55.317-13c.437-.126.906-.235,1.4-.328a218.3,218.3,0,0,1,37.176,9.257.307.307,0,0,0,.061,0,.8.8,0,0,0,.307-1.554,284.865,284.865,0,0,0-32.1-8.152c.125,0,.251,0,.376,0,7.185,0,16.729,1.469,25.775,2.941s17.6,2.937,22.8,2.937c.162,0,.324,0,.481,0v7.553l-.955.348" transform="translate(1814.558 -3040.715)" fill="#7db6b6"/>
      <path id="Path_890" data-name="Path 890" d="M1385.427,1731.936a.309.309,0,0,1-.061,0,218.28,218.28,0,0,0-37.176-9.257,30.978,30.978,0,0,1,5.441-.445,284.863,284.863,0,0,1,32.1,8.152.8.8,0,0,1-.307,1.554" transform="translate(1812.498 -3040.721)" fill="#649293"/>
      <path id="Path_891" data-name="Path 891" d="M1500.279,1719.373a1.751,1.751,0,0,1-1.869-1.59v-2.517c6.736-1.278,17.66-3.977,28.162-6.708-2.945,1.813-4.325,3.342-3.37,3.916l-13.165,4.77c-4.086.882-7.262,1.6-9.253,2.067a2.183,2.183,0,0,1-.506.061m23.918-7.258a37,37,0,0,1,10.414-5.672c5.624-1.493,10.729-2.88,14.5-3.916,1.011-.194,2.031-.376,3.047-.546l-27.964,10.135" transform="translate(1723.053 -3028.664)" fill="#7db6b6"/>
      <path id="Path_892" data-name="Path 892" d="M1559.249,1710.623c-.955-.574.425-2.1,3.37-3.916,2.735-.712,5.441-1.424,8.039-2.116a37.008,37.008,0,0,0-10.414,5.672l-1,.36m25.913-9.948c4.017-1.1,6.522-1.8,6.522-1.8l-3.475,1.258c-1.016.17-2.035.352-3.047.546" transform="translate(1687.006 -3026.812)" fill="#649293"/>
      <path id="Path_893" data-name="Path 893" d="M1483.82,1743.15V1735.6c.469-.012.9-.032,1.307-.069,1.133-.1,2.7-.348,4.6-.708v2.516a1.751,1.751,0,0,0,1.869,1.59,2.182,2.182,0,0,0,.506-.061c1.99-.465,5.166-1.185,9.253-2.067l-17.53,6.352" transform="translate(1731.74 -3048.217)" fill="#72a6a6"/>
      <path id="Path_894" data-name="Path 894" d="M1484.386,1639.96c-3.649,2.411-8.3,5.441-11.959,7.853-17.425-17.829-61.552-17.967-79.77,13.08l-.008.016c-3.047-3.5-6.861-7.841-9.9-11.324,18.266-37.7,78.183-39.7,101.636-9.625" transform="translate(1791.92 -2979.355)" fill="#ffd671"/>
      <path id="Path_895" data-name="Path 895" d="M1484.386,1639.96l-1.732,1.145c-35.469-27.527-73.191-23.02-98.311,10.308l-1.594-1.829c18.266-37.7,78.183-39.7,101.636-9.625" transform="translate(1791.92 -2979.355)" fill="#ff7391"/>
      <path id="Path_896" data-name="Path 896" d="M1486.493,1654.335c-1.926,1.262-5.85,3.835-7.76,5.09-18.974-18.1-58.388-18.084-79.777,13.1-1.3-1.489-4.345-4.98-5.615-6.424,30.6-32.742,50.3-35.534,93.152-11.761" transform="translate(1785.615 -2990.967)" fill="#27c9a9"/>
      <path id="Path_897" data-name="Path 897" d="M1485.265,1663.521l-3.52,2.31c-18.974-18.1-58.388-18.084-79.777,13.1l-3.568-4.09c26.447-30,52.384-32.989,86.865-11.316" transform="translate(1782.602 -2997.374)" fill="#649293"/>
      <path id="Path_898" data-name="Path 898" d="M1384.5,1702.97a10.12,10.12,0,0,1-1.2,4.567c-8.6-3.989-20.852-7.549-38.576-9,1.048-5.158,4.45-6.335,9.24-5.5-2.941-8.229,9.16-16,13.869-4.972,2.743-2.488,9.026,2.136,6.226,5.769,6.162-2.69,7.869,3.249,5.895,7.258,0,0,4.466-.4,4.543,1.873" transform="translate(1814.558 -3017.132)" fill="#fff"/>
      <path id="Path_899" data-name="Path 899" d="M1382.151,1717.726a3.116,3.116,0,0,1-.133,1.044,226.13,226.13,0,0,0-32-6.918c1.323-1.044,6.307-.522,5.826-.538-2.484-6.659,9.354-9.329,11.947-3.2,1.02-1.331,8.027.546,5.369,3.71,3.471-1.319,7.383.522,5.069,4.7,0,0,3.843-.267,3.92,1.21" transform="translate(1811.409 -3030.266)" fill="#fff"/>
      <path id="Path_900" data-name="Path 900" d="M1573.945,1674.02a10.841,10.841,0,0,0,1.274,4.875c9.184-4.256,22.26-8.055,41.181-9.6-1.117-5.51-4.754-6.765-9.864-5.874,3.139-8.783-9.779-17.073-14.807-5.3-2.929-2.658-9.633,2.282-6.647,6.158-6.574-2.877-8.4,3.467-6.287,7.744,0,0-4.77-.429-4.851,2" transform="translate(1678.079 -2999.077)" fill="#fff"/>
      <path id="Path_901" data-name="Path 901" d="M1588.454,1689.768a3.45,3.45,0,0,0,.142,1.117c6.016-2.3,17.635-5.9,34.158-7.387a3.736,3.736,0,0,0-1.667-.575,19.284,19.284,0,0,0-4.551,0c2.65-7.108-9.985-9.96-12.756-3.423-1.157-1.4-8.512.526-5.729,3.965-3.706-1.408-7.881.554-5.409,5.013,0,0-4.106-.283-4.187,1.291" transform="translate(1669.44 -3013.094)" fill="#fff"/>
      <path id="Path_902" data-name="Path 902" d="M1483.641,1795.81l-.121-.012v-.129l.121.012.235-.028v.125c-.141.02-.223.028-.235.032m0-18.331.235-.049-.235.049" transform="translate(1731.919 -3073.589)" fill="#d9d2cd"/>
      <path id="Path_903" data-name="Path 903" d="M1482.293,1822.49c-.146-.02-.429-.052-.833-.1v-.129l.833.1v.129" transform="translate(1733.146 -3100.281)" fill="#767d88"/>
      <path id="Path_904" data-name="Path 904" d="M1484.4,1795.557v-.125l.724-.085v.121c-.319.041-.562.069-.724.089m0-18.347c.231-.049.461-.1.7-.15-.235.052-.465.1-.7.15" transform="translate(1731.395 -3073.368)" fill="#767d88"/>
      <path id="Path_905" data-name="Path 905" d="M1482.415,1823.357a.9.9,0,0,1-.955-.789c.4.049.688.081.833.1l.121.012c.012,0,.093-.012.235-.032.162-.02.4-.049.724-.089a.893.893,0,0,1-.959.8" transform="translate(1733.146 -3100.46)" fill="#706172"/>
      <path id="Path_906" data-name="Path 906" d="M1482.415,1795.46l-.121-.012-.833-.1v-18.088a.806.806,0,0,1,.028-.2c.316.069.623.137.926.2l.235-.048c.231-.049.461-.1.7-.15a.805.805,0,0,1,.028.2v18.088l-.724.085-.235.028" transform="translate(1733.146 -3073.368)" fill="#d6cac2"/>
      <path id="Path_907" data-name="Path 907" d="M1482.456,1776.365c-.3-.061-.611-.13-.926-.2a.944.944,0,0,1,.926-.607v.805c.308-.065.615-.13.931-.2-.235.052-.465.1-.7.15l-.235.049" transform="translate(1733.104 -3072.475)" fill="#d9d2cd"/>
      <path id="Path_908" data-name="Path 908" d="M1483.82,1776.365v-.805a.945.945,0,0,1,.931.607c-.316.069-.623.134-.931.2" transform="translate(1731.74 -3072.475)" fill="#d9d2cd"/>
      <path id="Path_909" data-name="Path 909" d="M1664.99,1501.94c15.123,7.391,16.757,31.767,0,39.041V1501.94" transform="translate(1623.866 -2909.554)" fill="#ffc3b3"/>
      <path id="Path_910" data-name="Path 910" d="M1572.9,1377.754c.133.267.218.421.218.421-.457,2.468-1.384,8.059-1.117,11.328.324,3.977,1.117,5.26,4.3,11.154s7.173,56.761,23.283,56.6c41.44-1.319.356-55.026-4.632-61.7-2.707-5.737,8.294-17.38,8.609-20.4.955-10.77-14.973-14.977-21.361-16.588-1.432-.154-9.88,5.587-11.162,9.568-1.016,2.7.789,7.622,1.857,9.621" transform="translate(1679.986 -2824.183)" fill="#ffc3b3"/>
      <path id="Path_911" data-name="Path 911" d="M1565.17,1391.86c-14.779,14.1,15.879,17.554,6.655,8.379-2.44-1.557-4.208-1.019-5.223-3.811a43.2,43.2,0,0,1-1.432-4.568" transform="translate(1685.742 -2844.009)" fill="#ffc3b3"/>
      <path id="Path_912" data-name="Path 912" d="M1572.742,1426.754v0m.109-2.6c.008-.1.016-.2.024-.3-.287-.1-.461-.154-.5-.174a.461.461,0,0,1-.263-.643c.267.105.538.206.809.291q-.043.413-.073.826" transform="translate(1679.193 -2862.574)" fill="#f1cace"/>
      <path id="Path_913" data-name="Path 913" d="M1573.73,1406.349v-.146c0-.769.04-1.6.109-2.452q.03-.413.073-.825a11.757,11.757,0,0,0,3.52.575c3.249,0,5.381-1.667,1.93-5.1-2.035-1.3-3.6-1.141-4.656-2.674a.377.377,0,0,1,.182-.044.405.405,0,0,1,.134.024,11.03,11.03,0,0,0,4.737,1.121c4.6,0,8.452-3.253,10.021-8.055.453.809.647,1.177.574,1.339-.19.708-1.752,6.081-3.977,8.609a8.664,8.664,0,0,1-4.766,3.03,9.945,9.945,0,0,1-7.881,4.6" transform="translate(1678.205 -2842.169)" fill="#faa8a3"/>
      <path id="Path_914" data-name="Path 914" d="M1576.509,1413.736a11.761,11.761,0,0,1-3.52-.574c-.271-.085-.542-.186-.809-.291a.458.458,0,0,1,.412-.291.537.537,0,0,1,.186.037,13.842,13.842,0,0,0,4.224.838,4,4,0,0,0,1.9-.388c2.6-2.043-.9-4.814-3.156-5.555a10.286,10.286,0,0,1-2.067-.74.481.481,0,0,1,.105-.809c1.052,1.533,2.622,1.375,4.657,2.674,3.451,3.435,1.319,5.1-1.93,5.1" transform="translate(1679.128 -2852.405)" fill="#faa8a3"/>
      <path id="Path_915" data-name="Path 915" d="M1585.3,1455.968a10.412,10.412,0,0,0,6.558-2.533c.485-.38-.113-1.145-.595-.749-7.351,5.652-11.182-.51-12.489.036-.631.821,2.452,3.038,6.526,3.245" transform="translate(1675.248 -2880.161)" fill="#f27584"/>
      <path id="Path_916" data-name="Path 916" d="M1677.178,1545.9c7.917-9.682-1.966-27.624-3.1-26.977a.477.477,0,0,0-.146.66c.1.154,9.633,15.422,2.852,25.573a.482.482,0,0,0,.4.745" transform="translate(1618.588 -2919.657)" fill="#f27584"/>
      <path id="Path_917" data-name="Path 917" d="M1575.43,1394.392a.458.458,0,0,0,.182.372,10.289,10.289,0,0,0,2.067.74c6.158,2.387,13.331-3.006,14.176-9.245a.48.48,0,0,0-.959,0c-.712,5.219-7.351,10.677-12.958,8.31-1.574-.279-2.156-1.23-2.508-.182" transform="translate(1677.193 -2840.399)" fill="#f27584"/>
      <path id="Path_918" data-name="Path 918" d="M1572.379,1413.451c10.183,3.8,11.215-5.4,1.655-7.574a.477.477,0,0,0-.421.829c2.237.542,8.5,3.4,5.223,6.3-1.618.878-4.669.073-6.121-.449a.479.479,0,0,0-.336.9" transform="translate(1679.192 -2852.342)" fill="#f27584"/>
      <path id="Path_919" data-name="Path 919" d="M1572.363,1397.4c-1.974-.433-2.079-2.549-2.233-6.174a.433.433,0,0,1,.866,0c0,3.92.752,4.936,1.076,5.19a.405.405,0,0,0,.336.118c.728-.186.744.979-.045.866" transform="translate(1680.349 -2843.372)" fill="#f27584"/>
      <path id="Path_920" data-name="Path 920" d="M1560.595,1381.223a.647.647,0,0,1-.579-.36c-2.189-4.746,3.051-9.669,3.459-10.054-.854-8.318,11.862-14.516,12.627-13.112.68,1.46-12.849,4.778-11.243,13.577.849,4.244.87,4.325.146,4.491-.639.146-.753.069-1.549-3.055-1.3,1.517-3.649,4.814-2.282,7.578a.65.65,0,0,1-.578.935" transform="translate(1686.688 -2823.549)" fill="#f27584"/>
      <path id="Path_921" data-name="Path 921" d="M1290.9,1501.94c-15.119,7.391-16.757,31.767,0,39.041V1501.94" transform="translate(1853.735 -2909.554)" fill="#ffc3b3"/>
      <path id="Path_922" data-name="Path 922" d="M1331.167,1377.754c-.134.267-.218.421-.218.421.457,2.468,1.388,8.059,1.121,11.328-.328,3.977-1.121,5.26-4.3,11.154s-7.177,56.761-23.283,56.6c-41.444-1.319-.36-55.026,4.628-61.7,2.707-5.737-8.294-17.38-8.609-20.4-.951-10.77,14.973-14.977,21.361-16.588,1.432-.154,9.88,5.587,11.162,9.568,1.015,2.7-.789,7.622-1.857,9.621" transform="translate(1849.438 -2824.183)" fill="#ffc3b3"/>
      <path id="Path_923" data-name="Path 923" d="M1389.9,1391.86c14.783,14.1-15.879,17.554-6.651,8.379,2.436-1.557,4.2-1.019,5.223-3.811a43.616,43.616,0,0,0,1.428-4.568" transform="translate(1792.674 -2844.009)" fill="#ffc3b3"/>
      <path id="Path_924" data-name="Path 924" d="M1399.5,1426.754h0v-.146c0,.049,0,.1,0,.146m-.113-2.6c-.02-.271-.045-.55-.073-.826.275-.085.542-.186.809-.291a.459.459,0,0,1-.263.643c-.036.02-.21.077-.5.174.012.1.02.2.024.3" transform="translate(1782.06 -2862.574)" fill="#f1cace"/>
      <path id="Path_925" data-name="Path 925" d="M1375.272,1406.349a9.944,9.944,0,0,1-7.881-4.6,8.648,8.648,0,0,1-4.762-3.03c-2.229-2.529-3.791-7.9-3.981-8.609-.073-.162.121-.53.575-1.339,1.63,4.843,5.389,8.051,9.977,8.051a11.431,11.431,0,0,0,4.794-1.116.415.415,0,0,1,.307.02c-1.056,1.533-2.622,1.375-4.657,2.674-3.455,3.435-1.323,5.1,1.926,5.1a11.737,11.737,0,0,0,3.52-.575c.028.275.053.554.073.825.069.849.105,1.683.109,2.452v.146" transform="translate(1806.28 -2842.169)" fill="#faa8a3"/>
      <path id="Path_926" data-name="Path 926" d="M1385.174,1413.736c-3.249,0-5.381-1.667-1.926-5.1,2.035-1.3,3.6-1.141,4.656-2.674a.482.482,0,0,1,.1.809,10.327,10.327,0,0,1-2.063.74c-2.258.74-5.757,3.512-3.16,5.555a4,4,0,0,0,1.9.388,13.869,13.869,0,0,0,4.228-.838.518.518,0,0,1,.182-.037.459.459,0,0,1,.413.291c-.267.105-.534.206-.809.291a11.742,11.742,0,0,1-3.52.574" transform="translate(1792.676 -2852.405)" fill="#faa8a3"/>
      <path id="Path_927" data-name="Path 927" d="M1368.544,1455.968a10.419,10.419,0,0,1-6.558-2.533.479.479,0,0,1,.6-.749c7.347,5.652,11.178-.51,12.485.036.631.821-2.448,3.038-6.526,3.245" transform="translate(1804.39 -2880.161)" fill="#f27584"/>
      <path id="Path_928" data-name="Path 928" d="M1286.937,1545.9c-7.917-9.682,1.97-27.624,3.1-26.977a.479.479,0,0,1,.15.66c-.1.154-9.633,15.422-2.856,25.573a.481.481,0,0,1-.4.745" transform="translate(1850.784 -2919.657)" fill="#f27584"/>
      <path id="Path_929" data-name="Path 929" d="M1373.892,1394.392a.458.458,0,0,1-.182.372,10.322,10.322,0,0,1-2.063.74c-6.162,2.387-13.331-3.006-14.176-9.245a.478.478,0,0,1,.955,0c.712,5.219,7.355,10.677,12.962,8.31a14.716,14.716,0,0,0,1.914-.639.475.475,0,0,1,.591.457" transform="translate(1806.973 -2840.399)" fill="#f27584"/>
      <path id="Path_930" data-name="Path 930" d="M1388.5,1413.453c-10.2,3.8-11.2-5.413-1.643-7.573a.475.475,0,0,1,.409.829c-2.237.542-8.5,3.4-5.223,6.3,1.618.878,4.669.073,6.125-.449a.479.479,0,0,1,.332.9" transform="translate(1793.419 -2852.344)" fill="#f27584"/>
      <path id="Path_931" data-name="Path 931" d="M1396.968,1397.4c1.979-.433,2.08-2.549,2.233-6.174a.433.433,0,0,0-.433-.433c-.271.036-.449.142-.433.578-.036,3.835-.724,4.766-1.1,5.069-.206.129-.267.1-.336.085-.716-.13-.692.983.073.874" transform="translate(1783.807 -2843.372)" fill="#f27584"/>
      <path id="Path_932" data-name="Path 932" d="M1388.4,1381.223a.653.653,0,0,0,.583-.36c2.185-4.746-3.054-9.669-3.463-10.054.854-8.318-11.862-14.516-12.627-13.112-.676,1.46,12.849,4.778,11.243,13.577-.849,4.244-.866,4.325-.146,4.491.643.146.752.069,1.55-3.055,1.3,1.517,3.653,4.814,2.282,7.578a.651.651,0,0,0,.578.935" transform="translate(1797.803 -2823.549)" fill="#f27584"/>
      <path id="Path_933" data-name="Path 933" d="M1283.745,1070.983c-3.8,6.546,2.415,13.606.182,14.5l-25.488,8.31a.894.894,0,0,1-1.121-.57c-3.459-15.43-14.091-9.18-19.812-25.868a25.127,25.127,0,0,1,17.635-32.107c20.188-5.943,38.754,17.668,28.6,35.74" transform="translate(1879.144 -2631.112)" fill="#ffd671"/>
      <path id="Path_934" data-name="Path 934" d="M1293.625,1102.471l-2.779.906c-.809-2.075-1.825-5.021,1.193-5.765,3.139-1.072,4.754,3.876,1.586,4.859m-12.922,4.212-2.783.906c-3.135,1.072-4.75-3.876-1.582-4.859,2.88-1.177,3.795,1.8,4.365,3.953m10.786-10.762c-3.924,1.072-3.738,4.948-2.334,8.006-1.978.643-4.786,1.562-6.76,2.205-.672-3.3-2.807-6.538-6.606-5.094-5.959,2.553-2.577,11.4,5.466,7.335l5.259,16.126,1.691-.55-5.259-16.126,6.76-2.2,5.259,16.126,1.687-.55-5.255-16.126c8.9-1.452,6.408-10.6.093-9.147" transform="translate(1857.41 -2667.706)" fill="#fff"/>
      <path id="Path_935" data-name="Path 935" d="M1266.381,1147.017c-.562-1.169-1-3.317-2.023-5.5a21.346,21.346,0,0,1,2.023,5.5m26.677-7.448c.514-.21.578-.745.417-1.529.049.138.1.275.15.409a.893.893,0,0,1-.566,1.121m-33.794-3.483c-.117-.057-.235-.109-.356-.166a21.406,21.406,0,0,1-7.319-5.64c2.492,2.719,5.2,4.086,7.675,5.806m32.645-3.479a10.361,10.361,0,0,1,.918-7.452l0,0a10.975,10.975,0,0,0-.922,7.456" transform="translate(1870.017 -2685.202)" fill="#facb9a"/>
      <path id="Path_936" data-name="Path 936" d="M1237.5,1068.046a21.965,21.965,0,0,1,5.373-11.166.015.015,0,0,0,0,.008,25.318,25.318,0,0,0-5.369,11.158" transform="translate(1878.406 -2644.552)" fill="#ffce9d"/>
      <path id="Path_937" data-name="Path 937" d="M1258.394,1107.269c-.409,0-.7-.332-.971-.89a21.346,21.346,0,0,0-2.023-5.5,10.974,10.974,0,0,0-5.094-5.434c-2.472-1.719-5.183-3.087-7.675-5.806a26.909,26.909,0,0,1-5.7-21.584,25.318,25.318,0,0,1,5.369-11.158c-10.1,14.99,2.953,34.3,18.238,34.3.364,0,.724-.008,1.088-.032l3.322,10.187,1.691-.55-3.208-9.835a18.649,18.649,0,0,0,3.653-.987l3.168-1.032,3.148,9.649,1.687-.55-3.144-9.649,11.927-3.888a10.36,10.36,0,0,0-.918,7.452,32.7,32.7,0,0,0,1.566,5.433c.162.785.1,1.319-.417,1.529h0l-25.488,8.31a.821.821,0,0,1-.214.028" transform="translate(1878.975 -2644.564)" fill="#ffc06c"/>
      <path id="Path_938" data-name="Path 938" d="M1301.862,1147.724l-3.322-10.187c.6-.036,1.2-.1,1.8-.2l3.208,9.835-1.691.55m8.452-2.755-3.148-9.649,1.691-.55,3.143,9.649-1.687.55" transform="translate(1842.061 -2690.93)" fill="#ffce9d"/>
      <path id="Path_939" data-name="Path 939" d="M1313.61,1152.749c.186,1.242,2.011,4.062.478,5.045a1.615,1.615,0,0,1-.55.3c-.6.081-26.944,9.01-27.539,8.856-1.808.117-2.055-3.228-2.6-4.349a1.732,1.732,0,0,1,1.109-2.177l26.932-8.779a1.727,1.727,0,0,1,2.173,1.1" transform="translate(1851.128 -2700.927)" fill="#6b3e4a"/>
      <path id="Path_940" data-name="Path 940" d="M1318.033,1166.97c1.808,11.3-22.895,19.359-28.093,9.156.6.154,26.944-8.775,27.547-8.856a1.63,1.63,0,0,0,.546-.3" transform="translate(1847.182 -2710.103)" fill="#ad9d92"/>
      <path id="Path_941" data-name="Path 941" d="M1285.941,1046.494a1.611,1.611,0,0,1-3.063,1,1.611,1.611,0,0,1,3.063-1" transform="translate(1851.444 -2637.723)" fill="#fff"/>
      <path id="Path_942" data-name="Path 942" d="M1309.484,1047.4c2.282,7.1-8.5,10.616-10.846,3.536-2.278-7.1,8.5-10.616,10.846-3.536" transform="translate(1842.19 -2636.604)" fill="#fff"/>
      <path id="Path_944" data-name="Path 944" d="M1203.214,1119.773c.028-.461-1.732-3.835-.8-4.005l9.924-3.237c.849-.425,1.428,3.366,1.715,3.706.805.842-10.09,3.552-10.232,3.848a.485.485,0,0,1-.611-.312" transform="translate(1899.459 -2677.669)" fill="#ffd671"/>
      <path id="Path_945" data-name="Path 945" d="M1365.8,1066.769c.032-.461-1.732-3.831-.793-4.005l9.92-3.233c.854-.425,1.428,3.362,1.719,3.7.8.846-10.09,3.552-10.236,3.848a.484.484,0,0,1-.611-.312" transform="translate(1802.65 -2646.111)" fill="#ffd671"/>
      <path id="Path_946" data-name="Path 946" d="M1203.853,1052.543c.348-.308,1.489-3.937,2.27-3.394l9.3,4.729c.9.3-1.367,3.386-1.4,3.831-.028,1.165-9.649-4.624-9.956-4.515a.485.485,0,0,1-.214-.651" transform="translate(1898.472 -2639.916)" fill="#ffd671"/>
      <path id="Path_948" data-name="Path 948" d="M1252.484,1520.261l-2.715.765c-3.115-3.184-6.328-4.677-10.523,0-.676-4.875-5.28-10.438-9.718-4.709-3.148-4.454-11.134-3.423-15.305.749-5.692-3.944-10.741-2.007-13.958,3.407-5.227-.453-11.5-3.783-28.134-36.751-14.241-30.545-5.51-56.891-5.51-56.891,3.152.441,12.121,1.715,15.394,2.181,1.889,17.344,64.371,84.822,70.468,91.251" transform="translate(1922.186 -2864.831)" fill="#ffd671"/>
      <path id="Path_949" data-name="Path 949" d="M1214.92,1516.471c-.449.356-.7.595-.7.595-5.692-3.944-10.741-2.007-13.958,3.407-5.227-.453-11.5-3.783-28.134-36.751-14.241-30.545-5.51-56.891-5.51-56.891l4.9.692c3.5,9.358-2.763,32.491,24.286,68.737a146.265,146.265,0,0,0,19.112,20.212" transform="translate(1922.186 -2864.831)" fill="#ffb469"/>
      <path id="Path_950" data-name="Path 950" d="M1275.442,1575.129a8.107,8.107,0,0,0-2.4,2.007,8.652,8.652,0,0,0-7.529-2.937c-9.965-10.515-22.773-34.595-28.409-44.669a.373.373,0,0,1,.639-.384c9.18,13.331,22.441,35.153,37.7,45.984" transform="translate(1878.672 -2925.649)" fill="#ffb469"/>
      <path id="Path_951" data-name="Path 951" d="M1350.5,1654.563a15.262,15.262,0,0,0-1.473,1.351,5.683,5.683,0,0,0-.68-2.545c.716.409,1.436.813,2.152,1.194" transform="translate(1812.403 -2999.719)" fill="#fff"/>
      <path id="Path_952" data-name="Path 952" d="M1132.747,1372.07s-13.719,5.045-13.367,26.479,4.636,26.026,5.413,23.6,2.282-14.193,6.251-20.961,8.265-7.63,8.265-7.63l-6.562-21.487" transform="translate(1948.742 -2832.225)" fill="#ffb469"/>
      <path id="Path_953" data-name="Path 953" d="M1218.65,1374.7s13.351,5.955,11.555,27.317-6.372,25.654-6.987,23.178-1.319-14.31-4.827-21.333-7.731-8.169-7.731-8.169l7.99-20.993" transform="translate(1894.387 -2833.792)" fill="#ffb469"/>
      <path id="Path_954" data-name="Path 954" d="M1183.618,1224.717c-.566,16.183-9.75,41.906-16.308,58.238-2.164,6.413-4.345,9.863-11.64,8.909a7.353,7.353,0,0,1-6.728-4.988c-5.518-16.224-14.569-46.995-13.869-63.841.332-14.678,10.968-26.71,20.386-30.99,14.577-4.725,28.911,16.527,28.158,32.673" transform="translate(1939.417 -2724.634)" fill="#9ce5e3"/>
      <path id="Path_955" data-name="Path 955" d="M1183.674,1224.722c-9.807-4.325-36.225-5.793-48.544-1.683.332-14.694,10.968-26.694,20.386-30.99,14.585-4.709,28.9,16.511,28.158,32.673" transform="translate(1939.36 -2724.638)" fill="#00a9ac"/>
      <path id="Path_956" data-name="Path 956" d="M1189.17,1302.011c-.631,12.469-19.189,11.842-18.982-.639.635-12.469,19.193-11.842,18.982.639" transform="translate(1918.487 -2784.745)" fill="#fff"/>
      <path id="Path_957" data-name="Path 957" d="M1190.482,1305.953c-.449,8.815-13.569,8.375-13.424-.453.449-8.815,13.573-8.375,13.424.453" transform="translate(1914.396 -2788.781)" fill="#9ce5e3"/>
      <path id="Path_958" data-name="Path 958" d="M1184.217,1373.142c-2.334,6.659-4.673,12.74-6.55,17.4-1.578,4.474-3.471,9.24-8.868,9-3.88.259-8.249-.955-9.5-5.081-1.663-4.916-4.321-13.116-6.87-22.4,8.581,3.3,24.015,3.528,31.787,1.072" transform="translate(1929.059 -2832.225)" fill="#00a9ac"/>
      <g id="Group_46" data-name="Group 46" transform="translate(3075.651 -1486.481)" clip-path="url(#clip-path-3)">
        <g id="Group_45" data-name="Group 45" transform="translate(0.004 0.142)" clip-path="url(#clip-path-4)">
          <path id="Path_959" data-name="Path 959" d="M1138.01,1333.538h5.842V1307.35h-5.842Zm0,0" transform="translate(-1138.01 -1307.35)" fill="#a1bebe"/>
        </g>
      </g>
      <path id="Path_962" data-name="Path 962" d="M1148.972,1310.175a43.026,43.026,0,0,1-6.878-1.788,245.712,245.712,0,0,1-5.842-26.188,84.459,84.459,0,0,1-1.165-15.232v-.028a55.631,55.631,0,0,1,9.167-1.829c-3.079,15.256.186,34.4,4.717,45.065" transform="translate(1939.403 -2768.538)" fill="#7db6b6"/>
      <path id="Path_963" data-name="Path 963" d="M1144.3,1222.191a55.606,55.606,0,0,0-9.168,1.829c.324-14.694,10.972-26.694,20.386-30.99a76.388,76.388,0,0,0-11.219,29.161" transform="translate(1939.36 -2725.62)" fill="#649293"/>
      <path id="Path_964" data-name="Path 964" d="M1177.667,1390.547c-2.181,6.453-4.341,9.847-11.64,8.909a7.354,7.354,0,0,1-6.728-4.988c-1.663-4.916-4.321-13.116-6.87-22.4a43.114,43.114,0,0,0,6.886,1.792,84.3,84.3,0,0,0,7.1,14.366c1.521,3.192,8.528,1.877,11.247,2.318" transform="translate(1929.059 -2832.225)" fill="#649293"/>
      <path id="Path_965" data-name="Path 965" d="M1182.322,1462.726c-.287,6.505-10.029,21.013-14.354,16.972-6.283-5.442-12.113-17.17-7.869-27.11a7.65,7.65,0,0,1,9.038-4.823,7.916,7.916,0,0,0,3.73.125c8.439-1.007,10.2,7.464,9.455,14.836" transform="translate(1925.355 -2877.165)" fill="#fff"/>
      <path id="Path_966" data-name="Path 966" d="M1182.322,1462.726c-.287,6.505-10.029,21.013-14.354,16.972-6.283-5.442-12.113-17.17-7.869-27.11a7.65,7.65,0,0,1,9.038-4.823,7.916,7.916,0,0,0,3.73.125c8.439-1.007,10.2,7.464,9.455,14.836" transform="translate(1925.355 -2877.165)" fill="#ffd671"/>
      <path id="Path_967" data-name="Path 967" d="M1185.614,1455.495c-.206,3.419-5.231,10.713-7.6,8.694-1.663-1.594-4.81-5.13-4.916-9.119-.17-3.932,1.262-8.209,5.676-7.222,5.7-.473,7.23,1.9,6.837,7.646" transform="translate(1916.76 -2877.26)" fill="#fff"/>
      <path id="Path_968" data-name="Path 968" d="M1185.614,1455.495c-.206,3.419-5.231,10.713-7.6,8.694-1.663-1.594-4.81-5.13-4.916-9.119-.17-3.932,1.262-8.209,5.676-7.222,5.7-.473,7.23,1.9,6.837,7.646" transform="translate(1916.76 -2877.26)" fill="#ffb469"/>
      <path id="Path_969" data-name="Path 969" d="M1766.436,1350.551c-.619,45.34-65.338,51.684-75.024,7.776-8.634-54.771,72.325-63.024,75.024-7.776" transform="translate(1608.518 -2797.031)" fill="#9ce5e3"/>
      <path id="Path_970" data-name="Path 970" d="M1711.34,1356.835c-3.427,1.473-5.486.2-7.173-1.076-1.966-1.481-3.435-2.962-5.984-.125-2.128,2.266,3.055,3.977,1.861,5.114a2.786,2.786,0,0,1-2.1.453,3.206,3.206,0,0,0-2.953.971c-1.258,3.932,5.51,3.451-3.852,7.776a38.146,38.146,0,0,1,13.529-37.467c3.208,3,5.276,1.732,4.677,6.4,0,3.063,2.662,2.4,3.584,5.648.939,3.265-3.443,2.735-1.719,5.785s3.063,5.32.125,6.522" transform="translate(1608.785 -2808.653)" fill="#649293"/>
      <path id="Path_971" data-name="Path 971" d="M1819.375,1428.09a37.935,37.935,0,0,1-30.205,28.332c-12.663-8.618-7.954-16.826,1.724-14.083,2.788,1.861,6.105-1.2,6.51-2.8.251-3.435,15.054-3.087,14.484-7.169-.255-1.873,4.531-1.732,7.489-4.284" transform="translate(1554.503 -2865.581)" fill="#649293"/>
      <path id="Path_972" data-name="Path 972" d="M1771.258,1346.016c-1.594.255,0,0-.13,2.913-.137,2.937-.53,1.2-3.188,1s-1.6-3.127-1.469-7.38,3.318-2.383,4.127-.4c.785,1.991,2.658,1.2,3.447,1.2.805,0,6.251-.53,7.849-2.261s6.38-1.461,8.771-3.172-.668-3.6,1.206-5.733c1.849-2.128,1.189-3.063,0-5.454-1.206-2.4-1.206-2.128-4.256-.927s-1.594,2.521-4.657,4.511-3.192.53-4.127,2,.935,2.128.53,4.414-2.913.9-2.787-1.032-1.724-.854-4.519-.065c-2.8.809-3.584-6.38-2.521-6.51s2.383-1.594,3.884-5.721,3.953-.926,8.112-2.128-.3-1.456,0-6.967a37.956,37.956,0,0,1,29.4,31.568c-3.4-.987-4.944-1-4.442,3.455.138,2.254,2.529,2.533,3.326,3.455s-.263.8-1.457.927c-2.488,1.416,1.724,6.417-7.582,5.988-1.991.138-.672-2.8,2.593-5.583s-.607-2.925-.073-6.255-2.128-3.851-3.054.4-3.985,2-5.988,2.533c-4.446,1.108,7.274,6.89-1.986,12.23-4.519,2.383-7.306-1.6-9.964-5.458s3.05-5.049,3.05-6.222-5.85-2.423-8.508-5.211-2.266,0-3.423.267c-1.173.267-.566-.672-2.16-.392" transform="translate(1563.631 -2797.834)" fill="#649293"/>
      <path id="Path_973" data-name="Path 973" d="M1706.5,1439.865a4.608,4.608,0,0,1-4.228-.142c-1.521-.684-2.557-1.371-3.835,1.622a37.842,37.842,0,0,1-4.123-9.135c1.707-.987,3.026.134,4.345,1.254s2.614,2.217,4.3,1.286c2.84-.906,7.262,3.168,3.54,5.114" transform="translate(1606.408 -2867.808)" fill="#649293"/>
      <path id="Path_974" data-name="Path 974" d="M1712,1415.554s-.708-7.687,3.37-3.224c4.313,4.863-4.6,7.181-3.37,3.224" transform="translate(1595.946 -2855.368)" fill="#649293"/>
      <path id="Path_975" data-name="Path 975" d="M1728.731,1453.974a36.692,36.692,0,0,1-26.224-10.466,37.481,37.481,0,0,0,26.423,10.43,41.467,41.467,0,0,0,6.562-.526l0,0a41.171,41.171,0,0,1-6.764.558m-33.555-20.876a35.2,35.2,0,0,1-3.156-9.588c.045.21.089.425.138.639.235,1.06.5,2.1.8,3.1,0,0-.008,0-.008.008.194.664.413,1.319.647,1.966a39.17,39.17,0,0,0,1.582,3.876" transform="translate(1607.772 -2862.854)" fill="#a3c0bf"/>
      <path id="Path_976" data-name="Path 976" d="M1729.131,1404.892a37.481,37.481,0,0,1-26.422-10.43,34.991,34.991,0,0,1-5.433-7.116c.72-1.7,1.367-2.213,2.071-2.213a4.8,4.8,0,0,1,1.76.591,5.408,5.408,0,0,0,2.294.595,4.536,4.536,0,0,0,1.934-.453c3.358-1.756.085-5.243-2.674-5.243a2.8,2.8,0,0,0-.866.13,2.6,2.6,0,0,1-1.258.348,5.151,5.151,0,0,1-3.042-1.634,5.151,5.151,0,0,0-3.038-1.635,2.586,2.586,0,0,0-1.3.372c-.3-1-.562-2.039-.8-3.1,9.358-4.325,2.593-3.844,3.852-7.776a2.819,2.819,0,0,1,2.444-.979c.17,0,.34,0,.51.008s.332.008.494.008a2.194,2.194,0,0,0,1.6-.461c1.194-1.137-3.989-2.848-1.861-5.114a3.818,3.818,0,0,1,2.723-1.61,2.481,2.481,0,0,1,.822.15c4.454,16.689,20.6,28.3,37.463,28.3a35.965,35.965,0,0,0,4.009-.223,1.227,1.227,0,0,0-.081.36,5.484,5.484,0,0,1-4.624,3.378,3.323,3.323,0,0,1-1.885-.583,13.185,13.185,0,0,0-3.588-.538c-6.951,0-9.05,6.975,1.456,14.338a41.464,41.464,0,0,1-6.562.526m-27.474-35.513c-1.707,0-1.282,4.616-1.282,4.616a1.388,1.388,0,0,0,1.457,2.007c1.95,0,4.705-2.079,1.914-5.231-.918-1-1.594-1.392-2.088-1.392m-4.4,17.939a32.265,32.265,0,0,1-1.877-3.265,39.167,39.167,0,0,1-1.582-3.876,37.906,37.906,0,0,0,3.459,7.141m-3.415-32.835A35.455,35.455,0,0,1,1702,1341.14a38.2,38.2,0,0,0-8.164,13.343" transform="translate(1607.57 -2813.809)" fill="#7db7b7"/>
      <path id="Path_977" data-name="Path 977" d="M1691.278,1373.591c-.048-.214-.093-.429-.137-.639a40.009,40.009,0,0,1,1.618-19.982,38.209,38.209,0,0,1,8.164-13.343c.344-.352.7-.692,1.064-1.028a37.134,37.134,0,0,0-.125,19.217,2.479,2.479,0,0,0-.822-.15,3.818,3.818,0,0,0-2.723,1.61c-2.128,2.266,3.055,3.977,1.861,5.114a2.194,2.194,0,0,1-1.6.461c-.162,0-.328,0-.494-.008s-.34-.008-.51-.008a2.82,2.82,0,0,0-2.444.979c-1.258,3.932,5.506,3.451-3.852,7.776" transform="translate(1608.651 -2812.296)" fill="#649293"/>
      <path id="Path_978" data-name="Path 978" d="M1852.75,1453.917a35.047,35.047,0,0,0,7.205-11.057,34.318,34.318,0,0,1-7.205,11.057" transform="translate(1512.069 -2874.376)" fill="#aac3c4"/>
      <path id="Path_979" data-name="Path 979" d="M1840.24,1450.525a37.927,37.927,0,0,0,13.933-20.625,35.734,35.734,0,0,1-1.667,5.243,35.048,35.048,0,0,1-7.205,11.057,35.96,35.96,0,0,1-5.061,4.325" transform="translate(1519.518 -2866.659)" fill="#7db7b7"/>
      <path id="Path_980" data-name="Path 980" d="M1788.764,1456.989l0,0c-10.507-7.363-8.407-14.338-1.456-14.338a13.186,13.186,0,0,1,3.589.538,3.322,3.322,0,0,0,1.885.583,5.483,5.483,0,0,0,4.624-3.378,1.228,1.228,0,0,1,.081-.36,36.709,36.709,0,0,0,21.742-10.519l-.036.158a37.929,37.929,0,0,1-13.934,20.625,39.889,39.889,0,0,1-16.49,6.7" transform="translate(1554.503 -2866.427)" fill="#649293"/>
      <path id="Path_981" data-name="Path 981" d="M1698.437,1441.345l0,0a.084.084,0,0,0-.016-.024,37.913,37.913,0,0,1-3.459-7.141c-.234-.647-.453-1.3-.647-1.966,0,0,0,0,.008-.008a2.586,2.586,0,0,1,1.3-.372,5.152,5.152,0,0,1,3.038,1.635,5.151,5.151,0,0,0,3.042,1.634,2.6,2.6,0,0,0,1.258-.348,2.8,2.8,0,0,1,.866-.13c2.759,0,6.032,3.487,2.674,5.243a4.537,4.537,0,0,1-1.934.453,5.4,5.4,0,0,1-2.294-.595,4.8,4.8,0,0,0-1.76-.591c-.7,0-1.351.51-2.071,2.213" transform="translate(1606.408 -2867.808)" fill="#649293"/>
      <path id="Path_982" data-name="Path 982" d="M1713.453,1417.563a1.388,1.388,0,0,1-1.456-2.007s-.425-4.616,1.282-4.616c.494,0,1.169.389,2.088,1.392,2.792,3.152.036,5.231-1.914,5.231" transform="translate(1595.947 -2855.37)" fill="#649293"/>
      <path id="Path_983" data-name="Path 983" d="M1707.6,1088.911c-.955.5-18.06,44.936-20.435,42.245-4.312-.554-16.377-2.015-23.574-1.885a48.749,48.749,0,0,0-12.226,1.61,2.151,2.151,0,0,1-2.391-.914c-2.027-3.152-7.246-10.746-12.271-13.739-4.721-2.812-12.918-5.13-16.915-6.158a2.147,2.147,0,0,1-1.473-2.844c.951-.6,15.908-47.428,18.542-44.964,12.505.833,26.556,4.082,30.772,18.55a2.148,2.148,0,0,0,2.654,1.319c6.008-1.861,24.238-6.247,36.719,4.232a2.171,2.171,0,0,1,.6,2.549" transform="translate(1651.743 -2647.701)" fill="#47617f"/>
      <path id="Path_984" data-name="Path 984" d="M1619.929,1100.854c29.8,4.831,26.625,22.195,33.49,20.573,14.176-2.844,21.75-1.881,26.236-.914,10.333,2.217,4.264,4.438,24.788-39.9a3.362,3.362,0,0,0-1.922-4.5c-8.419-3.147-24.185-2.1-29.87-1.59a3.34,3.34,0,0,1-3.148-1.586c-1.825-3.01-5.891-9.107-10.935-12.9-4.078-3.277-24.084-7.157-25.743-2.4l-15.382,38.689a3.338,3.338,0,0,0,2.484,4.523" transform="translate(1652.319 -2643.683)" fill="#f9f1ea"/>
      <path id="Path_985" data-name="Path 985" d="M1733.931,1216.084a3.348,3.348,0,0,1-1.044-.166,47.022,47.022,0,0,0-12.534-2,43.419,43.419,0,0,1,9.03.967,31.193,31.193,0,0,0,4.871.967,3.027,3.027,0,0,0,2.686-1.667,3.336,3.336,0,0,1-3.01,1.9m-31.787-.125a3.276,3.276,0,0,1-1.424-.328l.065-.15a2.835,2.835,0,0,0,1.5.425,3.6,3.6,0,0,0,.85-.105,3.254,3.254,0,0,1-1,.158" transform="translate(1602.592 -2738.059)" fill="#657285"/>
      <path id="Path_986" data-name="Path 986" d="M1832.654,1117.864l0,0c.024-.052.053-.117.077-.17l-.073.174" transform="translate(1524.037 -2680.76)" fill="#e7e3df"/>
      <path id="Path_987" data-name="Path 987" d="M1806.29,1142.38c2.439-5.882,5.8-13.764,10.665-24.27l0,0-10.669,24.266" transform="translate(1539.732 -2681.01)" fill="#657285"/>
      <path id="Path_988" data-name="Path 988" d="M1780.778,1103.284c-3.641-1.258-8.524-1.792-13.359-1.954,5.28.024,10.414.437,13.359,1.954m-29.712-1.408a3.293,3.293,0,0,1-1.646-.445l0,0a7.542,7.542,0,0,0,2.917.32c.138,0,.279,0,.425,0-.51.04-.975.081-1.388.117a2.69,2.69,0,0,1-.312.016" transform="translate(1573.594 -2671.019)" fill="#e7e3df"/>
      <path id="Path_989" data-name="Path 989" d="M1702.385,1148.867a2.835,2.835,0,0,1-1.505-.425l19.638-47.011a3.293,3.293,0,0,0,1.647.445,2.686,2.686,0,0,0,.311-.016c.413-.036.878-.077,1.388-.117,1.634-.016,3.73-.109,6.06-.206,2.537-.1,5.349-.206,8.14-.206h.453c4.834.162,9.718.7,13.359,1.954,1.954,1,2.949,2.488,2.391,4.665-.024.053-.053.117-.077.17-4.863,10.507-8.225,18.388-10.664,24.27l-6.445,14.666c-.016.032-.028.061-.044.093a3.027,3.027,0,0,1-2.686,1.667,31.171,31.171,0,0,1-4.871-.967,43.428,43.428,0,0,0-9.03-.967q-1.28-.055-2.678-.053a47.34,47.34,0,0,0-14.528,1.934h-.008a3.6,3.6,0,0,1-.849.105" transform="translate(1602.497 -2671.019)" fill="#e3d9d0"/>
      <path id="Path_990" data-name="Path 990" d="M1782.287,1119.863a45.907,45.907,0,0,0-19.2-1.473c-1.885.251-1.865-2.714,0-2.957a47.806,47.806,0,0,1,19.982,1.578c1.825.534,1.048,3.395-.785,2.852" transform="translate(1566.292 -2679.167)" fill="#ad9d92"/>
      <path id="Path_991" data-name="Path 991" d="M1770.277,1135.134c-4.369-.805-8.723-1.408-13.116-.437-1.857.413-2.646-2.44-.785-2.852,4.924-1.092,9.787-.469,14.686.433,1.873.344,1.08,3.2-.785,2.856" transform="translate(1570.085 -2688.842)" fill="#ad9d92"/>
      <path id="Path_992" data-name="Path 992" d="M1762.8,1157.345a36.77,36.77,0,0,0-20.435-1.918c-1.861.356-2.658-2.5-.789-2.856a39.653,39.653,0,0,1,22.013,1.922c1.756.68.991,3.544-.789,2.852" transform="translate(1578.902 -2701.085)" fill="#ad9d92"/>
      <path id="Path_993" data-name="Path 993" d="M1760.074,1173.229a49.218,49.218,0,0,0-7.141-.967c-1.893-.113-1.906-3.075,0-2.957a54.523,54.523,0,0,1,7.929,1.072c1.861.392,1.072,3.245-.789,2.852" transform="translate(1572.351 -2711.491)" fill="#ad9d92"/>
      <path id="Path_994" data-name="Path 994" d="M1677.1,1154.936c-.243-1.764-4.013-3.6-5.458-4.442a31.647,31.647,0,0,0-6.817-2.9c-1.82-.546-1.048-3.406.785-2.856,4.564,1.61,12.615,4.6,14.346,9.41.259,1.865-2.593,2.67-2.856.789" transform="translate(1624.584 -2696.823)" fill="#ad9d92"/>
      <path id="Path_995" data-name="Path 995" d="M1674.324,1099.836a2.048,2.048,0,0,1-1.384-.534c-4.39-5.041-16.948-9.629-23.04-10.838a2.07,2.07,0,0,1-1.4-2.792l7.137-17.55c.4-.866,1.55-1.222,3.107-1.222,4.337,0,11.866,2.767,15.515,5.089,5.3,3.957,10.131,8,9.337,10.923l-7.391,15.73a2.066,2.066,0,0,1-1.881,1.194" transform="translate(1633.778 -2650.519)" fill="#e3d9d0"/>
      <path id="Path_996" data-name="Path 996" d="M1721.664,1101.877l-18.861,46.493v27.6l-3.038-4.3-2.735,2.735v-25.217l21.2-47.618,3.435.307" transform="translate(1604.789 -2671.162)" fill="#ff7391"/>
    </g>
  </g>
</svg>
