<svg xmlns="http://www.w3.org/2000/svg" width="438.401" height="442.115" viewBox="0 0 438.401 442.115">
  <g id="Group_30611" data-name="Group 30611" transform="translate(18 -93.748)">
    <path id="Path_997" data-name="Path 997" d="M2173.326,303.3c67.232,26.408,121.569,36.723,118.184,131.628s-30.854,190.4-106.792,183.8-185.733-176.606-195.406-240.976S2106.094,276.887,2173.326,303.3Z" transform="matrix(0.788, -0.616, 0.616, 0.788, -1766.573, 1272.469)" fill="#00b5d8" opacity="0.1"/>
    <g id="Group_47" data-name="Group 47" transform="translate(-2931.313 2659.896)">
      <path id="Path_439" data-name="Path 439" d="M1156.669,669.446s-14.627-10.394-17.739-19.14-4.129-5.432-12.96-11.788-11.544-6.807-14.989-18.01-15.552-24.4-13.777-25.209,10.8,10.2,17.4,11.315,11.627,3.092,15.893,9.357,6.737,9.665,14.64,12.181,23.092,19.39,31.4,32.479,8.62,35.136-1.65,26.812a143.881,143.881,0,0,1-18.222-18" transform="translate(1860.24 -2893.201)" fill="#cfe58c"/>
      <path id="Path_440" data-name="Path 440" d="M1212.257,701.679c-11.6.034-56.824-54.965-57.837-57.086a.343.343,0,0,1,.487.037c1.6,1.6,46.068,56.341,57.32,56.391a.347.347,0,0,1,.029.657" transform="translate(1826.756 -2921.936)" fill="#60a555"/>
      <path id="Path_441" data-name="Path 441" d="M1160.061,798.29c-19.205-8.357-43.781-8.861-44.281-9.732.662-.945,24.78,1.076,44.3,9.091a.348.348,0,0,1-.021.641" transform="translate(1849.299 -3005.848)" fill="#374d6d"/>
      <path id="Path_442" data-name="Path 442" d="M1092.8,783.482a19.514,19.514,0,0,0-8.82-2.967c-4.837-.265-11.552-1.186-10.407.747s12.89,4.64,19.226,2.22" transform="translate(1874 -3001.018)" fill="#cfe58c"/>
      <path id="Path_443" data-name="Path 443" d="M1126.7,777.247a18.378,18.378,0,0,0-8.44-7.928c-5.841-2.571-7.341-2.675-6.324-.849s6.124,5.365,14.764,8.778" transform="translate(1851.712 -2993.528)" fill="#cfe58c"/>
      <path id="Path_444" data-name="Path 444" d="M1120.125,790.829s-5.024,4.321-10.89,4.5-4.624-1.715-2.608-2.708,4.97-4.225,13.5-1.8" transform="translate(1855.615 -3006.781)" fill="#cfe58c"/>
      <path id="Path_445" data-name="Path 445" d="M1165.125,778.492s-12.2-5.512-13.831-10.586-.192-4.9,6.982.137,9.215,11.016,6.849,10.449" transform="translate(1828.933 -2991.752)" fill="#cfe58c"/>
      <path id="Path_446" data-name="Path 446" d="M1153.952,798.75s-11.252.166-16.068,2.521-.271,5.386,7.416,3.924a92.821,92.821,0,0,0,15.494-4.669l-6.841-1.776" transform="translate(1837.56 -3011.919)" fill="#60a555"/>
      <path id="Path_447" data-name="Path 447" d="M1197.44,825.267c-5.953-2.225-37.94-13.686-48.613-5.357l4.191,5.614-6.786-.607-7.111,12.3a52.1,52.1,0,0,1,11.948-.262c6.428.629,12.469,1.2,22.2-2.716s24.167-8.973,24.167-8.973" transform="translate(1835.682 -3022.518)" fill="#327f61"/>
      <path id="Path_448" data-name="Path 448" d="M1216.891,826.507c-7.628-.387-20.938,5.029-21.6,4.27.279-1.025,14.06-4.865,21.5-4.937a.345.345,0,0,1,.1.667" transform="translate(1802.913 -3027.724)" fill="#374d6d"/>
      <path id="Path_449" data-name="Path 449" d="M1209.005,773.173l-7.178,2.558c-25.3-7.3-42.456-19.468-55.187-43.278,25.225-3.932,55.217,18.851,65.873,39.47l-3.508,1.25" transform="translate(1831.295 -2972.982)" fill="#60a555"/>
      <path id="Path_450" data-name="Path 450" d="M1238.142,789.94c-.758.008-5.316-6.433-17.26-16.007-11.9-9.945-24.225-12.578-24.492-13.66.808-.763,12.744,3.7,24.925,13.126,11.736,9.987,17.5,15.628,16.827,16.541" transform="translate(1802.271 -2989.424)" fill="#374d6d"/>
      <path id="Path_451" data-name="Path 451" d="M1728.967,669.446s14.627-10.394,17.739-19.14,4.129-5.432,12.961-11.788,11.544-6.807,14.989-18.01,15.552-24.4,13.781-25.209-10.807,10.2-17.406,11.315-11.627,3.092-15.893,9.357-6.736,9.665-14.64,12.181-23.092,19.39-31.4,32.479-8.62,35.136,1.65,26.812a143.891,143.891,0,0,0,18.222-18" transform="translate(1506.749 -2893.201)" fill="#cfe58c"/>
      <path id="Path_452" data-name="Path 452" d="M1712.037,701.679c11.6.034,56.824-54.965,57.837-57.086a.343.343,0,0,0-.488.037c-1.6,1.6-46.068,56.341-57.32,56.391a.347.347,0,0,0-.029.657" transform="translate(1501.574 -2921.936)" fill="#60a555"/>
      <path id="Path_453" data-name="Path 453" d="M1783.218,798.29c19.205-8.357,43.781-8.861,44.281-9.732-.662-.945-24.78,1.076-44.3,9.091a.348.348,0,0,0,.021.641" transform="translate(1460.047 -3005.848)" fill="#374d6d"/>
      <path id="Path_454" data-name="Path 454" d="M1885.7,783.482a19.515,19.515,0,0,1,8.82-2.967c4.837-.265,11.552-1.186,10.407.747s-12.89,4.64-19.226,2.22" transform="translate(1400.13 -3001.018)" fill="#cfe58c"/>
      <path id="Path_455" data-name="Path 455" d="M1857.81,777.247a18.379,18.379,0,0,1,8.44-7.928c5.841-2.571,7.341-2.675,6.324-.849s-6.124,5.365-14.764,8.778" transform="translate(1416.401 -2993.528)" fill="#cfe58c"/>
      <path id="Path_456" data-name="Path 456" d="M1864.23,790.829s5.028,4.321,10.89,4.5,4.624-1.715,2.608-2.708-4.97-4.225-13.5-1.8" transform="translate(1412.655 -3006.781)" fill="#cfe58c"/>
      <path id="Path_457" data-name="Path 457" d="M1818.944,778.492s12.2-5.512,13.831-10.586.192-4.9-6.982.137-9.215,11.016-6.849,10.449" transform="translate(1439.623 -2991.752)" fill="#cfe58c"/>
      <path id="Path_458" data-name="Path 458" d="M1816.791,798.75s11.252.166,16.068,2.521.271,5.386-7.416,3.924a92.822,92.822,0,0,1-15.493-4.669l6.841-1.776" transform="translate(1444.322 -3011.919)" fill="#60a555"/>
      <path id="Path_459" data-name="Path 459" d="M1726.49,825.267c5.953-2.225,37.94-13.686,48.613-5.357l-4.191,5.614,6.786-.607,7.111,12.3a52.1,52.1,0,0,0-11.948-.262c-6.428.629-12.469,1.2-22.2-2.716s-24.167-8.973-24.167-8.973" transform="translate(1493.012 -3022.518)" fill="#327f61"/>
      <path id="Path_460" data-name="Path 460" d="M1758.146,826.507c7.628-.387,20.938,5.029,21.6,4.27-.279-1.025-14.06-4.865-21.5-4.937a.345.345,0,0,0-.1.667" transform="translate(1474.675 -3027.724)" fill="#374d6d"/>
      <path id="Path_461" data-name="Path 461" d="M1704.352,773.173l7.174,2.558c25.3-7.3,42.456-19.468,55.188-43.278-25.225-3.932-55.217,18.851-65.873,39.47l3.512,1.25" transform="translate(1507.976 -2972.982)" fill="#60a555"/>
      <path id="Path_462" data-name="Path 462" d="M1708.916,789.94c.758.008,5.316-6.433,17.264-16.007,11.9-9.945,24.221-12.578,24.488-13.66-.808-.763-12.744,3.7-24.925,13.126-11.736,9.987-17.5,15.628-16.827,16.541" transform="translate(1503.296 -2989.424)" fill="#374d6d"/>
      <path id="Path_463" data-name="Path 463" d="M1534.93,297.013c-24.117-18.431-5.445-76.1,30.941-57.929,5.174-16.885,48.984-13.139,44.285,10.6l-1.2,7.061c11.773,2.775,10.723,16.117,5.812,23.071,13.485,11.077-9.807,23.671-15.7,23.4l-64.136-6.2" transform="translate(1611.091 -2679.339)" fill="#3d2e56"/>
      <path id="Path_464" data-name="Path 464" d="M1634.789,467.2a134.1,134.1,0,0,0-.825,13.968c-.25,3.188.821,6.137-.029,9.146-1.516,4.8-8.495,9.072-12.411,10.906-3.045-1.342-10.478-5.783-12.231-10.444-1.171-3.042.058-6.112-.2-9.386a138.593,138.593,0,0,0-.817-14.189c.075-.013,13.181-1.471,13.244-1.487.054.011,13.206,1.479,13.265,1.487" transform="translate(1561.976 -2817.625)" fill="#ffc3b3"/>
      <path id="Path_465" data-name="Path 465" d="M1634.778,467.194s-.308,2.721-.55,6.407c-2.433,3.859-6.549,8.209-12.76,8.209-6.524,0-10.473-4.28-12.623-7.829-.246-3.878-.575-6.786-.575-6.786.067,0,13.194-1.475,13.252-1.483.046.008,13.206,1.479,13.256,1.483" transform="translate(1561.981 -2817.625)" fill="#f27584"/>
      <path id="Path_466" data-name="Path 466" d="M1527.144,381.94c-17.085-8.973-17.418,19.268-3.6,23.367,16.11,3.258,9.636-17.735,3.6-23.367" transform="translate(1617.149 -2767.732)" fill="#ffc3b3"/>
      <path id="Path_467" data-name="Path 467" d="M1530.25,387.986a10.934,10.934,0,0,0-2.65-3.886c-7.078-4.534-16.135.107-12.985,12.681-4.87-12.2,3.479-20.28,12.223-14.822a12.67,12.67,0,0,1,3.412,6.027" transform="translate(1617.459 -2767.751)" fill="#ffd7b6"/>
      <path id="Path_468" data-name="Path 468" d="M1532.989,411.5a2.731,2.731,0,0,1-.808-.163c-3.008-.957-6.986-5.919-6.986-5.919-1.3-3.8-.058-5.012,1.971-5.012,2.67,0,6.7,2.1,8.082,3.183,2.429,1.9,1.891,4.786-.737,4.911-2.325.109,0,3-1.521,3" transform="translate(1610.758 -2779.529)" fill="#faa8a3"/>
      <path id="Path_469" data-name="Path 469" d="M1524.921,406.475c-6.953-5.056,2.041-10.543,9.015-3.307.371.412-.383.8-.679.454-5.32-5.662-13.66-3.084-8.1,2.19.392.205.138.692-.237.662" transform="translate(1612.069 -2779.104)" fill="#f27584"/>
      <path id="Path_470" data-name="Path 470" d="M1533.971,401.467c-4.316-.617-3.616,4.478-.475,5.766,1.812.692,3.858.117,3.829-1.632s-1.65-3.255-3.354-4.134" transform="translate(1607.098 -2780.115)" fill="#f27584"/>
      <path id="Path_471" data-name="Path 471" d="M1725.868,386.947c17.085-8.973,17.422,19.265,3.6,23.367-16.11,3.258-9.636-17.733-3.6-23.367" transform="translate(1497.188 -2770.653)" fill="#ffc3b3"/>
      <path id="Path_472" data-name="Path 472" d="M1726.82,393a10.912,10.912,0,0,1,2.654-3.888c7.074-4.532,16.131.109,12.981,12.682,4.874-12.2-3.474-20.28-12.223-14.824A12.705,12.705,0,0,0,1726.82,393" transform="translate(1492.82 -2770.673)" fill="#ffd7b6"/>
      <path id="Path_473" data-name="Path 473" d="M1746.91,414.8a21.389,21.389,0,0,0,1.9-8.008,2.37,2.37,0,0,1,2.016,1.733,5.915,5.915,0,0,1-.108,1.146,6.2,6.2,0,0,1-1.7,2.379.335.335,0,0,0,.025.62c-.583.635-1.329,1.4-2.137,2.13" transform="translate(1481.099 -2783.25)" fill="#faa8a3"/>
      <path id="Path_474" data-name="Path 474" d="M1739.79,411.485c6.949-5.058-2.046-10.544-9.02-3.308-.371.413.387.8.683.454,5.316-5.661,13.656-3.082,8.095,2.192-.391.2-.137.687.242.662" transform="translate(1490.574 -2782.026)" fill="#f27584"/>
      <path id="Path_475" data-name="Path 475" d="M1738.063,406.467c4.316-.617,3.62,4.483.479,5.771-1.812.692-3.862.117-3.833-1.634s1.65-3.253,3.354-4.137" transform="translate(1488.217 -2783.032)" fill="#f27584"/>
      <path id="Path_476" data-name="Path 476" d="M1619.756,366.634l.417-.216c-3.458,36.541-64.544,36.386-67.919,0h.008a77.262,77.262,0,0,1-4.762-20.968c4.87-14.643,29.321-20.534,38.544-20.1,9.274-.42,33.657,5.453,38.548,20.106a76.927,76.927,0,0,1-4.837,21.18" transform="translate(1597.435 -2735.725)" fill="#ffc3b3"/>
      <path id="Path_477" data-name="Path 477" d="M1640.143,466.781v.012l-.063-.008Zm0,0" transform="translate(1543.424 -2818.25)" fill="#fff"/>
      <path id="Path_478" data-name="Path 478" d="M1639.987,466.784l-.067.008v-.012Zm0,0" transform="translate(1543.517 -2818.25)" fill="#fff"/>
      <path id="Path_479" data-name="Path 479" d="M1582.61,369.534c.675.916,1.633,2.7,3.029,1.867l10.311-5.65a1.545,1.545,0,0,0,.475-2.308c-.7-.833-1.621-2.57-2.966-1.87-2.054,1.328-12.586,4.444-10.848,7.961" transform="translate(1577.064 -2756.777)" fill="#3d2e56"/>
      <path id="Path_480" data-name="Path 480" d="M1681.664,370.778c-.675.916-1.633,2.7-3.029,1.867l-10.311-5.65a1.545,1.545,0,0,1-.475-2.308c.7-.833,1.62-2.575,2.966-1.875,2.054,1.333,12.586,4.446,10.848,7.966" transform="translate(1527.415 -2757.5)" fill="#3d2e56"/>
      <path id="Path_481" data-name="Path 481" d="M1635.137,422.584a4.976,4.976,0,0,1-2.854-.887c-.767-.267.025-4.612.8-3.178-.408,1.178-.646,2.607-.317,2.861.883,1.108,4.916.709,5.3-.27a23.644,23.644,0,0,0-.492-2.607c.758-1.279,1.042,1.912,1.15,2.612-.008.791-2.366,1.47-3.587,1.47" transform="translate(1548.155 -2789.91)" fill="#f27584"/>
      <path id="Path_482" data-name="Path 482" d="M1631.082,441.825c-3.308,2.134-7.578,3.424-11.5,2.65-5.016-.617-11.827-6.2-9.648-11.318.8-1.514,2.4-1.209,4.137-.48a15.15,15.15,0,0,0,16.41-.03c6.807-2.778,4.7,6.729.6,9.178" transform="translate(1561.254 -2798.002)" fill="#ce307f"/>
      <path id="Path_483" data-name="Path 483" d="M1635.814,438.709a12.466,12.466,0,0,1-2.991,1.079c-1.491-2.032-1.792-3.111-1.671.3-3.362.67-9.84-.375-11.194-1.316-1.883-.762-.471-3.9-.362-5.29a15.156,15.156,0,0,0,16.406-.025c.138,1.37,1.583,4.4-.187,5.248" transform="translate(1555.73 -2798.811)" fill="#fff"/>
      <path id="Path_484" data-name="Path 484" d="M1634.632,458.983a18.541,18.541,0,0,0,2.52-1.042c.008.008.017.02.025.03a18.4,18.4,0,0,1-2.546,1.012m-10.39-.371a13.717,13.717,0,0,1-1.241-.6.091.091,0,0,1,.021-.026c.4.23.808.443,1.221.63" transform="translate(1553.388 -2813.093)" fill="#ffc3b3"/>
      <path id="Path_485" data-name="Path 485" d="M1629.841,456.706a14.129,14.129,0,0,1-5.57-1.129c-.413-.187-.821-.4-1.221-.63,1.266-1.469,4.178-2.208,7.091-2.208,2.883,0,5.762.721,7.041,2.168a18.527,18.527,0,0,1-2.52,1.042,16.221,16.221,0,0,1-4.82.759" transform="translate(1553.359 -2810.057)" fill="#ea859d"/>
      <path id="Path_486" data-name="Path 486" d="M1553.211,355.372c1.929,14.77,1.183,16.6-5.716,2.179-.133-1.458,3.508-6.96,9.632-11.481,2.387,3.383-2.375,7.7-3.916,9.3" transform="translate(1597.439 -2747.827)" fill="#3d2e56"/>
      <path id="Path_487" data-name="Path 487" d="M1718.129,357.551h-.008c-6.9,14.456-7.641,12.561-5.716-2.179-1.542-1.6-6.3-5.919-3.916-9.3,6.132,4.521,9.773,10.023,9.64,11.481" transform="translate(1503.898 -2747.827)" fill="#3d2e56"/>
      <path id="Path_488" data-name="Path 488" d="M1545.336,326.826l2.25,2.3c-1.017-5.082,4.324-11.453,7.9-13.633,0,0,19.359-1.578,22.151-9.6,4.328,5.565,10.34,7.723,16.739,2.574,3.208,4.586,11.24,14.109,18.414,5.536a40.205,40.205,0,0,0,6.307,8.412c3.333,3.069,1.887,6.153,1.887,6.153l3.487-3.071c-3.816-12.886-30.458-43.332-53.3-31.862-16.343,6.179-32.495,23.484-25.833,33.194" transform="translate(1599.594 -2715.756)" fill="#3d2e56"/>
      <path id="Path_489" data-name="Path 489" d="M1590.366,391.274c2.158-3.112,7.911-2.345,8.307,1.762.137,1.463,2.45,1.512,2.308.03-.617-6.383-9.057-8.082-12.59-2.978-.846,1.221,1.133,2.4,1.975,1.186" transform="translate(1573.698 -2771.76)" fill="#3d2e56"/>
      <path id="Path_490" data-name="Path 490" d="M1665.344,386.072c3.554-1.846,9.632.978,11.032,4.27a.942.942,0,0,1-.825,1.378c-1.133-.216-.641-.662-1.841-1.858a3.864,3.864,0,0,1-3.741,4.788c-3.929.134-5.3-5.562-1.825-7.253a5.456,5.456,0,0,0-2,.371.938.938,0,0,1-.8-1.7" transform="translate(1528.992 -2770.823)" fill="#3d2e56"/>
      <path id="Path_491" data-name="Path 491" d="M1609.262,511.4c-6.195-2.987-8.469-8.674-5.787-18.226,0,0,.771-.016,2.079-.037.712,6.4-2.341,13.7,3.708,18.263" transform="translate(1565.427 -2833.628)" fill="#6496bf"/>
      <path id="Path_492" data-name="Path 492" d="M1653.74,513.418c9.8-6.361,6.2-11.307,6.837-20.956,7.353-2.478,5.924,19.26-6.837,20.956" transform="translate(1535.454 -2833.118)" fill="#6496bf"/>
      <path id="Path_493" data-name="Path 493" d="M1509.32,552.832a250.57,250.57,0,0,0,63.382-4.491c32.807-6.9,54.958-5.728,54.958-5.728s-16.227-36.4-25.429-42.2c-7.261-4.716-16.06-6.77-23.309-7.395,4.183,16.026-33.886,16.063-29.729.083-8.615,2.12-22.042,12.194-27.637,18.56-5.428,7.069-12.236,41.169-12.236,41.169" transform="translate(1619.709 -2833.557)" fill="#9cd1f2"/>
      <path id="Path_494" data-name="Path 494" d="M1591.65,495.052c4.128,22.176,40.51,18.077,40.694-1.306-2.866-.454-5.391-.726-5.391-.726,4.183,16.026-33.886,16.063-29.725.083a48.022,48.022,0,0,0-5.578,1.949" transform="translate(1571.677 -2833.557)" fill="#d2f0ff"/>
      <path id="Path_495" data-name="Path 495" d="M1538.924,536.192c-4.124-1.663,4.229,7.066,6.745,15.119l-3.041,26.508a.694.694,0,1,0,1.379.159l2.691-23.546c.683,1.149.267,4.535,1.662,4.649a.7.7,0,0,0,.592-.788c-1.554-10.954-9.686-21.647-10.028-22.1" transform="translate(1603.094 -2858.624)" fill="#6496bf"/>
      <path id="Path_496" data-name="Path 496" d="M1760.026,488.877s-2.041,4.006-2.041,6.856,5.916,17.073,5.916,17.073l-24.313,3.22s.983-20.293,0-23.5-5.449-9.261-3.874-13.635,24.384.992,24.313,9.987" transform="translate(1487.826 -2824.41)" fill="#ffc3b3"/>
      <path id="Path_497" data-name="Path 497" d="M1739.588,516.078s.438-9.027.438-15.993a38.411,38.411,0,0,0-.437-7.507c-.841-2.732-4.2-7.528-4.208-11.59a5.828,5.828,0,0,1,.333-2.045c.321-.89,1.533-1.379,3.254-1.512,6.961,8.828,14.7,18.327,15.152,18.331,0,0,.008,0,.008,0l4.583-3.634a12.256,12.256,0,0,0-.725,3.661c0,2.855,5.916,17.073,5.916,17.073l-24.313,3.22m20.122-26.483c-1.158-1.67-3.637-4.94-6.616-8.773,3.916,2.011,6.932,4.8,6.932,8.07v.037s-.125.249-.317.666" transform="translate(1487.826 -2824.462)" fill="#faa8a3"/>
      <path id="Path_498" data-name="Path 498" d="M1743.592,468.056l6.282-4.98c.354-.612-25.592-33.332-26.267-33.128l-6.282,4.983c-.354.612,25.592,33.333,26.267,33.125" transform="translate(1498.361 -2796.761)" fill="#3d2e56"/>
      <path id="Path_499" data-name="Path 499" d="M1650.237,383.3c-13.423-17.535,12.3-37.937,26.312-20.868,13.427,17.535-12.306,37.927-26.312,20.868m-4.874,3.865c19.189,23.372,54.45-4.583,36.061-28.6-19.2-23.38-54.446,4.591-36.061,28.6" transform="translate(1543.348 -2749.987)" fill="#6496bf"/>
      <path id="Path_500" data-name="Path 500" d="M1671.709,398.459a15.538,15.538,0,0,1-10.244-3.9,2.012,2.012,0,0,0-1.716-1.666c-.25-.27-.5-.558-.737-.853-6.716-8.775-3.629-18.264,2.883-23.423l9.582,5.25a1.4,1.4,0,0,0,.717.216c1.016,0,1.762-1.333,2.312-2.083,1.217-2.467-3.583-4.732-7.278-6.324a16.416,16.416,0,0,1,5.4-.934c.162,0,.329,0,.492.01a15.309,15.309,0,0,1,7.47,2.236,20.62,20.62,0,0,0-9.6-2.108h-.333c14.552,7.486,9.828,30.37-6.432,31.52a21.7,21.7,0,0,0,8.7,2h.162q-.687.061-1.375.062m-9.149-23.167c-3.433,1.675-2.137,7.256,1.687,7.253h.192a3.864,3.864,0,0,0,3.687-4.788c1.2,1.2.708,1.642,1.841,1.858h.021a.942.942,0,0,0,.8-1.378c-1.1-2.571-5.037-4.855-8.4-4.855a5.7,5.7,0,0,0-2.629.584.951.951,0,0,0,.387,1.795.918.918,0,0,0,.412-.1,5.458,5.458,0,0,1,2-.371" transform="translate(1534.575 -2758.718)" fill="#e6dcdd"/>
      <path id="Path_501" data-name="Path 501" d="M1681.5,375.387a1.4,1.4,0,0,1-.717-.216l-9.582-5.25a18.346,18.346,0,0,1,5.333-2.941c3.7,1.592,8.495,3.857,7.278,6.324-.55.75-1.3,2.083-2.312,2.083" transform="translate(1525.268 -2760.026)" fill="#8f99b3"/>
      <path id="Path_502" data-name="Path 502" d="M1667.766,433.975a19.411,19.411,0,0,1-1.716-1.666,2.012,2.012,0,0,1,1.716,1.666" transform="translate(1528.273 -2798.139)" fill="#d099c5"/>
      <path id="Path_503" data-name="Path 503" d="M1669.829,394.65c-3.824,0-5.12-5.578-1.687-7.253a5.456,5.456,0,0,0-2,.371.918.918,0,0,1-.412.1.951.951,0,0,1-.387-1.795,5.7,5.7,0,0,1,2.629-.585c3.366,0,7.307,2.283,8.4,4.855a.942.942,0,0,1-.8,1.378h-.021c-1.133-.216-.641-.662-1.841-1.858a3.864,3.864,0,0,1-3.687,4.788h-.192" transform="translate(1528.993 -2770.823)" fill="#8f99b3"/>
      <path id="Path_504" data-name="Path 504" d="M1659.008,392.035c-9.857-12.869,1.391-27.3,13.615-27.3.162,0,.329,0,.491.01-.162-.005-.329-.01-.491-.01a16.413,16.413,0,0,0-5.4.934,18.34,18.34,0,0,0-5.333,2.941c-6.512,5.159-9.6,14.648-2.883,23.423" transform="translate(1534.577 -2758.718)" fill="#a0c7e2"/>
      <path id="Path_505" data-name="Path 505" d="M1733.473,390.491c-.029-.078-.054-.161-.083-.241.033.075.063.15.1.225a.045.045,0,0,1-.012.016" transform="translate(1488.987 -2773.602)" fill="#8f99b3"/>
      <path id="Path_506" data-name="Path 506" d="M1729.78,407.3c.146-.259.283-.521.417-.787.025.008.046.013.067.021-.154.259-.317.513-.483.767m2.316-7.165c.063-.542.1-1.084.117-1.629a17.816,17.816,0,0,0-.5-4.8c.033-.018.063-.038.1-.055a15.242,15.242,0,0,1,.688,6.209c-.133.088-.271.179-.4.275" transform="translate(1491.093 -2775.584)" fill="#e6dcdd"/>
      <path id="Path_507" data-name="Path 507" d="M1733.94,392.035c-.1-.413-.217-.825-.35-1.23a.045.045,0,0,0,.012-.016c.163.4.3.8.433,1.191-.033.018-.062.038-.1.055" transform="translate(1488.87 -2773.916)" fill="#e6e5de"/>
      <path id="Path_508" data-name="Path 508" d="M1730.847,416.694c-.021-.008-.042-.013-.067-.021a18.983,18.983,0,0,0,1.737-5.266c.142-.115.283-.23.429-.337-.05.292-.108.583-.175.871a3.2,3.2,0,0,0-.35,1.282,16.488,16.488,0,0,1-1.575,3.471" transform="translate(1490.509 -2785.748)" fill="#e4d0d6"/>
      <path id="Path_509" data-name="Path 509" d="M1734.95,409.937c.067-.371.121-.74.162-1.111.133-.1.271-.187.4-.275q-.05.529-.137,1.049c-.146.107-.288.222-.429.337" transform="translate(1488.077 -2784.278)" fill="#e0b9c8"/>
      <path id="Path_510" data-name="Path 510" d="M1734.72,414.442a3.2,3.2,0,0,1,.35-1.282c-.1.433-.217.862-.35,1.282" transform="translate(1488.211 -2786.968)" fill="#e0b9c8"/>
      <path id="Path_511" data-name="Path 511" d="M1729.77,405.307h0c.167-.254.329-.508.483-.767a16.489,16.489,0,0,0,1.575-3.471c.133-.42.254-.849.35-1.282.067-.288.125-.579.175-.871q.088-.52.137-1.049a15.244,15.244,0,0,0-.687-6.209c-.129-.4-.271-.791-.433-1.191-.033-.075-.062-.15-.1-.225v-.005a15.54,15.54,0,0,1-1.508,15.069" transform="translate(1491.099 -2773.595)" fill="#a0c7e2"/>
      <path id="Path_512" data-name="Path 512" d="M1698.06,441.436a17.529,17.529,0,0,0,8.111-2.9,17.5,17.5,0,0,1-8.107,2.9h0m8.128-2.916s.008,0,.013-.008-.008,0-.013.008" transform="translate(1509.598 -2801.758)" fill="#c9cbd6"/>
      <path id="Path_513" data-name="Path 513" d="M1698.07,434.376a17.5,17.5,0,0,0,8.107-2.9l.017-.012s.008,0,.012-.008a18.5,18.5,0,0,0,5.07-5.042,15.055,15.055,0,0,1-13.206,7.966" transform="translate(1509.592 -2794.698)" fill="#83b6db"/>
      <path id="Path_514" data-name="Path 514" d="M1721.361,375.069h0m-.012-.02a.114.114,0,0,1-.013-.021.114.114,0,0,0,.013.021m-.017-.021c-.017-.026-.033-.05-.05-.075.016.025.033.049.05.075m-4.3-4.262c-.317-.225-.641-.438-.967-.638a0,0,0,0,0,0,0c.325.2.646.408.962.633" transform="translate(1499.091 -2761.863)" fill="#c9cbd6"/>
      <path id="Path_515" data-name="Path 515" d="M1722.635,375.847c-.154-.213-.312-.43-.475-.641a19.163,19.163,0,0,0-3.77-3.546,19.163,19.163,0,0,1,3.77,3.546c.163.212.321.428.475.641" transform="translate(1497.738 -2762.756)" fill="#7187ac"/>
      <path id="Path_516" data-name="Path 516" d="M1723.292,378.513a19.162,19.162,0,0,0-1.925-3.437c0-.008-.008-.011-.012-.02a.114.114,0,0,1-.012-.021h0c-.017-.026-.033-.05-.05-.075-.154-.213-.312-.43-.475-.641a19.173,19.173,0,0,0-3.77-3.546c-.317-.225-.637-.438-.962-.633a14.722,14.722,0,0,1,7.211,8.372" transform="translate(1499.085 -2761.87)" fill="#83b6db"/>
      <path id="Path_517" data-name="Path 517" d="M1719.49,435.771c.1-.325.183-.664.267-1a6.4,6.4,0,0,0,.2.646c-.154.12-.308.241-.462.355" transform="translate(1497.096 -2799.574)" fill="#bde2f8"/>
      <path id="Path_518" data-name="Path 518" d="M1729.13,390.355c.362-1.708.637-3.271.842-4.617a17.913,17.913,0,0,1,.933,1.88c.029.08.054.163.083.241-.171.184-.329.371-.483.568a18.685,18.685,0,0,0-1.375,1.928" transform="translate(1491.472 -2770.969)" fill="#96b8d6"/>
      <path id="Path_519" data-name="Path 519" d="M1720.326,410.575a6.4,6.4,0,0,1-.2-.646,31.641,31.641,0,0,0,.754-4.5l-.417.216a71.062,71.062,0,0,0,3.025-9.782,10.263,10.263,0,0,1,2.079-2.692c.171-.112.342-.216.517-.316a17.825,17.825,0,0,1,.5,4.8c-.013.545-.054,1.087-.117,1.629a13.571,13.571,0,0,0-1.841,1.6l0,0c-2.158,1.687-1.975,4.163-.054,4.775-.133.267-.271.529-.417.787a18.47,18.47,0,0,1-3.824,4.129m3.416-15.818c.05-.218.1-.43.138-.638a18.706,18.706,0,0,1,1.375-1.928,11.889,11.889,0,0,0-1.512,2.567" transform="translate(1496.723 -2774.734)" fill="#bdd6e9"/>
      <path id="Path_520" data-name="Path 520" d="M1728.2,395.066c.088-.371.171-.742.25-1.1a11.888,11.888,0,0,1,1.512-2.567c.154-.2.313-.384.483-.568.133.405.25.817.35,1.23-.175.1-.346.2-.517.316a10.264,10.264,0,0,0-2.079,2.692" transform="translate(1492.015 -2773.939)" fill="#bddae9"/>
      <path id="Path_521" data-name="Path 521" d="M1728.676,417.145c-1.921-.612-2.1-3.087.054-4.775l0,0s0,0,0,0c-.267.3.058.587.371.587a.409.409,0,0,0,.312-.134,10.68,10.68,0,0,1,1-.945,18.987,18.987,0,0,1-1.737,5.266" transform="translate(1492.614 -2786.22)" fill="#bcd1e5"/>
      <path id="Path_522" data-name="Path 522" d="M1731.143,411.4c-.312,0-.637-.287-.371-.587,0,0,0,0,0,0a13.571,13.571,0,0,1,1.842-1.6c-.042.371-.1.74-.163,1.112a10.662,10.662,0,0,0-1,.945.409.409,0,0,1-.312.134" transform="translate(1490.572 -2784.664)" fill="#bbc6df"/>
      <path id="Path_523" data-name="Path 523" d="M1685.483,398.59a21.7,21.7,0,0,1-8.7-2c16.26-1.15,20.984-24.034,6.432-31.52h.333a20.621,20.621,0,0,1,9.6,2.108c.325.2.65.413.967.638-.883,7-1.062,10.733-.1,10.733.733,0,2.112-2.117,4.341-6.545.017.025.033.049.05.075h0a.115.115,0,0,0,.012.021c0,.008.008.012.012.02.367.521.7,1.041.992,1.562-.2,1.346-.479,2.908-.842,4.617-.042.208-.087.42-.138.638-.079.361-.162.732-.25,1.1a71.063,71.063,0,0,1-3.025,9.782l.417-.216a31.66,31.66,0,0,1-.754,4.5c-.083.337-.171.675-.267,1-.258.2-.521.377-.787.558,0,0-.008,0-.013.008l-.017.012a17.528,17.528,0,0,1-8.111,2.9h-.162" transform="translate(1522.013 -2758.912)" fill="#bdd6e9"/>
      <path id="Path_524" data-name="Path 524" d="M1717.25,382.393c-.967,0-.787-3.73.1-10.733a19.163,19.163,0,0,1,3.77,3.546c.162.212.321.428.475.641-2.229,4.428-3.608,6.545-4.341,6.545" transform="translate(1498.782 -2762.756)" fill="#96b8d6"/>
      <path id="Path_525" data-name="Path 525" d="M1717.53,405.5l.017-.012-.017.012m.029-.02c.267-.181.529-.363.787-.558.154-.114.308-.235.462-.355a18.469,18.469,0,0,0,3.824-4.129h0a18.5,18.5,0,0,1-5.07,5.042m6.578-20.106a17.891,17.891,0,0,0-.933-1.88q-.444-.781-.991-1.562a19.147,19.147,0,0,1,1.925,3.437v.005m-1.925-3.442c0-.008-.008-.011-.012-.02,0,.008.008.012.012.02m-.025-.04h0" transform="translate(1498.239 -2768.725)" fill="#9ecceb"/>
      <path id="Path_526" data-name="Path 526" d="M1754.887,458.557s-11.99-10.927-13.469-10.927-10.436,5.1-11.5,6.983-1.15,7.066,0,7.64a5.278,5.278,0,0,0,2.137.575c-.983,2.358,2.129,3.292,3.449,3.2,0,0-.575.74.737,2.465s5.341,0,5.341,0,5.67-4.436,7.145-3.945,6.657,8.545,7.232,7.229,2.545-7.72-1.071-13.224" transform="translate(1491.499 -2807.076)" fill="#ffc3b3"/>
      <path id="Path_527" data-name="Path 527" d="M1743.8,482.033c4.62-6.045,11.448-6.47,11.323-7.59-.575-1.059-8.074,1.645-11.74,6.831a.5.5,0,0,0,.417.758" transform="translate(1483.203 -2822.587)" fill="#f27584"/>
      <path id="Path_528" data-name="Path 528" d="M1735.518,471.02a.488.488,0,0,0,.475-.358c1.767-6.34,10.053-8.49,9.753-9.694-.692-.983-8.778,3.432-10.7,9.427a.492.492,0,0,0,.475.625" transform="translate(1488.034 -2814.778)" fill="#f27584"/>
      <path id="Path_529" data-name="Path 529" d="M1748.634,509.032c.721-.072,2.437.1,2.275-1.079a.74.74,0,0,0-.883-.563c-5.412,1.221-8.265-4.908-8.382-5.17-3.77-2.22,1.112,7.091,6.991,6.812" transform="translate(1484.945 -2838.725)" fill="#f27584"/>
      <path id="Path_530" data-name="Path 530" d="M1268.935,516.775s1.962.742.792,6.671-1.587,7.928-2.237,7.7c-3.429-.494-4.845-.615-4.624-4.391,0,0-.467,3.629-1.825,3.234s-9.582-4.5-8.761-6.15,4.566-4.812,4.566-4.812-3.7,1.992-3.879,1.5c-2.354-1.478,8.2-7.04,7.891-7.115l8.078,3.365" transform="translate(1769.699 -2845.453)" fill="#6b3e4a"/>
      <path id="Path_531" data-name="Path 531" d="M1284.746,467.582c-1.85,2.093-9.078-.566-9.086-3.977.058-3.341,3.266-2.98,3.758-4.542s-1.391-5.133-.446-8.049,5.178-2.412,5.487-3.782-1.162-3.987.162-7.466c1.4-4.658,9.861-8.731,14.148-5.857,2.458,1.533,1.321,9.694-3.416,13.5-1.587,1.237-2.916,1.45-3.566,2.083-1.521,2.807,2.237,6.749-1.271,9.606-1.241,1.305-3.9,2.008-4.937,3.084-.062,1.544,1.266,3.387-.833,5.4" transform="translate(1756.025 -2798.513)" fill="#6b3e4a"/>
      <path id="Path_532" data-name="Path 532" d="M1284.746,467.579c-1.85,2.093-9.082-.566-9.086-3.977.058-3.341,3.266-2.98,3.758-4.542s-1.391-5.133-.446-8.049,5.178-2.412,5.487-3.782-1.162-3.987.162-7.466c1.408-4.658,9.861-8.736,14.148-5.857-6.445.412-16.21,7.94-3.416,13.5-1.587,1.237-2.916,1.45-3.566,2.083a8.113,8.113,0,0,1-2.879-.242c-5.57-.612-8.024,8.754-1.237,11.649a6.689,6.689,0,0,0-2.091,1.284c-6.149-.8-6.407,2.313-.833,5.4" transform="translate(1756.025 -2798.51)" fill="#35263f"/>
      <path id="Path_533" data-name="Path 533" d="M1269.013,508.588l2.8-3.6s9.394,3.917,9.153,5.212-.125,3.261-1.866,3.667-10.927-3.087-10.082-5.279" transform="translate(1759.935 -2840.54)" fill="#ffb469"/>
      <path id="Path_534" data-name="Path 534" d="M1479.935,509.867s1.75-1.157,5.874,3.258,5.5,5.925,4.937,6.316c-2.4,2.5-3.324,3.57-6.262,1.188,0,0,2.67,2.5,1.554,3.365s-9.253,5.141-10.111,3.517-1.233-6.516-1.233-6.516-.546,4.158-1.054,4.016c-2.579,1.047-.912-10.77-1.158-10.561l7.453-4.583" transform="translate(1641.378 -2843.306)" fill="#6b3e4a"/>
      <path id="Path_535" data-name="Path 535" d="M1455.659,459.2c.617,2.725-5.766,7.037-8.536,5.045-2.679-2-.508-4.391-1.491-5.7s-4.979-1.87-6.786-4.34,1.071-5.611.142-6.666-3.916-1.391-5.966-4.5c-3.383-3.907-.683-16.856,5.862-14.677.412-.058,7.02,5.5,6.616,10.445.075,2.008-.529,3.212-.4,4.107,1.362,2.871,6.77,2.112,7.049,6.649.333,1.771-.65,4.337-.383,5.811,1.212.942,3.508.98,3.891,3.829" transform="translate(1665.075 -2795.689)" fill="#6b3e4a"/>
      <path id="Path_536" data-name="Path 536" d="M1455.638,459.226c.617,2.725-5.766,7.037-8.536,5.045-2.679-2-.508-4.391-1.491-5.7s-4.979-1.87-6.786-4.34,1.071-5.611.142-6.666-3.916-1.391-5.966-4.5c-2.958-3.862-1.321-13.1,3.52-14.9-3.466,5.378-2.925,17.842,8.957,10.666.075,2.011-.529,3.215-.4,4.111a8.089,8.089,0,0,1-1.879,2.2c-3.754,4.163,2.408,11.628,8.724,7.816a6.746,6.746,0,0,0-.179,2.449c-4.241,4.478-1.85,6.561,3.891,3.829" transform="translate(1665.096 -2795.718)" fill="#35263f"/>
      <path id="Path_537" data-name="Path 537" d="M1346.246,309.132c-3.129,4.783-72.351,4.62-77.95-4.548-6.012-9.969-7.882-65.537,30.654-62.782-8.974-3.067-11.407-16.493,1.354-4.024,3.6-8.39,10.236-7.108,4.953,2.912,50.476-5.353,57.075,38.148,40.99,68.443" transform="translate(1762.256 -2681.419)" fill="#6b3e4a"/>
      <path id="Path_538" data-name="Path 538" d="M1363.158,474.745a148.012,148.012,0,0,0-.971,16.852c-.217,3.247.954,6.4-.033,9.5-2.016,6.041-11.444,11.019-14.635,12.431-6.112-2.791-17.556-9.24-14.719-19.463a137.015,137.015,0,0,0-.9-19.318c3.458-.374,12.219-1.328,15.56-1.687.117-.025,5.928.638,6.053.643h0l9.64,1.044" transform="translate(1723.215 -2821.911)" fill="#ffc3b3"/>
      <path id="Path_539" data-name="Path 539" d="M1363.158,474.745c-.258,2.217-.487,4.967-.65,7.307-2.875,4.4-7.728,9.354-15.048,9.354-7.695,0-12.352-4.879-14.881-8.928-.171-2.462-.421-5.567-.679-7.733,3.458-.374,12.219-1.328,15.56-1.687.117-.025,5.928.638,6.053.643h0l9.64,1.044" transform="translate(1723.215 -2821.911)" fill="#f27584"/>
      <path id="Path_540" data-name="Path 540" d="M1257.639,387.328c-16.414-8.845-15.8,19.492-3.362,23.1,15.185,3.2,8.815-17.792,3.362-23.1" transform="translate(1773.846 -2770.904)" fill="#ffc3b3"/>
      <path id="Path_541" data-name="Path 541" d="M1260.506,393.238a10.871,10.871,0,0,0-2.474-3.842c-7.2-4.736-14.96.8-12.111,12.536-4.462-11.16,2.8-20.339,11.4-14.651a12.771,12.771,0,0,1,3.183,5.958" transform="translate(1774.166 -2770.857)" fill="#ffd7b6"/>
      <path id="Path_542" data-name="Path 542" d="M1263.033,416.463a2.548,2.548,0,0,1-.754-.158c-2.808-.95-6.516-5.853-6.516-5.853-1.312-3.667-.037-4.983,2.046-4.983,4.5,0,12.777,6.179,6.641,8.033-2.171.109,0,2.962-1.417,2.962" transform="translate(1767.943 -2782.48)" fill="#faa8a3"/>
      <path id="Path_543" data-name="Path 543" d="M1255.544,411.537c-6.495-5.025,1.921-10.407,8.411-3.271.342.392-.342.8-.633.451-4.945-5.579-12.748-3.076-7.553,2.166a.353.353,0,0,1-.225.654" transform="translate(1769.125 -2782.103)" fill="#f27584"/>
      <path id="Path_544" data-name="Path 544" d="M1264.016,406.584c-4.062-.638-3.3,4.545-.446,5.7,5.228,1.583,3.908-4.366.446-5.7" transform="translate(1764.461 -2783.099)" fill="#f27584"/>
      <path id="Path_545" data-name="Path 545" d="M1458.772,387.328c16.418-8.845,15.8,19.492,3.362,23.1-15.185,3.2-8.811-17.792-3.362-23.1" transform="translate(1652.755 -2770.904)" fill="#ffc3b3"/>
      <path id="Path_546" data-name="Path 546" d="M1459.66,393.238a10.925,10.925,0,0,1,2.475-3.842c7.2-4.736,14.96.8,12.111,12.536,4.462-11.16-2.8-20.339-11.4-14.651a12.771,12.771,0,0,0-3.183,5.958" transform="translate(1648.68 -2770.857)" fill="#ffd7b6"/>
      <path id="Path_547" data-name="Path 547" d="M1463.487,416.463c-1.412,0,.754-2.852-1.416-2.962-6.137-1.853,2.137-8.033,6.645-8.033,2.079,0,3.358,1.316,2.042,4.983,0,0-3.708,4.9-6.516,5.853a2.5,2.5,0,0,1-.754.158" transform="translate(1648.548 -2782.48)" fill="#faa8a3"/>
      <path id="Path_548" data-name="Path 548" d="M1471.76,411.537c6.495-5.025-1.921-10.407-8.411-3.271-.342.392.342.8.633.451,4.945-5.579,12.748-3.076,7.553,2.166a.353.353,0,0,0,.225.654" transform="translate(1646.582 -2782.103)" fill="#f27584"/>
      <path id="Path_549" data-name="Path 549" d="M1470.269,406.584c4.062-.638,3.3,4.545.446,5.7-5.224,1.583-3.908-4.366-.446-5.7" transform="translate(1644.266 -2783.099)" fill="#f27584"/>
      <path id="Path_550" data-name="Path 550" d="M1353.161,340.018c4.008.734,2.533,4.988,2.1,7.966,0,0-3.566,24.935-4.979,26.7-1.429,1.776-17.381,18.827-33.041,18.827s-31.616-17.052-33.045-18.827c-1.412-1.761-4.978-26.7-4.978-26.7-.829-2.78,0-6.065,3.149-6.761,10.007-1.88,26.7-15.1,28.9-23.292,5.216,8.527,22.118,19.793,41.889,22.088" transform="translate(1754.125 -2731.41)" fill="#ffc3b3"/>
      <path id="Path_551" data-name="Path 551" d="M1310.064,374.015s1.9-3.712,4.566-5.045,4.283-2.283,5.333-.762.817,1.408-1.637,2.511-9.4,5.121-8.261,3.3" transform="translate(1736.027 -2760.288)" fill="#6b3e4a"/>
      <path id="Path_552" data-name="Path 552" d="M1407.438,392.672c-2.137-3.082-7.832-2.324-8.224,1.746-.138,1.445-2.425,1.491-2.283.025.608-6.316,8.965-8,12.465-2.946.837,1.209-1.125,2.379-1.958,1.175" transform="translate(1685.28 -2772.599)" fill="#6b3e4a"/>
      <path id="Path_553" data-name="Path 553" d="M1415.942,374.015s-1.9-3.712-4.57-5.045-4.283-2.283-5.328-.762-.821,1.408,1.637,2.511,9.4,5.121,8.261,3.3" transform="translate(1680.304 -2760.288)" fill="#6b3e4a"/>
      <path id="Path_554" data-name="Path 554" d="M1365.372,428.422a5.322,5.322,0,0,1-3.416-1.546c-.987-.917-1.346-1.828-.179-1.47.012.02,1.629,2.183,3.6,2.183s3.3-2.134,3.32-2.158c1.133-.446.854.5-.067,1.442a4.679,4.679,0,0,1-3.254,1.549" transform="translate(1706.211 -2794.059)" fill="#f27584"/>
      <path id="Path_555" data-name="Path 555" d="M1360.888,454.522c-3.733,2.412-8.549,3.862-12.977,2.988-5.649-.7-13.348-7-10.89-12.77,1.054-1.841,2.87-1.269,4.674-.545a17.006,17.006,0,0,0,18.514-.034c7.745-3.19,5.278,7.546.679,10.361" transform="translate(1720.502 -2804.671)" fill="#ce307f"/>
      <path id="Path_556" data-name="Path 556" d="M1364.98,473.879a21.132,21.132,0,0,0,2.762-1.149l.033.033a21.006,21.006,0,0,1-2.8,1.116m-11.748-.369q-.737-.312-1.462-.7c.008-.013.021-.021.029-.034.471.272.95.517,1.433.739" transform="translate(1711.623 -2821.72)" fill="#ffc3b3"/>
      <path id="Path_557" data-name="Path 557" d="M1359.5,471.335a15.913,15.913,0,0,1-6.228-1.25c-.483-.222-.963-.467-1.433-.739,1.429-1.656,4.716-2.487,8-2.487,3.254,0,6.5.812,7.945,2.446a21.128,21.128,0,0,1-2.762,1.149,18.338,18.338,0,0,1-5.52.881" transform="translate(1711.582 -2818.295)" fill="#ea859d"/>
      <path id="Path_558" data-name="Path 558" d="M1365.773,446.32c-1.5,1.207-6.524,3.137-12.177,3.125-6.083-.366-13.96-1.654-12.427-5.837,6.374.713,9.207,5.629,17.464,2.534,2.175-.772,5.2-3.092,7.528-2.433.254,1,.308,2.065-.387,2.612" transform="translate(1717.921 -2804.721)" fill="#fff"/>
      <path id="Path_559" data-name="Path 559" d="M1324.24,390.1c-3.516-1.829-9.532.967-10.919,4.228a.933.933,0,0,0,.817,1.367c1.121-.217.633-.657,1.821-1.846a3.825,3.825,0,0,0,3.708,4.741c3.887.133,5.241-5.5,1.8-7.178a5.4,5.4,0,0,1,1.979.367.929.929,0,0,0,.792-1.679" transform="translate(1734.12 -2773.175)" fill="#6b3e4a"/>
      <path id="Path_560" data-name="Path 560" d="M1469.027,511.909l-1.287-4.374s8.674-5.328,9.582-4.374,2.575,2.008,1.883,3.659-8.894,7.061-10.178,5.09" transform="translate(1643.966 -2839.406)" fill="#ffb469"/>
      <path id="Path_561" data-name="Path 561" d="M1414.641,425.566c-2.683,0-5.37-1.221-5.312-3.67-.058-2.446,2.629-3.667,5.316-3.667s5.37,1.221,5.312,3.67c.058,2.441-2.629,3.667-5.316,3.667" transform="translate(1678.044 -2789.925)" fill="#f9a19f"/>
      <path id="Path_562" data-name="Path 562" d="M1341.6,541.058c-23.68,12.074-87.932,2.316-107.321-18.081,7.632-9.465,23.109-23.333,41.427-23.816-4.183,16.023,33.887,16.064,29.729.083,8.615,2.117,22.042,12.191,27.642,18.56,5.424,7.066,8.524,23.255,8.524,23.255" transform="translate(1780.166 -2837.14)" fill="#ff7d7d"/>
      <path id="Path_563" data-name="Path 563" d="M1361.474,501.189c-4.129,22.176-40.51,18.077-40.694-1.308,2.866-.454,5.391-.721,5.391-.721-4.183,16.023,33.886,16.064,29.729.083a48.4,48.4,0,0,1,5.574,1.946" transform="translate(1729.702 -2837.14)" fill="#ff9f9f"/>
      <path id="Path_564" data-name="Path 564" d="M1228.155,486.319s2.041,4.008,2.041,6.862-5.916,17.068-5.916,17.068l24.313,3.221s-.983-20.289,0-23.5,5.449-9.261,3.874-13.63-24.384.986-24.313,9.981" transform="translate(1786 -2822.92)" fill="#ffc3b3"/>
      <path id="Path_565" data-name="Path 565" d="M1248.593,513.467l-24.313-3.221s5.916-14.218,5.916-17.068-2.041-6.862-2.041-6.862v-.037c0-6.791,13.015-11.5,20.034-11.5,2.258,0,3.9.487,4.279,1.554a5.968,5.968,0,0,1,.333,2.04c-.008,4.062-3.366,8.858-4.208,11.59a38.107,38.107,0,0,0-.437,7.512c0,6.96.437,15.989.437,15.989" transform="translate(1786 -2822.917)" fill="#faa8a3"/>
      <path id="Path_566" data-name="Path 566" d="M1238.937,465.5l-6.282-4.983c-.354-.612,25.592-33.328,26.267-33.128l6.282,4.983c.354.612-25.592,33.331-26.267,33.128" transform="translate(1781.116 -2795.269)" fill="#3d2e56"/>
      <path id="Path_567" data-name="Path 567" d="M1309.02,395.907c-12.223,0-23.475-14.418-13.615-27.292,3.724-4.537,8.274-6.423,12.7-6.423a15.813,15.813,0,0,1,3.175.321,25.51,25.51,0,0,0-3.175-.192c-.112,0-.221.005-.337.005,14.552,7.481,9.832,30.37-6.428,31.52a21.687,21.687,0,0,0,8.7,2c.142,0,.279,0,.421,0-.483.045-.962.067-1.441.067m-6.924-10.37c-2.683,0-5.37,1.221-5.312,3.667-.058,2.449,2.629,3.67,5.312,3.67s5.374-1.221,5.312-3.667c.063-2.449-2.625-3.67-5.312-3.67m4.987-2.892a1.152,1.152,0,0,0,.133.005c3.787,0,5.07-5.525,1.671-7.183a5.4,5.4,0,0,1,1.979.367.914.914,0,0,0,.408.1.943.943,0,0,0,.383-1.779,5.615,5.615,0,0,0-2.6-.579c-3.337,0-7.237,2.262-8.32,4.807a.933.933,0,0,0,.8,1.367h.021c1.121-.217.633-.657,1.821-1.846a3.825,3.825,0,0,0,3.653,4.741h.054m.812-18.272c-.971,0-2.245.692-3.941,1.541-2.662,1.333-4.566,5.045-4.566,5.045-.208.33-.15.467.1.467,1.125,0,6.149-2.858,8.161-3.762,2.454-1.1,2.683-.986,1.637-2.511a1.6,1.6,0,0,0-1.391-.779" transform="translate(1746.703 -2757.232)" fill="#e6dcdd"/>
      <path id="Path_568" data-name="Path 568" d="M1310.162,374.483c-.25,0-.308-.137-.1-.467,0,0,1.9-3.712,4.566-5.045,1.7-.849,2.97-1.541,3.941-1.541a1.6,1.6,0,0,1,1.391.779c1.046,1.525.817,1.408-1.637,2.511-2.012.9-7.036,3.762-8.161,3.762" transform="translate(1736.029 -2760.289)" fill="#a4a0ad"/>
      <path id="Path_569" data-name="Path 569" d="M1319.8,398.594a1.153,1.153,0,0,1-.133-.005h-.054a3.825,3.825,0,0,1-3.653-4.741c-1.187,1.188-.7,1.629-1.821,1.846h-.021a.933.933,0,0,1-.8-1.367c1.083-2.545,4.983-4.807,8.32-4.807a5.614,5.614,0,0,1,2.6.579.943.943,0,0,1-.383,1.779.915.915,0,0,1-.408-.1,5.4,5.4,0,0,0-1.979-.367c3.4,1.658,2.116,7.183-1.671,7.183" transform="translate(1734.12 -2773.176)" fill="#a4a0ad"/>
      <path id="Path_570" data-name="Path 570" d="M1309.3,425.566c-2.683,0-5.37-1.221-5.312-3.67-.058-2.446,2.629-3.667,5.312-3.667s5.374,1.221,5.312,3.67c.063,2.446-2.625,3.667-5.312,3.667" transform="translate(1739.499 -2789.925)" fill="#e4ccd4"/>
      <path id="Path_571" data-name="Path 571" d="M1336.82,396.289a16.333,16.333,0,0,0,10.882-5.912c.038.042.079.08.121.12.092.085.192.167.292.255a14.785,14.785,0,0,1-11.294,5.536m11.823-6.217c-.146-.125-.279-.249-.4-.366,8.711-11.681.175-24.567-10.611-26.745,10.369,1.287,14.8,8.928,14.573,16.571a18.84,18.84,0,0,1-3.566,10.54" transform="translate(1720.345 -2757.681)" fill="#c9cbd6"/>
      <path id="Path_572" data-name="Path 572" d="M1363.353,428.207c-.1-.088-.2-.171-.292-.255-.042-.041-.083-.078-.121-.12.125-.145.25-.292.375-.446.058-.075.117-.15.171-.225.116.117.25.241.4.366-.171.23-.346.459-.529.68" transform="translate(1705.106 -2795.135)" fill="#c3a8c0"/>
      <path id="Path_573" data-name="Path 573" d="M1323.623,396.024a21.688,21.688,0,0,1-8.7-2c16.26-1.151,20.98-24.039,6.428-31.52.117,0,.225-.005.338-.005a25.511,25.511,0,0,1,3.175.192c10.786,2.179,19.322,15.064,10.611,26.745a5.74,5.74,0,0,1-.6-.679,1.508,1.508,0,0,0-.429-.08c-.583,0-.262.7.487,1.429a16.333,16.333,0,0,1-10.882,5.912c-.142,0-.279,0-.421,0" transform="translate(1733.121 -2757.412)" fill="#bdd6e9"/>
      <path id="Path_574" data-name="Path 574" d="M1361.836,426.769c-.75-.732-1.07-1.429-.487-1.429a1.505,1.505,0,0,1,.429.08,5.763,5.763,0,0,0,.6.679c-.054.075-.112.15-.171.225-.125.155-.25.3-.375.446" transform="translate(1706.21 -2794.073)" fill="#bbc6df"/>
      <path id="Path_575" data-name="Path 575" d="M1289.475,383.348c-17.143-13.718,3.612-39.89,20.872-26.321C1327.411,371.042,1307.005,396.773,1289.475,383.348Zm24.73-31.186c-24.017-18.384-51.963,16.864-28.587,36.054,23.667,18.6,52.092-17.251,28.587-36.054" transform="translate(1755.35 -2748.375)" fill="#ff7d7d"/>
      <path id="Path_576" data-name="Path 576" d="M1234.12,456s11.994-10.925,13.473-10.925,10.432,5.092,11.5,6.983,1.15,7.061,0,7.637a5.253,5.253,0,0,1-2.137.578c.979,2.355-2.133,3.287-3.449,3.2,0,0,.575.742-.742,2.467s-5.337,0-5.337,0-5.67-4.436-7.149-3.945-6.653,8.544-7.228,7.232-2.545-7.723,1.067-13.227" transform="translate(1781.497 -2805.588)" fill="#ffc3b3"/>
      <path id="Path_577" data-name="Path 577" d="M1267.771,479.477c-4.62-6.049-11.448-6.474-11.323-7.6.575-1.058,8.074,1.65,11.736,6.833a.5.5,0,0,1-.412.762" transform="translate(1767.234 -2821.093)" fill="#f27584"/>
      <path id="Path_578" data-name="Path 578" d="M1277.577,468.467a.494.494,0,0,1-.475-.358c-1.766-6.34-10.053-8.495-9.753-9.694.692-.988,8.778,3.429,10.7,9.424a.5.5,0,0,1-.475.628" transform="translate(1760.879 -2813.288)" fill="#f27584"/>
      <path id="Path_579" data-name="Path 579" d="M1264.64,506.473c-.725-.07-2.437.1-2.275-1.079a.735.735,0,0,1,.883-.558c5.412,1.217,8.265-4.911,8.382-5.173,3.766-2.217-1.112,7.09-6.99,6.81" transform="translate(1763.788 -2837.233)" fill="#f27584"/>
      <path id="Path_580" data-name="Path 580" d="M1191.19,574.273c3.258-2.68,10.482-15.636,15.5-15.206,19.893.19,130.226-10.3,118.761,39.9L1191.19,574.273" transform="translate(1805.305 -2871.629)" fill="#f2f2f2"/>
      <path id="Path_581" data-name="Path 581" d="M1277.887,566.977c-29.779-4.9-64.748,1.025-66.027-.524.862-1.858,36.249-4.467,66.127-.68a.605.605,0,0,1-.1,1.2" transform="translate(1793.246 -2874.87)" fill="#afc8ce"/>
      <path id="Path_582" data-name="Path 582" d="M1402.334,594.959c-26.029-20.184-78.276-19.8-79.354-21.375,1.15-1.725,53.225.82,79.767,20.3a.608.608,0,0,1-.412,1.074" transform="translate(1728.419 -2880.296)" fill="#afc8ce"/>
      <path id="Path_583" data-name="Path 583" d="M1418.613,579.941c-13.215-6.687-37.365-9.019-37.953-10.544.821-1.313,24.829,3.307,38.252,9.406a.6.6,0,0,1-.3,1.138" transform="translate(1694.769 -2877.985)" fill="#afc8ce"/>
      <path id="Path_584" data-name="Path 584" d="M1212.507,575.4a.6.6,0,1,1-.025-1.207l36.219-1.413a.606.606,0,1,1,.054,1.208l-36.249,1.412" transform="translate(1793.232 -2880.087)" fill="#afc8ce"/>
      <path id="Path_585" data-name="Path 585" d="M1648.1,574.273c-3.258-2.68-10.486-15.636-15.5-15.206-19.893.19-130.23-10.3-118.761,39.9L1648.1,574.273" transform="translate(1617.556 -2871.629)" fill="#f2f2f2"/>
      <path id="Path_586" data-name="Path 586" d="M1657.244,566.977c29.775-4.9,64.744,1.025,66.027-.524-.862-1.858-36.249-4.467-66.127-.68a.605.605,0,0,0,.1,1.2" transform="translate(1533.775 -2874.87)" fill="#afc8ce"/>
      <path id="Path_587" data-name="Path 587" d="M1514.115,594.959c26.025-20.184,78.276-19.8,79.35-21.375-1.146-1.725-53.221.82-79.763,20.3a.608.608,0,0,0,.412,1.074" transform="translate(1617.284 -2880.296)" fill="#afc8ce"/>
      <path id="Path_588" data-name="Path 588" d="M1555.819,579.941c13.215-6.687,37.361-9.019,37.953-10.544-.821-1.313-24.83,3.307-38.253,9.406a.6.6,0,0,0,.3,1.138" transform="translate(1592.952 -2877.985)" fill="#afc8ce"/>
      <path id="Path_589" data-name="Path 589" d="M1763.46,575.4a.6.6,0,1,0,.029-1.207l-36.224-1.413a.605.605,0,1,0-.054,1.208l36.249,1.412" transform="translate(1492.949 -2880.087)" fill="#afc8ce"/>
      <path id="Path_590" data-name="Path 590" d="M1657.412,594.924l-1.537-4.719s-90.482-17.273-141.645,14.988l5.92,1.912s91.657-20.272,137.262-12.181" transform="translate(1616.844 -2887.56)" fill="#ffd671"/>
      <path id="Path_591" data-name="Path 591" d="M1523.71,704.81c4.733-2.553,66.7-13.623,79.592-6.877a2.242,2.242,0,0,0,2.454-.975l5.374-8.783,51.8-84.491a2.082,2.082,0,0,0-1.666-3.146c-27.954-3.012-107.329-10.482-135.579,13.23l-1.971,91.041" transform="translate(1611.313 -2893.906)" fill="#ffb469"/>
      <path id="Path_592" data-name="Path 592" d="M1523.71,720.417c4.641-2.5,66.7-13.647,79.592-6.877a2.242,2.242,0,0,0,2.454-.975l5.374-8.783c-100.747-12.453-71.21,37.523-75.722-80.02-7.166,3.253-9.728,5.614-9.728,5.614l-1.971,91.041" transform="translate(1611.313 -2909.832)" fill="#f99067"/>
      <path id="Path_593" data-name="Path 593" d="M1168.6,594.924l1.537-4.719s90.482-17.273,141.641,14.988l-5.92,1.912s-91.653-20.272-137.258-12.181" transform="translate(1818.484 -2887.56)" fill="#ffea80"/>
      <path id="Path_594" data-name="Path 594" d="M1307.417,704.81c-4.733-2.553-66.7-13.623-79.592-6.877a2.237,2.237,0,0,1-2.45-.975L1220,688.175l-51.8-84.491a2.082,2.082,0,0,1,1.666-3.146c27.954-3.012,107.333-10.482,135.579,13.23l1.971,91.041" transform="translate(1818.895 -2894.224)" fill="#ffd671"/>
      <path id="Path_595" data-name="Path 595" d="M1380.38,720.417c-4.637-2.5-66.7-13.647-79.592-6.877a2.237,2.237,0,0,1-2.45-.975l-5.378-8.783c100.747-12.453,71.21,37.523,75.726-80.02,7.161,3.253,9.724,5.614,9.724,5.614l1.971,91.041" transform="translate(1745.932 -2909.832)" fill="#ffb469"/>
      <path id="Path_596" data-name="Path 596" d="M1509.187,636.66c-1.346,2.12,3.287,92.5-2.883,90.611-2.046.924-4.687,2.478-6.932,1.232-2.5-1.007-5.766-2.47-5.591-5.662V636.66a4.976,4.976,0,0,1,6.349-4.708,5.167,5.167,0,0,0,2.708,0,4.976,4.976,0,0,1,6.349,4.708" transform="translate(1628.778 -2914.502)" fill="#ffd671"/>
      <path id="Path_597" data-name="Path 597" d="M1235.1,634.319l16.622,30.4a3.77,3.77,0,0,0,4.158,1.8c6.491-2.913,55.858-6.786,66.111-3.565a3.609,3.609,0,0,0,4.191-4.288c-1.129-2.129-4.366-25.029-7.728-25.058-18.147-8.482-59.937-11.94-81.017-4.332a3.483,3.483,0,0,0-2.337,5.045" transform="translate(1779.937 -2910.591)" fill="#ffb469"/>
      <path id="Path_598" data-name="Path 598" d="M1286.68,738.277a1.61,1.61,0,0,1-.288-3.2c-2.579,1.017,44.364-8.575,46.8-2.742a1.659,1.659,0,0,1-1.792,1.508c-13.615-.779-43.885,4.383-44.718,4.433" transform="translate(1750.558 -2972.068)" fill="#ffb469"/>
      <path id="Path_599" data-name="Path 599" d="M1491.758,179.457c-.754,28.92-43.094,28.741-43.748,0,.754-28.9,43.023-28.812,43.748,0" transform="translate(1655.477 -2638)" fill="#d2f0ff"/>
      <path id="Path_600" data-name="Path 600" d="M1460.1,182.693a3.551,3.551,0,0,1-4.062-.6c-1.171-.849-2.1-1.7-3.529-.1-1.225,1.309,1.762,2.3,1.075,2.954a1.6,1.6,0,0,1-1.212.259,1.866,1.866,0,0,0-1.7.563c-.621,2.433,3.108,1.99-2.22,4.486a22.011,22.011,0,0,1,7.807-21.618c1.8,1.645,3.091,1.149,2.7,3.691,0,1.766,1.533,1.383,2.066,3.258s-1.987,1.578-.991,3.341,1.766,3.066.071,3.762" transform="translate(1655.502 -2644.315)" fill="#9cd1f2"/>
      <path id="Path_601" data-name="Path 601" d="M1520.946,222.211a21.892,21.892,0,0,1-17.431,16.347c-7.286-4.887-4.537-9.764,1-8.124,1.608,1.071,3.524-.695,3.758-1.616.146-1.979,8.686-1.778,8.357-4.136-.15-1.079,2.612-1,4.32-2.47" transform="translate(1625.667 -2675.568)" fill="#9cd1f2"/>
      <path id="Path_602" data-name="Path 602" d="M1493.405,176.754c-.921.145,0,0-.075,1.678-.079,1.7-.308.7-1.841.579s-.921-1.8-.846-4.262,1.912-1.37,2.379-.225c.2,1.541,5.424.433,6.52-.612.921-1,3.683-.842,5.062-1.829s-.387-2.083.691-3.308.688-1.766,0-3.149-.691-1.225-2.454-.534-.921,1.455-2.687,2.6-1.842.3-2.379,1.151.537,1.229.3,2.55-1.679.521-1.608-.6-.992-.492-2.608-.037-2.066-3.683-1.454-3.753,1.375-.921,2.241-3.3,2.283-.534,4.683-1.226-.175-.841,0-4.019a21.9,21.9,0,0,1,16.96,18.213c-1.916-.591-2.875-.521-2.566,1.992.079,1.3,1.462,1.461,1.921,2s-.15.462-.837.534c-1.5,1.37.854,3.624-4.378,3.453-1.146.083-.384-1.613,1.5-3.22s-.35-1.688-.046-3.608-1.225-2.22-1.758.232-2.3,1.156-3.458,1.463-.613.921.308,2.22c2.529,4.021-3.779,8.387-7.2,1.688-1.537-2.228,1.758-2.916,1.758-3.59s-3.374-1.4-4.907-3.009-1.308,0-1.975.155-.325-.387-1.246-.225" transform="translate(1630.712 -2638.377)" fill="#9cd1f2"/>
      <path id="Path_603" data-name="Path 603" d="M1457.232,228.965a2.722,2.722,0,0,1-2.445-.085c-.892-.387-1.5-.774-2.2.934a21.594,21.594,0,0,1-2.383-5.271c1-.54,1.783.1,2.545.739s1.512,1.287,2.445.729c1.637-.521,4.191,1.827,2.041,2.953" transform="translate(1654.199 -2676.81)" fill="#9cd1f2"/>
      <path id="Path_604" data-name="Path 604" d="M1460.115,215.262s-.408-4.431,1.946-1.857c2.487,2.8-2.654,4.14-1.946,1.857" transform="translate(1648.454 -2669.962)" fill="#9cd1f2"/>
      <path id="Path_605" data-name="Path 605" d="M1470.1,237.225a21.2,21.2,0,0,1-14.985-5.895,22.378,22.378,0,0,0,15.314,5.82,24.27,24.27,0,0,0,3.553-.262c.008,0,.013.008.021.012a23.623,23.623,0,0,1-3.9.325m-20.451-14.7a20.651,20.651,0,0,1-.729-2.879c.025.122.05.246.079.368a.015.015,0,0,1,.013,0,23.169,23.169,0,0,0,.637,2.516" transform="translate(1654.946 -2674.073)" fill="#b1cadf"/>
      <path id="Path_606" data-name="Path 606" d="M1470.558,210.228a22.378,22.378,0,0,1-15.314-5.82,20.01,20.01,0,0,1-3.279-4.254c.4-.974.771-1.266,1.179-1.266a2.878,2.878,0,0,1,1.025.332,3.21,3.21,0,0,0,1.333.339,2.707,2.707,0,0,0,1.112-.254c1.937-1.017.05-3.028-1.541-3.028a1.626,1.626,0,0,0-.5.075,1.383,1.383,0,0,1-.716.211,2.988,2.988,0,0,1-1.729-.94,3.011,3.011,0,0,0-1.792-.942,1.593,1.593,0,0,0-.754.2,21.836,21.836,0,0,0,2.37,5.258,19.155,19.155,0,0,1-2.175-4.537,23.17,23.17,0,0,1-.637-2.516c5.307-2.492,1.587-2.049,2.208-4.482a1.633,1.633,0,0,1,1.412-.568c.1,0,.2.005.292.005s.192.008.287.008a1.29,1.29,0,0,0,.925-.267c.687-.657-2.3-1.645-1.075-2.954a2.159,2.159,0,0,1,1.562-.9,1.54,1.54,0,0,1,.467.078c2.6,9.59,12.006,16.311,21.738,16.311a20.451,20.451,0,0,0,2.2-.117.68.68,0,0,0-.042.2,3.172,3.172,0,0,1-2.671,1.95,1.943,1.943,0,0,1-1.087-.334,7.371,7.371,0,0,0-2.066-.324c-3.97,0-5.2,4.1.817,8.273a24.271,24.271,0,0,1-3.554.262m-16.068-20.438c-.983,0-.737,2.66-.737,2.66-.25.806.225,1.164.837,1.164,1.129,0,2.72-1.2,1.108-3.02-.529-.579-.921-.8-1.208-.8m-4.508-8.6a20.433,20.433,0,0,1,4.708-7.691,22.042,22.042,0,0,0-4.708,7.691" transform="translate(1654.817 -2647.15)" fill="#9bc3df"/>
      <path id="Path_607" data-name="Path 607" d="M1448.517,192.259c-.029-.122-.054-.246-.079-.368a23.132,23.132,0,0,1,.933-11.534,22.042,22.042,0,0,1,4.708-7.691c.2-.2.408-.4.616-.6a20.98,20.98,0,0,0-.087,11.1,1.54,1.54,0,0,0-.467-.078,2.159,2.159,0,0,0-1.562.9c-1.225,1.309,1.762,2.3,1.075,2.954a1.29,1.29,0,0,1-.925.267c-.1,0-.192,0-.287-.008s-.2,0-.292,0a1.633,1.633,0,0,0-1.412.568c-.621,2.433,3.1,1.99-2.208,4.482a.015.015,0,0,0-.013,0" transform="translate(1655.428 -2646.316)" fill="#80b3d8"/>
      <path id="Path_608" data-name="Path 608" d="M1546.01,228.767a21.626,21.626,0,0,0,2.133-5.315c.017-.077.037-.147.058-.222a20.317,20.317,0,0,1-2.191,5.537" transform="translate(1598.304 -2676.163)" fill="#b1cadf"/>
      <path id="Path_609" data-name="Path 609" d="M1531.98,235.438a21.909,21.909,0,0,0,7.978-11.676,21.626,21.626,0,0,1-2.133,5.315,20.243,20.243,0,0,1-5.845,6.361" transform="translate(1606.489 -2676.473)" fill="#9bc3df"/>
      <path id="Path_610" data-name="Path 610" d="M1503.283,238.855c-.008,0-.013-.008-.021-.012-6.016-4.171-4.787-8.273-.817-8.273a7.372,7.372,0,0,1,2.066.324,1.942,1.942,0,0,0,1.087.334,3.172,3.172,0,0,0,2.67-1.95.692.692,0,0,1,.042-.2A20.791,20.791,0,0,0,1520.859,223c-.008.033-.013.067-.021.1-.021.075-.042.145-.058.222a21.908,21.908,0,0,1-7.978,11.676,22.974,22.974,0,0,1-9.519,3.862" transform="translate(1625.667 -2676.029)" fill="#80b3d8"/>
      <path id="Path_611" data-name="Path 611" d="M1452.583,229.814h0l-.012-.013a21.832,21.832,0,0,1-2.37-5.258,1.592,1.592,0,0,1,.754-.2,3.01,3.01,0,0,1,1.791.942,2.988,2.988,0,0,0,1.729.94,1.384,1.384,0,0,0,.716-.211,1.626,1.626,0,0,1,.5-.075c1.591,0,3.479,2.011,1.541,3.028a2.707,2.707,0,0,1-1.112.254,3.209,3.209,0,0,1-1.333-.339,2.877,2.877,0,0,0-1.025-.332c-.408,0-.779.292-1.179,1.266" transform="translate(1654.199 -2676.81)" fill="#80b3d8"/>
      <path id="Path_612" data-name="Path 612" d="M1460.952,216.426c-.612,0-1.087-.358-.837-1.164,0,0-.246-2.66.737-2.66.287,0,.679.225,1.208.8,1.612,1.816.021,3.02-1.108,3.02" transform="translate(1648.454 -2669.962)" fill="#80b3d8"/>
      <path id="Path_613" data-name="Path 613" d="M1786.473,308.076c2.287,3.787-1.4,8.033-.113,8.741.229-.083,3.629,1.17,7.241,2.425,4.245,1.471,8.786,2.945,8.8,2.241,1.9-8.957,8.907-6.073,11.944-15.593a15.146,15.146,0,0,0-10.632-19.359c-12.169-3.583-23.363,10.653-17.243,21.546" transform="translate(1459.026 -2712.763)" fill="#ffd671"/>
      <path id="Path_614" data-name="Path 614" d="M1802.03,323.963c.6-1.945,3.8-.9,3.141,1.025l-.475,1.466c-1.158-.342-3.237-.82-2.666-2.492m9.257,3.02a1.572,1.572,0,0,1,2.154-.919,1.54,1.54,0,0,1-.954,2.928l-1.679-.545.479-1.463m-10.273-3.352c-.771,2.257,1.5,3.467,3.349,3.841l-3.17,9.723,1.021.334,3.17-9.724c1.192.387,2.883.941,4.074,1.328l-3.17,9.724,1.021.334,3.17-9.724c4.516,2.4,7.095-2.62,3.3-4.42-2.187-.913-3.645,1.141-3.983,3.071-1.192-.392-2.887-.942-4.079-1.329,2.341-4.383-3-6.92-4.7-3.157" transform="translate(1449.625 -2733.67)" fill="#fff"/>
      <path id="Path_615" data-name="Path 615" d="M1803.548,329.542a.633.633,0,0,1-.079,0,2.683,2.683,0,0,0-.712-.3,5.411,5.411,0,0,0,.979.133,1.411,1.411,0,0,0,.208-.016.536.536,0,0,1-.4.182m.642-.55a11.745,11.745,0,0,1,1.241-3.328c-.613,1.311-.879,2.617-1.241,3.328m-8.336-1.865a71.548,71.548,0,0,1-7.032-2.433c1.225.377,3.812,1.315,6.52,2.257l.513.176m-8.02-3.009c-.1-.1-.133-.192-.075-.267.033-.091.067-.187.1-.278a1.565,1.565,0,0,0-.029.545m20.709-1.725a25.99,25.99,0,0,0,4.749-3.694,12.932,12.932,0,0,1-4.6,3.627c-.05.021-.1.047-.146.067m-19.7-2.348a6.46,6.46,0,0,0-.6-4.209h0a5.912,5.912,0,0,1,.6,4.209m27.7-14.127a15.259,15.259,0,0,0-3.237-6.733l0,0a13.233,13.233,0,0,1,3.241,6.737" transform="translate(1457.286 -2720.472)" fill="#ffd1a3"/>
      <path id="Path_616" data-name="Path 616" d="M1803.864,329.382a5.412,5.412,0,0,1-.979-.133c-1.271-.43-4.066-1.242-6.9-2.115l-.512-.176c-2.708-.942-5.3-1.88-6.52-2.257a3.77,3.77,0,0,1-.987-.576,1.565,1.565,0,0,1,.029-.545,19.032,19.032,0,0,0,.979-3.528,5.912,5.912,0,0,0-.6-4.208l7.187,2.345-1.9,5.816,1.021.334,1.9-5.821,1.912.625a11.387,11.387,0,0,0,2.2.6l-1.933,5.927,1.021.334,2-6.145c.221.016.437.021.658.021,9.215,0,17.085-11.644,10.994-20.684a15.259,15.259,0,0,1,3.237,6.733,16.245,16.245,0,0,1-3.245,12.781,25.994,25.994,0,0,1-4.749,3.694,6.394,6.394,0,0,0-3.112,3.271,11.752,11.752,0,0,0-1.241,3.328,1.652,1.652,0,0,1-.246.368,1.414,1.414,0,0,1-.208.016" transform="translate(1457.157 -2720.478)" fill="#ffc16c"/>
      <path id="Path_617" data-name="Path 617" d="M1807.776,352.6l-1.021-.334,1.933-5.927c.367.057.729.094,1.087.115l-2,6.145m-5.1-1.661-1.021-.334,1.9-5.816,1.021.329-1.9,5.821" transform="translate(1449.158 -2747.08)" fill="#ffd1a3"/>
      <path id="Path_618" data-name="Path 618" d="M1785.313,355.333c-.171.862-1.379,2.8.046,3.22l16.235,5.3c1.383.492,1.587-1.775,1.933-2.574a1.043,1.043,0,0,0-.662-1.314l-16.239-5.3a1.043,1.043,0,0,0-1.312.667" transform="translate(1459.069 -2752.812)" fill="#6b3e4a"/>
      <path id="Path_619" data-name="Path 619" d="M1785.44,363.641c-1.092,6.81,13.8,11.673,16.939,5.52-.362.091-16.243-5.291-16.61-5.341a.953.953,0,0,1-.329-.179" transform="translate(1458.654 -2758.078)" fill="#ffc3b3"/>
      <path id="Path_620" data-name="Path 620" d="M1825.719,293.124a.971.971,0,0,0,1.846.6.971.971,0,0,0-1.846-.6" transform="translate(1435.156 -2716.557)" fill="#fff"/>
      <path id="Path_621" data-name="Path 621" d="M1804.834,293.73c-1.446,4.221,5.216,6.391,6.537,2.128,1.446-4.22-5.216-6.391-6.537-2.128" transform="translate(1447.426 -2715.943)" fill="#fff"/>
      <path id="Path_622" data-name="Path 622" d="M1831.611,272.926c.329-.037,2.241,1.071,2.387.425l1.925-5.9c.267-.6-1.937-.859-2.179-1.063a.334.334,0,0,0-.425.217c.1.2-2.5,6.462-1.708,6.324" transform="translate(1431.772 -2701.33)" fill="#ffd671"/>
      <path id="Path_623" data-name="Path 623" d="M1866.887,336.11c-.033-.329,1.071-2.246.425-2.388l-5.9-1.925c-.6-.265-.858,1.938-1.062,2.179a.334.334,0,0,0,.217.424c.2-.094,6.461,2.5,6.324,1.709" transform="translate(1414.931 -2739.488)" fill="#ffd671"/>
      <path id="Path_624" data-name="Path 624" d="M1771.693,305.077c-.033-.326,1.075-2.241.429-2.388l-5.9-1.92c-.6-.267-.858,1.933-1.062,2.179a.333.333,0,0,0,.213.42c.2-.091,6.461,2.5,6.324,1.709" transform="translate(1470.464 -2721.386)" fill="#ffd671"/>
      <path id="Path_625" data-name="Path 625" d="M1866.58,296.686c-.258-.208-.829-2.347-1.387-1.992l-5.532,2.812c-.612.233.762,1.974.787,2.3a.338.338,0,0,0,.45.145c.075-.208,6.337-2.8,5.682-3.261" transform="translate(1415.413 -2717.832)" fill="#ffd671"/>
      <path id="Path_626" data-name="Path 626" d="M1791.4,270.513c.329-.016,2.05-1.4,2.291-.791l2.812,5.536c.354.545-1.779,1.146-1.987,1.387a.332.332,0,0,1-.45-.15c.058-.212-3.466-6-2.666-5.982" transform="translate(1455.21 -2703.195)" fill="#ffd671"/>
      <path id="Path_627" data-name="Path 627" d="M1160.566,304.944c4.466,2.038,3.783,8.217,5.37,7.982.375-.491,18.118-4.578,17.443-5.811-3.887-9.232,4.266-11.185,1.054-21.6a16.673,16.673,0,0,0-21.742-10.869c-13.26,4.374-14.485,24.267-2.125,30.3" transform="translate(1828.18 -2705.552)" fill="#ffd671"/>
      <path id="Path_628" data-name="Path 628" d="M1176.742,319.654c-.671-2.142,2.875-3.2,3.487-1.042l.483,1.627c-1.258.417-3.445,1.284-3.97-.586m10.269-3.063a1.732,1.732,0,0,1,1.375-2.179,1.7,1.7,0,0,1,.971,3.25l-1.862.553-.483-1.624m-11.4,3.4c.712,2.524,3.52,2.2,5.437,1.379l3.216,10.791,1.129-.338-3.216-10.79,4.524-1.346,3.216,10.786,1.129-.339-3.216-10.785c5.641-.672,4.737-6.833.217-6.07-2.55.545-2.583,3.32-1.683,5.274-1.321.4-3.2.954-4.524,1.349-.654-5.491-7.074-4.321-6.228.087" transform="translate(1814.437 -2728.659)" fill="#fff"/>
      <path id="Path_629" data-name="Path 629" d="M1177.505,313.557c-.133-.03-.208-.086-.213-.179-.025-.1-.05-.2-.079-.307a1.8,1.8,0,0,0,.292.487m1.283-.083c1.425-.45,4.641-1.287,7.874-2.19a77.552,77.552,0,0,1-7.874,2.19m-2.866-4.153a7.128,7.128,0,0,0-3.212-3.5h0a6.605,6.605,0,0,1,3.208,3.5m18.331-.451a3.861,3.861,0,0,0,1.146-.649.589.589,0,0,1-.321.475.078.078,0,0,0-.037-.005,4.212,4.212,0,0,0-.787.179m1.137-1.117a12.722,12.722,0,0,1-.958-3.782c.267,1.566.837,2.911.958,3.782m-.187-8.711a28.947,28.947,0,0,0,1.987-6.357,14.242,14.242,0,0,1-1.9,6.215c-.029.045-.058.1-.088.142m-3.07-19.914a16.855,16.855,0,0,0-7.145-4.07h-.008a14.572,14.572,0,0,1,7.153,4.07" transform="translate(1816.086 -2706.4)" fill="#ffd1a3"/>
      <path id="Path_630" data-name="Path 630" d="M1177.8,313.586a1.125,1.125,0,0,1-.292-.029,1.8,1.8,0,0,1-.292-.487,20.682,20.682,0,0,0-1.292-3.749,6.6,6.6,0,0,0-3.208-3.5l7.978-2.378,1.925,6.457,1.129-.338-1.925-6.457,2.121-.633a12.3,12.3,0,0,0,2.366-.836l1.962,6.578,1.129-.339-2.033-6.815c8.953-5.424,9.053-21.522-2.379-26a16.855,16.855,0,0,1,7.145,4.07,17.9,17.9,0,0,1,5.057,13.557,28.953,28.953,0,0,1-1.987,6.357,7.031,7.031,0,0,0-.771,4.929,12.722,12.722,0,0,0,.958,3.782,1.785,1.785,0,0,1,.008.467,3.861,3.861,0,0,1-1.146.649c-1.354.384-4.174,1.324-7.132,2.267-.154.05-.3.1-.458.147-3.233.9-6.449,1.741-7.874,2.19a6.124,6.124,0,0,1-.992.112" transform="translate(1816.08 -2706.4)" fill="#ffc16c"/>
      <path id="Path_631" data-name="Path 631" d="M1193.795,346.31l-1.925-6.457,1.129-.338,1.925,6.457-1.129.338m5.653-1.687-1.962-6.578a11.393,11.393,0,0,0,1.058-.576l2.033,6.815-1.129.339" transform="translate(1804.908 -2742.81)" fill="#ffd1a3"/>
      <path id="Path_632" data-name="Path 632" d="M1180.923,356.562c.383.887.5,3.4,2.054,2.89l18.018-5.37a1.148,1.148,0,0,0,.766-1.424c-.387-.887-.5-3.4-2.054-2.892l-18.014,5.37a1.148,1.148,0,0,0-.771,1.426" transform="translate(1811.322 -2749.945)" fill="#6b3e4a"/>
      <path id="Path_633" data-name="Path 633" d="M1184.93,365.37c3.279,6.853,19.805,1.928,18.793-5.6-.271.309-18.022,5.375-18.38,5.557a1.082,1.082,0,0,1-.412.043" transform="translate(1808.957 -2755.82)" fill="#ffc3b3"/>
      <path id="Path_634" data-name="Path 634" d="M1177.763,283.085a1.067,1.067,0,0,0,2.046-.608,1.067,1.067,0,0,0-2.046.608" transform="translate(1813.17 -2710.293)" fill="#fff"/>
      <path id="Path_635" data-name="Path 635" d="M1160.679,293.864c1.333,4.726,8.724,2.526,7.253-2.161-1.333-4.729-8.728-2.526-7.253,2.161" transform="translate(1823.218 -2714.573)" fill="#fff"/>
      <path id="Path_636" data-name="Path 636" d="M1172.37,259.312c.246-.226,2.733-.467,2.47-1.089-.217-.145-1.771-7.323-2.387-6.835-.246.22-2.733.462-2.47,1.082.217.146,1.775,7.325,2.387,6.841" transform="translate(1817.688 -2692.576)" fill="#ffd671"/>
      <path id="Path_637" data-name="Path 637" d="M1242.371,293.7c-.221-.245-.462-2.734-1.083-2.47-.146.216-7.324,1.774-6.841,2.385.225.246.462,2.734,1.087,2.472.146-.218,7.324-1.776,6.836-2.388" transform="translate(1780.082 -2715.825)" fill="#ffd671"/>
      <path id="Path_638" data-name="Path 638" d="M1136.761,325.183c-.221-.247-.463-2.734-1.083-2.472-.146.218-7.328,1.771-6.841,2.388.225.246.462,2.734,1.087,2.47.146-.216,7.324-1.773,6.837-2.385" transform="translate(1841.695 -2734.188)" fill="#ffd671"/>
      <path id="Path_639" data-name="Path 639" d="M1219.17,256.694c-.333-.017-2.262-1.608-2.516-.978.054.254-3.924,6.431-3.145,6.519.333.016,2.258,1.608,2.512.98-.05-.255,3.928-6.433,3.149-6.521" transform="translate(1792.343 -2695.029)" fill="#ffd671"/>
      <path id="Path_640" data-name="Path 640" d="M1132.857,283.246c.271-.2,1.012-2.578,1.566-2.2.1.242,6.807,3.234,6.207,3.737-.271.2-1.012,2.58-1.571,2.2-.1-.242-6.8-3.234-6.2-3.738" transform="translate(1839.358 -2709.871)" fill="#ffd671"/>
    </g>
  </g>
</svg>
